<svg width="1928" height="666" viewBox="0 0 1928 666" fill="none" xmlns="http://www.w3.org/2000/svg">
<!-- <path d="M964 611C921.511 611 362.907 315.783 7 8V666H1921V8C1608.08 287.851 1006.49 611 964 611Z" fill="black"/>
<path d="M6.5 27.5C362.5 314 918 619.5 960.5 619.5C1003 619.5 1608 288 1921 27.5" stroke="#8C2734" stroke-width="20"/>
<path d="M6.5 8.5C362.5 295 917.5 603 960 603C1002.5 603 1608 269 1921 8.5" stroke="#A0A4A8" stroke-width="20"/> -->
<path d="M0.996,0 c-0.004,0.527,-0.496,0.981,-0.496,0.981 S0.008,0.527,0.004,0 H0 V1 H1 V0" stroke="#8C2734" stroke-width="20"/>
</svg>
