<svg xmlns="http://www.w3.org/2000/svg" xmlns:xlink="http://www.w3.org/1999/xlink" width="66.962" height="66.961" viewBox="0 0 66.962 66.961">

    <path id="Facebook" data-name="facebook" class="cls-1" d="M59.522,0H7.44A7.438,7.438,0,0,0,0,7.44V59.522a7.438,7.438,0,0,0,7.44,7.44H35.791v-25.9H27.075V30.929h8.716V23.47c0-8.646,5.286-13.359,13-13.359a74.413,74.413,0,0,1,7.782.391v9.04H51.263c-4.2,0-5.022,1.987-5.022,4.918v6.454H56.285L54.979,41.051h-8.8V66.962h13.34a7.438,7.438,0,0,0,7.44-7.44V7.44A7.439,7.439,0,0,0,59.522,0" transform="translate(0 0)"/>

</svg>
