<svg xmlns="http://www.w3.org/2000/svg" xmlns:xlink="http://www.w3.org/1999/xlink" width="185.526" height="68.909" viewBox="0 0 185.526 68.909">
  <defs>
    <clipPath id="clip-path">
      <rect id="Rectangle_434" data-name="Rectangle 434" width="54.039" height="68.909" fill="none"/>
    </clipPath>
  </defs>
  <g id="Group_441" data-name="Group 441" transform="translate(-89 -119.305)">
    <g id="Group_324" data-name="Group 324" transform="translate(89 119.305)">
      <g id="Group_319" data-name="Group 319" transform="translate(0 0)" clip-path="url(#clip-path)">
        <path id="Path_1282" data-name="Path 1282" d="M26.923.285A92.8,92.8,0,0,0,.273,4.692c0,10.725.091,19.221.091,20.13.181,9.27,2.181,17.268,6,23.811,4.181,7.452,12.361,15.45,20.539,19.811,8.179-4.362,16.54-12.359,20.72-19.811,3.817-6.543,5.816-14.541,6-23.811,0-.962-.091-9.4-.091-20.13C43.8,1.9,36.375.1,26.923.285" transform="translate(0.073 0.072)" fill="#fff"/>
        <path id="Path_1283" data-name="Path 1283" d="M26.973,68.91l-.163-.087C18.714,64.5,10.4,56.488,6.133,48.875,2.307,42.318.273,34.251.09,24.9c0-.211,0-.8-.011-1.716C.054,20.161,0,13.072,0,4.765v-.26l.248-.072A93.46,93.46,0,0,1,26.99.011c9.832-.176,17.586,1.8,26.707,4.421l.251.072v.261c0,8.255.052,15.062.077,18.334.009.953.014,1.574.014,1.8-.185,9.356-2.218,17.424-6.047,23.984-4.221,7.525-12.6,15.542-20.856,19.943ZM.693,5.024c0,8.193.056,15.164.078,18.158.008.917.013,1.509.013,1.714.18,9.222,2.181,17.177,5.95,23.636,4.186,7.461,12.3,15.312,20.239,19.592,8.093-4.362,16.281-12.214,20.419-19.588,3.77-6.462,5.772-14.417,5.953-23.647,0-.214,0-.832-.011-1.784-.025-3.239-.077-9.939-.078-18.078C44.3,2.457,36.662.514,27,.7A92.57,92.57,0,0,0,.693,5.024" transform="translate(0 0)"/>
        <path id="Path_1284" data-name="Path 1284" d="M26.923.285A92.8,92.8,0,0,0,.273,4.692c0,10.725.091,19.221.091,20.13.181,9.27,2.181,17.268,6,23.811,4.181,7.452,12.361,15.45,20.539,19.811,8.179-4.362,16.54-12.359,20.72-19.811,3.817-6.543,5.816-14.541,6-23.811,0-.962-.091-9.4-.091-20.13C43.8,1.9,36.375.1,26.923.285" transform="translate(0.073 0.072)" fill="#ccc"/>
        <path id="Path_1285" data-name="Path 1285" d="M26.973,68.91l-.163-.087C18.714,64.5,10.4,56.488,6.133,48.875,2.307,42.318.273,34.251.09,24.9c0-.211,0-.8-.011-1.716C.054,20.161,0,13.072,0,4.765v-.26l.248-.072A93.46,93.46,0,0,1,26.99.011c9.832-.176,17.586,1.8,26.707,4.421l.251.072v.261c0,8.255.052,15.062.077,18.334.009.953.014,1.574.014,1.8-.185,9.356-2.218,17.424-6.047,23.984-4.221,7.525-12.6,15.542-20.856,19.943ZM.693,5.024c0,8.193.056,15.164.078,18.158.008.917.013,1.509.013,1.714.18,9.222,2.181,17.177,5.95,23.636,4.186,7.461,12.3,15.312,20.239,19.592,8.093-4.362,16.281-12.214,20.419-19.588,3.77-6.462,5.772-14.417,5.953-23.647,0-.214,0-.832-.011-1.784-.025-3.239-.077-9.939-.078-18.078C44.3,2.457,36.662.514,27,.7A92.57,92.57,0,0,0,.693,5.024" transform="translate(0 0)"/>
        <path id="Path_1286" data-name="Path 1286" d="M40.508,44.568a45.35,45.35,0,0,0,4.407-14.314,75.865,75.865,0,0,0,.66-11.871c-.011-1.864-.125-9.451-.125-9.451L30.774,23.245l-.137,11.087Z" transform="translate(8.151 2.376)" fill="#eacc07"/>
        <path id="Path_1287" data-name="Path 1287" d="M40.529,44.666l-.043-.044L30.6,34.373v-.019l.137-11.106.013-.013L45.5,8.848v.105c0,.076.114,7.61.125,9.452,0,.211,0,.441,0,.686a72.034,72.034,0,0,1-.661,11.192,45.744,45.744,0,0,1-4.412,14.328Zm-9.837-10.33,9.816,10.177a45.719,45.719,0,0,0,4.373-14.242,71.987,71.987,0,0,0,.66-11.178c0-.247,0-.476,0-.687-.01-1.722-.11-8.421-.123-9.345L30.828,23.287Z" transform="translate(8.142 2.354)" fill="#fff"/>
        <path id="Path_1288" data-name="Path 1288" d="M37.889,36.759l-5.816-14.9,3.454-.182c-.909,1.091-.546,2,.544,2.727a1.7,1.7,0,0,0,0,2.726c-.181,1.091-.363,1.636.365,2.362,0,1.455-.182,1.455.908,2.364h1.091c1.09-.909.909-.909.909-2.364.727-.727.544-1.271.363-2.362a1.7,1.7,0,0,0,0-2.726c1.09-.728,1.453-1.636.544-2.727l3.454.182Z" transform="translate(8.533 5.766)" fill="#0094d7"/>
        <path id="Path_1289" data-name="Path 1289" d="M37.917,37.031l-.085-.218L31.97,21.792l3.787-.2-.133.16a1.68,1.68,0,0,0-.482,1.3,2.02,2.02,0,0,0,1.008,1.29l.113.076-.113.076a1.388,1.388,0,0,0-.647,1.157,1.775,1.775,0,0,0,.651,1.419l.044.033-.009.056c-.016.1-.034.2-.049.289-.16.912-.239,1.369.387,1.994l.027.028v.037c0,.205,0,.381-.006.536-.019.92-.02,1,.857,1.737h1.025c.877-.733.876-.817.857-1.736,0-.154-.006-.33-.006-.537v-.037l.025-.028c.628-.625.548-1.084.389-2-.016-.091-.033-.187-.051-.287l-.009-.056.044-.033a1.769,1.769,0,0,0,.652-1.418,1.389,1.389,0,0,0-.647-1.158l-.114-.076.114-.076a2.02,2.02,0,0,0,1.008-1.29,1.68,1.68,0,0,0-.482-1.3l-.133-.16,3.787.2-.046.118ZM32.231,21.96l5.686,14.57L43.6,21.96,40.474,21.8a1.741,1.741,0,0,1,.4,1.285,2.092,2.092,0,0,1-.98,1.342,1.573,1.573,0,0,1,.62,1.228,1.972,1.972,0,0,1-.68,1.534c.014.081.028.158.041.234.158.9.253,1.447-.411,2.128,0,.189,0,.351.006.5.02.984-.009,1.118-.947,1.9l-.027.02H37.339l-.027-.02c-.939-.784-.969-.918-.948-1.9,0-.143.006-.306.008-.494-.665-.681-.57-1.228-.411-2.127.013-.076.027-.154.039-.235a1.981,1.981,0,0,1-.68-1.536,1.578,1.578,0,0,1,.62-1.227,2.094,2.094,0,0,1-.979-1.342,1.741,1.741,0,0,1,.4-1.285Z" transform="translate(8.506 5.745)"/>
        <path id="Path_1290" data-name="Path 1290" d="M5.4,44.568A45.383,45.383,0,0,1,.99,30.254,75.865,75.865,0,0,1,.33,18.383C.341,16.519.273,8.932.273,8.932L15.087,23.4V34.332Z" transform="translate(0.073 2.376)" fill="#eacc07"/>
        <path id="Path_1291" data-name="Path 1291" d="M5.4,44.668l-.03-.056A45.768,45.768,0,0,1,.954,30.283,72.1,72.1,0,0,1,.293,19.1c0-.247,0-.479,0-.691C.307,16.565.238,9.031.238,8.955V8.846l.078.076L15.141,23.408V34.374l-.011.013ZM.329,9.064C.338,10,.4,16.687.385,18.406c0,.213,0,.444,0,.691a71.9,71.9,0,0,0,.66,11.173A45.71,45.71,0,0,0,5.416,44.513l9.635-10.177V23.446Z" transform="translate(0.063 2.353)" fill="#fff"/>
        <path id="Path_1292" data-name="Path 1292" d="M20.928,38.718c-.477-.16-.192-.023-.875.16-.428.114-.8-.16-1.044.181.17.194.318,0,.681.046s.228.228.591.137a1.589,1.589,0,0,1,.772.046Z" transform="translate(5.057 10.282)" fill="#0094d7"/>
        <path id="Path_1293" data-name="Path 1293" d="M21.195,39.435l-.146-.048a1.486,1.486,0,0,0-.723-.044c-.225.056-.3.019-.39-.046a.4.4,0,0,0-.233-.089.929.929,0,0,0-.333.022.361.361,0,0,1-.4-.1l-.046-.052.042-.056a.614.614,0,0,1,.647-.2,1.264,1.264,0,0,0,.446-.013,1.723,1.723,0,0,0,.449-.175c.138-.08.19-.078.475.016l.046.015Zm-1.6-.406a1.124,1.124,0,0,1,.125.008.6.6,0,0,1,.315.12c.053.041.08.058.243.018a1.5,1.5,0,0,1,.679.01l-.084-.382c-.2-.063-.209-.06-.289-.015a1.82,1.82,0,0,1-.49.192,1.387,1.387,0,0,1-.506.018c-.2-.018-.33-.027-.437.071a.3.3,0,0,0,.18-.008,1.227,1.227,0,0,1,.263-.032" transform="translate(5.034 10.264)"/>
        <path id="Path_1294" data-name="Path 1294" d="M24.829,41.121a4.419,4.419,0,0,1,.137,1.908,2.481,2.481,0,0,1-.772,1.546,2.853,2.853,0,0,1-1.614.249,11.326,11.326,0,0,1,.137-1.227c.7-.046,1.158-.341,1.158-1.341,0-1.272-.135-1.09.046-1.681a11.93,11.93,0,0,0,.767-2.618,7.711,7.711,0,0,0-.085-2.789c1.408.137,2.362,3.408,1.044,6.725.591-.5,1.136-2.954,1.864-4.181.681.455,1.181,4.135-1.272,4.772,1.272-.5,2.226-1.409,4-2.227.546,1.818-1.908,3.589-4.089,3.454,0,0,3.454-.091,4.726-.318.135,2.362-2.773,2.589-4.817,1.817a9.111,9.111,0,0,0,2.227,1.364c-1.409.863-2.454.455-3.68-1.227,1.09,2.317-2.818,2.136-1.227-.5" transform="translate(6.007 9.357)" fill="#0094d7"/>
        <path id="Path_1295" data-name="Path 1295" d="M26.976,47.125a2.814,2.814,0,0,1-2.093-1.272.971.971,0,0,1-.334,1.036,1.06,1.06,0,0,1-1.3-.08c-.211-.192-.619-.751,0-1.867a4.07,4.07,0,0,1-.656,0l-.09-.008.006-.09c.1-1.3.128-1.3.22-1.312.56-.035,1.076-.211,1.076-1.25,0-.5-.023-.78-.037-.962a1.482,1.482,0,0,1,.085-.746,11.974,11.974,0,0,0,.766-2.611,7.723,7.723,0,0,0-.086-2.75l-.028-.123.125.011a1.538,1.538,0,0,1,1.108.833,6.949,6.949,0,0,1,.267,5.292c.176-.38.354-.875.539-1.386a13.524,13.524,0,0,1,.908-2.149l.048-.084.08.053a3.3,3.3,0,0,1,.538,2.722A3.1,3.1,0,0,1,27.6,41.7c.139-.086.282-.176.429-.268a17.932,17.932,0,0,1,2.2-1.237l.095-.044.03.1a2.126,2.126,0,0,1-.467,1.975,4.381,4.381,0,0,1-1.994,1.348,29.888,29.888,0,0,0,2.993-.251l.1-.019.005.1a1.939,1.939,0,0,1-.765,1.767,4.569,4.569,0,0,1-3.731.286,11.222,11.222,0,0,0,1.7.971l.305.153-.139.085a2.641,2.641,0,0,1-1.375.452m-2.28-1.81c1.184,1.622,2.152,2,3.417,1.288l-.008,0a8.433,8.433,0,0,1-2.093-1.3l-.3-.3.394.149c1.222.462,3,.623,4-.116a1.721,1.721,0,0,0,.7-1.509c-.941.149-2.828.238-3.883.277a4.277,4.277,0,0,1-.762.024l0-.181.75-.024a4.4,4.4,0,0,0,2.82-1.5,2.006,2.006,0,0,0,.463-1.708,18.447,18.447,0,0,0-2.078,1.18c-.342.216-.674.427-1.013.614a2.344,2.344,0,0,1-.827.392l-.056-.172a6.767,6.767,0,0,0,.8-.384,2.633,2.633,0,0,0,.913-1.688,3.537,3.537,0,0,0-.386-2.474,14.869,14.869,0,0,0-.838,2.022,6.067,6.067,0,0,1-.99,2.086l-.277.235.134-.338a7.07,7.07,0,0,0,0-5.856,1.467,1.467,0,0,0-.848-.725A7.6,7.6,0,0,1,24.8,38a11.871,11.871,0,0,1-.774,2.638,1.327,1.327,0,0,0-.072.666c.014.185.037.465.037.976,0,.912-.366,1.353-1.182,1.426-.028.151-.072.614-.106,1.058a2.708,2.708,0,0,0,1.469-.244,2.458,2.458,0,0,0,.731-1.485,4.354,4.354,0,0,0-.134-1.862l.173-.056a4.471,4.471,0,0,1,.139,1.954,2.554,2.554,0,0,1-.81,1.6,2.236,2.236,0,0,1-.793.246h0c-.46.761-.5,1.4-.106,1.757a.867.867,0,0,0,1.074.068c.342-.253.379-.739.1-1.334Z" transform="translate(5.987 9.335)"/>
        <path id="Path_1296" data-name="Path 1296" d="M24.356,40.358c.955-2.5.681-2.317.681-2.317" transform="translate(6.48 10.12)" fill="#0094d7"/>
        <path id="Path_1297" data-name="Path 1297" d="M24.459,40.4l-.17-.065A7.87,7.87,0,0,0,25,38.1a.066.066,0,0,0,.039.039l.027-.07-.06-.09.127.006c.067.053.192.153-.674,2.419" transform="translate(6.462 10.104)"/>
        <path id="Path_1298" data-name="Path 1298" d="M24.572,41.216v-.091a1.963,1.963,0,0,0,1.55-1.02l.081.042a2.065,2.065,0,0,1-1.631,1.07" transform="translate(6.538 10.67)"/>
        <path id="Path_1299" data-name="Path 1299" d="M25.084,41.622a4.7,4.7,0,0,1-.644-.039l.013-.09a4.985,4.985,0,0,0,2.492-.289l.051.076a4.37,4.37,0,0,1-1.91.342" transform="translate(6.502 10.962)"/>
        <path id="Path_1300" data-name="Path 1300" d="M27.074,42.883a4.545,4.545,0,0,1-2.778-.747l.061-.068c.931.842,3.037.715,3.056.715l.008.091c-.022,0-.149.009-.347.009" transform="translate(6.464 11.192)"/>
        <path id="Path_1301" data-name="Path 1301" d="M25.375,43.961a6.56,6.56,0,0,1-1.356-1.515l.08-.046a6.565,6.565,0,0,0,1.326,1.485Z" transform="translate(6.39 11.281)"/>
        <path id="Path_1302" data-name="Path 1302" d="M19.526,41.121a4.419,4.419,0,0,0-.137,1.908,2.477,2.477,0,0,0,.774,1.546,2.846,2.846,0,0,0,1.613.249,11.327,11.327,0,0,0-.137-1.227c-.7-.046-1.158-.341-1.158-1.341,0-1.272.135-1.09-.046-1.681a11.931,11.931,0,0,1-.767-2.618,7.711,7.711,0,0,1,.085-2.789c-1.408.137-2.362,3.408-1.044,6.725-.591-.5-1.136-2.954-1.864-4.181-.681.455-1.181,4.135,1.272,4.772-1.272-.5-2.226-1.409-4-2.227-.546,1.818,1.908,3.589,4.089,3.454,0,0-3.454-.091-4.725-.318-.137,2.362,2.771,2.589,4.816,1.817a9.111,9.111,0,0,1-2.227,1.364c1.409.863,2.454.455,3.68-1.227-1.09,2.317,2.818,2.136,1.228-.5" transform="translate(3.586 9.357)" fill="#0094d7"/>
        <path id="Path_1303" data-name="Path 1303" d="M17.418,47.126a2.644,2.644,0,0,1-1.375-.453l-.139-.085.3-.153a11.336,11.336,0,0,0,1.7-.97,4.578,4.578,0,0,1-3.731-.287,1.943,1.943,0,0,1-.766-1.767l.006-.1.1.018a29.918,29.918,0,0,0,2.994.251,4.374,4.374,0,0,1-1.994-1.348,2.118,2.118,0,0,1-.466-1.975l.03-.1.095.044a18.059,18.059,0,0,1,2.193,1.236c.148.094.29.184.43.27a3.085,3.085,0,0,1-.524-1.32,3.289,3.289,0,0,1,.538-2.723l.078-.053.049.084a13.573,13.573,0,0,1,.908,2.149c.185.513.365,1.008.539,1.388a6.96,6.96,0,0,1,.266-5.293,1.542,1.542,0,0,1,1.109-.833l.124-.011-.027.123a7.492,7.492,0,0,0-.086,2.75,11.955,11.955,0,0,0,.761,2.6,1.508,1.508,0,0,1,.09.758c-.014.182-.035.458-.035.961,0,1.038.515,1.214,1.074,1.25.094.008.124.01.222,1.312l.006.09-.09.008a4.223,4.223,0,0,1-.656,0c.624,1.117.215,1.675,0,1.867a1.053,1.053,0,0,1-1.3.08.966.966,0,0,1-.334-1.036,2.82,2.82,0,0,1-2.094,1.274M16.281,46.6c1.264.71,2.233.334,3.417-1.288l.156.092c-.28.6-.244,1.081.1,1.336a.877.877,0,0,0,1.074-.068c.391-.357.352-1-.108-1.759h0a2.255,2.255,0,0,1-.787-.242,2.541,2.541,0,0,1-.815-1.6,4.454,4.454,0,0,1,.139-1.955l.173.056a4.335,4.335,0,0,0-.134,1.864,2.441,2.441,0,0,0,.736,1.488,2.8,2.8,0,0,0,1.464.241c-.034-.444-.078-.908-.106-1.057-.817-.072-1.182-.514-1.182-1.427,0-.509.023-.79.037-.975a1.326,1.326,0,0,0-.078-.679A12.057,12.057,0,0,1,19.6,38a7.609,7.609,0,0,1,.058-2.7,1.472,1.472,0,0,0-.846.725,7.066,7.066,0,0,0,0,5.856l.134.337-.277-.234a6.081,6.081,0,0,1-.99-2.085,14.823,14.823,0,0,0-.838-2.023,3.535,3.535,0,0,0-.385,2.475,2.626,2.626,0,0,0,.912,1.686,6.673,6.673,0,0,0,.8.384l-.056.172a2.328,2.328,0,0,1-.825-.392c-.341-.187-.672-.4-1.015-.614a18.307,18.307,0,0,0-2.076-1.18,2.006,2.006,0,0,0,.462,1.708,4.4,4.4,0,0,0,2.821,1.5c.444.016.739.024.75.024l0,.182a4.279,4.279,0,0,1-.762-.025c-1.055-.039-2.944-.128-3.883-.277a1.721,1.721,0,0,0,.7,1.509c1.008.741,2.78.579,4,.116l.4-.149-.3.3a8.433,8.433,0,0,1-2.093,1.3Z" transform="translate(3.567 9.335)"/>
        <path id="Path_1304" data-name="Path 1304" d="M18.406,40.358c-.955-2.5-.681-2.317-.681-2.317" transform="translate(4.706 10.12)" fill="#0094d7"/>
        <path id="Path_1305" data-name="Path 1305" d="M18.339,40.4c-.865-2.268-.741-2.366-.674-2.419l.127-.006-.1.152.051-.076.016.084A.078.078,0,0,0,17.8,38.1a7.823,7.823,0,0,0,.709,2.241Z" transform="translate(4.687 10.104)"/>
        <path id="Path_1306" data-name="Path 1306" d="M18.382,41.216a2.065,2.065,0,0,1-1.631-1.07l.081-.042a1.963,1.963,0,0,0,1.55,1.02Z" transform="translate(4.457 10.67)"/>
        <path id="Path_1307" data-name="Path 1307" d="M18.062,41.622a4.364,4.364,0,0,1-1.909-.342L16.2,41.2a4.955,4.955,0,0,0,2.49.289l.013.09a4.7,4.7,0,0,1-.644.039" transform="translate(4.298 10.962)"/>
        <path id="Path_1308" data-name="Path 1308" d="M16.195,42.883c-.2,0-.325-.008-.347-.009l.006-.091c.019,0,2.127.125,3.056-.715l.061.068a4.543,4.543,0,0,1-2.776.747" transform="translate(4.216 11.192)"/>
        <path id="Path_1309" data-name="Path 1309" d="M17.531,43.961l-.049-.076A6.622,6.622,0,0,0,18.806,42.4l.08.046a6.585,6.585,0,0,1-1.355,1.515" transform="translate(4.651 11.281)"/>
        <path id="Path_1310" data-name="Path 1310" d="M41.992,2.472,21.09,23.738l11.269,2.181L47.991,10.65V4.107Z" transform="translate(5.611 0.657)" fill="#ce2128"/>
        <path id="Path_1311" data-name="Path 1311" d="M32.427,26.038l-.046-.009L20.945,23.817,42,2.391,48.12,4.06V10.71l-.027.027ZM21.312,23.7l11.055,2.14L47.939,10.634V4.2l-5.88-1.6Z" transform="translate(5.573 0.636)"/>
        <path id="Path_1312" data-name="Path 1312" d="M23.638,34.22l8.861.318V28.995L42.371,39.23A41.139,41.139,0,0,1,36.5,47.9Z" transform="translate(6.289 7.714)" fill="#ce2128"/>
        <path id="Path_1313" data-name="Path 1313" d="M36.543,48.078l-.065-.07L23.466,34.169l8.989.323V28.817l.156.162,9.916,10.28-.028.057a41.06,41.06,0,0,1-5.89,8.691ZM23.9,34.366,36.544,47.813a41.166,41.166,0,0,0,5.763-8.519L32.636,29.268V34.68l-.094,0Z" transform="translate(6.243 7.667)"/>
        <path id="Path_1314" data-name="Path 1314" d="M22.916,34.175l-8.907.409v-5.59L4.32,39.23c1.908,3.408,4.6,7.441,5.828,8.531Z" transform="translate(1.149 7.714)" fill="#ce2128"/>
        <path id="Path_1315" data-name="Path 1315" d="M10.176,47.935l-.066-.058c-1.3-1.155-4.046-5.34-5.845-8.555l-.033-.058.047-.048,9.845-10.4v5.723l9.035-.415Zm-5.72-8.643c1.761,3.14,4.408,7.176,5.711,8.389L22.719,34.324l-8.776.4V29.271Z" transform="translate(1.126 7.666)"/>
        <path id="Path_1316" data-name="Path 1316" d="M6.272,2.472l20.9,21.266L15.905,25.919.273,10.65V4.107Z" transform="translate(0.073 0.657)" fill="#ce2128"/>
        <path id="Path_1317" data-name="Path 1317" d="M15.893,26.038l-.034-.033L.2,10.71V4.06l.066-.019,6.05-1.65.037.039,21.02,21.386-.166.032ZM.383,10.634l15.57,15.208L27.009,23.7,6.263,2.6.383,4.2Z" transform="translate(0.054 0.636)"/>
        <path id="Path_1318" data-name="Path 1318" d="M7.166,36.759l5.816-14.9-3.454-.182c.909,1.091.546,2-.544,2.727a1.7,1.7,0,0,1,0,2.726c.181,1.091.363,1.636-.363,2.362,0,1.455.181,1.455-.909,2.364H6.621c-1.09-.909-.908-.909-.908-2.364-.728-.727-.546-1.271-.365-2.362a1.7,1.7,0,0,1,0-2.726c-1.09-.728-1.453-1.636-.544-2.727l-3.454.182Z" transform="translate(0.359 5.766)" fill="#0094d7"/>
        <path id="Path_1319" data-name="Path 1319" d="M7.194,37.031l-.084-.218L1.247,21.792l3.787-.2-.133.16a1.683,1.683,0,0,0-.481,1.3,2.02,2.02,0,0,0,1.008,1.29l.113.076-.113.076a1.385,1.385,0,0,0-.647,1.157,1.771,1.771,0,0,0,.651,1.419l.044.033-.058.342c-.16.912-.241,1.37.387,2l.027.028v.037c0,.206,0,.382-.008.537-.019.919-.02,1,.857,1.736H7.706c.877-.733.876-.817.857-1.736,0-.154-.006-.33-.006-.537v-.037l.027-.028c.627-.627.547-1.085.387-2l-.058-.342.044-.033a1.775,1.775,0,0,0,.651-1.419A1.388,1.388,0,0,0,8.961,24.5l-.113-.076.113-.076a2.02,2.02,0,0,0,1.008-1.29,1.68,1.68,0,0,0-.482-1.3l-.132-.16,3.787.2-.047.118ZM1.508,21.96,7.194,36.53l5.687-14.57L9.752,21.8a1.74,1.74,0,0,1,.4,1.285,2.094,2.094,0,0,1-.979,1.342,1.578,1.578,0,0,1,.62,1.227,1.981,1.981,0,0,1-.68,1.536l.041.233c.157.9.252,1.447-.413,2.13,0,.189.005.351.008.5.02.984-.009,1.118-.948,1.9l-.025.02H6.616l-.027-.02c-.938-.782-.967-.917-.947-1.9,0-.144.006-.306.006-.5-.665-.682-.568-1.231-.411-2.13l.041-.233a1.976,1.976,0,0,1-.68-1.536,1.578,1.578,0,0,1,.62-1.227,2.09,2.09,0,0,1-.979-1.342,1.74,1.74,0,0,1,.4-1.285Z" transform="translate(0.332 5.745)"/>
        <path id="Path_1320" data-name="Path 1320" d="M22.231,14.487a2.851,2.851,0,0,0,.546-1.455s.42.091.727.137a5.752,5.752,0,0,0,3.135,1.181c-1.271,1.636-2.68.591-3.226.046a4.725,4.725,0,0,0,2,1.909,1.685,1.685,0,0,1-2.454-1.046,3.925,3.925,0,0,1-.727,3.817,3.925,3.925,0,0,1-.727-3.817,1.685,1.685,0,0,1-2.454,1.046,4.725,4.725,0,0,0,2-1.909c-.546.546-1.954,1.59-3.226-.046a5.847,5.847,0,0,0,3.158-1.215,5.321,5.321,0,0,0,.658-.147,2.972,2.972,0,0,0,.591,1.5" transform="translate(4.742 3.455)" fill="#0094d7"/>
        <path id="Path_1321" data-name="Path 1321" d="M22.267,19.235l-.067-.073a3.73,3.73,0,0,1-.879-3.249,1.624,1.624,0,0,1-.756.615,2.027,2.027,0,0,1-1.522-.119l-.168-.089.175-.075a4.223,4.223,0,0,0,1.619-1.357,2.228,2.228,0,0,1-1.385.455,2.08,2.08,0,0,1-1.5-.913l-.1-.125.158-.02a5.783,5.783,0,0,0,3.116-1.2l.019-.015.024,0a5.158,5.158,0,0,0,.643-.144l.092-.027.023.092c.024.1.046.2.067.295a2.388,2.388,0,0,0,.429,1.08,2.115,2.115,0,0,0,.391-.985c.02-.105.042-.218.071-.344l.022-.086.086.019c.005,0,.422.09.722.134l.042.018a5.691,5.691,0,0,0,3.092,1.164l.158.02-.1.125a2.087,2.087,0,0,1-1.5.913,2.251,2.251,0,0,1-1.385-.455,4.237,4.237,0,0,0,1.618,1.357l.175.075-.168.089a2.023,2.023,0,0,1-1.521.119,1.624,1.624,0,0,1-.756-.615,3.73,3.73,0,0,1-.879,3.249Zm-.812-3.983.173.054a3.828,3.828,0,0,0,.638,3.658,3.824,3.824,0,0,0,.639-3.658l.173-.054a1.738,1.738,0,0,0,.953,1.105,1.761,1.761,0,0,0,1.191-.033,4.876,4.876,0,0,1-1.856-1.861l.144-.106a2.553,2.553,0,0,0,1.634.808c.03,0,.062,0,.092,0a1.828,1.828,0,0,0,1.262-.718,5.727,5.727,0,0,1-3-1.164c-.218-.033-.486-.086-.622-.115-.02.09-.035.172-.051.251a2.308,2.308,0,0,1-.492,1.152l-.066.087-.073-.082a2.436,2.436,0,0,1-.546-1.247c-.014-.066-.029-.132-.044-.2a5.056,5.056,0,0,1-.556.122,5.858,5.858,0,0,1-3.021,1.2,1.828,1.828,0,0,0,1.262.718c.03,0,.061,0,.091,0a2.546,2.546,0,0,0,1.634-.808l.146.106a4.876,4.876,0,0,1-1.856,1.861,1.762,1.762,0,0,0,1.191.033,1.738,1.738,0,0,0,.953-1.105" transform="translate(4.707 3.431)"/>
        <path id="Path_1322" data-name="Path 1322" d="M19.053,11.415l-.341-1.158L17.3,10.188l.727.546.182.772-1.364-.273-1,.591h.544l1.636.546-1.431.544-.023,1.455.546-.727,1.453-.546.955.477.318.932.363-1.386-.909-.66,1.182-.567.453-.8-.636-.318Z" transform="translate(4.217 2.71)" fill="#0094d7"/>
        <path id="Path_1323" data-name="Path 1323" d="M19.889,14.673l-.36-1.056-.92-.461-1.423.533-.622.831.027-1.626.028-.011,1.312-.5-1.507-.5h-.705l1.157-.684,1.312.262-.162-.689-.832-.623,1.589.076.334,1.138,1.222-.623.02.011.679.339-.023.042-.462.806-.013.006-1.113.536.872.633Zm-1.275-1.615.018.009.971.485.006.018.268.79.318-1.21-.946-.686,1.238-.6.423-.741-.572-.286-1.277.651-.348-1.18-1.228-.06.622.466,0,.015.2.842-.07-.014-1.345-.268-.842.5.392,0,1.757.586-1.522.579-.02,1.284.47-.625.011-.005Z" transform="translate(4.182 2.699)"/>
        <path id="Path_1324" data-name="Path 1324" d="M24.77,11.415l.341-1.158,1.409-.068-.727.546-.182.772,1.364-.273,1,.591h-.544l-1.636.546,1.431.544.023,1.455-.546-.727L25.248,13.1l-.955.477-.318.932-.363-1.386.909-.66-1.182-.567-.453-.8.885-.16Z" transform="translate(6.089 2.71)" fill="#0094d7"/>
        <path id="Path_1325" data-name="Path 1325" d="M23.985,14.673l-.41-1.561.025-.019.847-.614-1.126-.541-.008-.013-.486-.851.965-.173.965.461.334-1.138h.033l1.556-.076-.832.624-.162.687L27,11.2l.015.009,1.142.675h-.7l-1.508.5,1.341.51v.03l.025,1.6-.622-.829-1.423-.533-.919.46Zm-.306-1.524L24,14.359l.275-.808.016-.008.972-.486.019.008,1.466.549.008.011.462.614-.02-1.284-1.522-.579,1.771-.587h.379l-.841-.5-1.415.282.2-.857.014-.009.608-.457-1.228.06-.347,1.179-.048-.023L23.779,11l-.808.144.415.728,1.238.6Z" transform="translate(6.074 2.699)"/>
        <path id="Path_1326" data-name="Path 1326" d="M21.09,10.011c1.59,2.636-2.257,2.961-.863.546-1.636,1.636-2.726,1.453-3.817,1.09.727-.363,2.181-1.453,2.727-1.818-1.455.546-3.09,2-4.544-.181a19.949,19.949,0,0,0,3.816-.727c-2.18-.363-4.544-.363-5.452-2.181a27.082,27.082,0,0,0,5.271,1.09c-3.09-1.09-6.18-2.908-5.816-4.907a26.85,26.85,0,0,0,5.453,3.454c-2-1.455-3.09-3.09-2.545-5.09.727,1.636,2.908,3.09,4,3.817.909.727,1.636,1.09,1.636,2.362A1.211,1.211,0,0,0,22.2,8.853a10.259,10.259,0,0,1,.046,1.181,2.85,2.85,0,0,1-1.613-.249,2.481,2.481,0,0,1-.772-1.546A7.811,7.811,0,0,1,19.681,7.1" transform="translate(3.294 0.342)" fill="#0094d7"/>
        <path id="Path_1327" data-name="Path 1327" d="M20.6,12.342a.764.764,0,0,1-.494-.17c-.148-.123-.415-.457-.153-1.157a3.135,3.135,0,0,1-3.554.776l-.208-.07.2-.1a19.436,19.436,0,0,0,1.936-1.265c-1.209.582-2.575,1.215-3.788-.6l-.095-.142h.17A17.176,17.176,0,0,0,17.994,9q-.321-.047-.642-.091c-1.889-.261-3.674-.506-4.458-2.074L12.8,6.65l.2.06a33.844,33.844,0,0,0,4.6,1.034c-1.9-.738-5.669-2.508-5.257-4.781l.032-.171.123.123a26,26,0,0,0,4.667,3.07c-1.738-1.471-2.364-3-1.912-4.665l.067-.246.1.233c.717,1.61,2.911,3.074,3.965,3.777.128.1.246.192.358.28a2.463,2.463,0,0,1,1.319,2.16,1.126,1.126,0,0,0,1.165,1.3c.1.006.13.009.13,1.272v.084l-.084.008a3.779,3.779,0,0,1-1.02-.046c.68,1.215.157,1.81-.025,1.966a.973.973,0,0,1-.629.239m-.419-1.793.143.11c-.356.618-.4,1.131-.1,1.372a.712.712,0,0,0,.889-.067c.428-.367.4-1.058-.078-1.85l.034-.02a1.907,1.907,0,0,1-.458-.176,2.532,2.532,0,0,1-.815-1.605A7.936,7.936,0,0,1,19.61,7.16h.181a8.335,8.335,0,0,0,.18,1.118,2.439,2.439,0,0,0,.737,1.489,2.708,2.708,0,0,0,1.47.239c0-.419-.011-.86-.028-1.01a1.291,1.291,0,0,1-1.267-1.472c0-1.058-.524-1.46-1.248-2.017-.114-.086-.233-.179-.353-.275-1.015-.676-3.084-2.056-3.913-3.621-.348,1.685.5,3.24,2.569,4.749l-.087.158A28.284,28.284,0,0,1,12.5,3.172c-.042.779.458,2.752,5.777,4.63l-.03.176a26.514,26.514,0,0,1-5.086-1.032c.791,1.313,2.457,1.542,4.216,1.785.351.048.713.1,1.066.157l.01.176a21.109,21.109,0,0,1-3.672.728c1.113,1.533,2.323.951,3.5.386.28-.134.568-.272.844-.376l.082.161c-.151.1-.373.258-.632.441-.59.419-1.374.975-1.913,1.279,1.018.311,2.019.37,3.521-1.133" transform="translate(3.275 0.285)"/>
        <path id="Path_1328" data-name="Path 1328" d="M20.892,4.048c-.477-.16-.192-.023-.875.16-.429.114-.8-.16-1.044.181.17.194.318,0,.681.046s.227.228.591.137a1.589,1.589,0,0,1,.772.046Z" transform="translate(5.048 1.058)" fill="#0094d7"/>
        <path id="Path_1329" data-name="Path 1329" d="M21.157,4.764l-.144-.047a1.48,1.48,0,0,0-.724-.044c-.229.056-.3.018-.387-.046a.423.423,0,0,0-.234-.089,1,1,0,0,0-.334.022.359.359,0,0,1-.4-.1l-.044-.052.039-.056a.626.626,0,0,1,.649-.2,1.258,1.258,0,0,0,.444-.013,1.7,1.7,0,0,0,.449-.175c.139-.08.189-.08.475.016L20.989,4Zm-1.6-.405a.914.914,0,0,1,.127.009.585.585,0,0,1,.315.12c.053.038.077.06.243.016a1.6,1.6,0,0,1,.679.01l-.084-.382c-.2-.063-.209-.06-.287-.015a1.836,1.836,0,0,1-.491.192,1.333,1.333,0,0,1-.506.018c-.2-.019-.33-.025-.437.071a.316.316,0,0,0,.18-.008,1.215,1.215,0,0,1,.262-.032" transform="translate(5.025 1.04)"/>
        <path id="Path_1330" data-name="Path 1330" d="M22.023,5.361c.019.029.665.29.681.318" transform="translate(5.859 1.426)" fill="#0094d7"/>
        <path id="Path_1331" data-name="Path 1331" d="M22.664,5.763c-.028-.019-.195-.091-.318-.144-.346-.151-.362-.162-.384-.195l.076-.049L22.1,5.3c.028.018.2.092.322.147.344.149.358.16.38.194l-.077.048Z" transform="translate(5.843 1.411)"/>
        <path id="Path_1332" data-name="Path 1332" d="M22.2,6.709l.272.432.432.114.137-.432-.137-.66,1.455.614-.251-1.113-.476-.886L24.72,5a1.848,1.848,0,0,0-.386-.955c-.111-.162-.362-.3-.523-.5a2.494,2.494,0,0,0,.818-1c-.636.318-3.112-.636-3.5.046a.193.193,0,0,1-.182.272c-1.908.137-1.364,1.59-1.364,1.59s-.113-.227.432-.227c.932-.046.977.227.977.227s-.091.046.091.591l-1,.182.318.227,1.046.091-.772.59-.5.863.363.137.772-.363a3.812,3.812,0,0,0-.59,3.408c.363,1.09.544.818.544,1.545l-2.545.727,1.455.727-.727,1.091,2-.727a4.405,4.405,0,0,1-1.091,2.5L21.4,15.82l.227.932.363.568.342-.546.2-.909,1.272.227A4.8,4.8,0,0,1,22.72,13.5l1.862,1.044a2.857,2.857,0,0,0-.59-1.364,2.042,2.042,0,0,0,1.453-.544l-2.5-.909A6.893,6.893,0,0,0,23.4,6.414" transform="translate(4.981 0.624)" fill="#0094d7"/>
        <path id="Path_1333" data-name="Path 1333" d="M22.046,17.509l-.453-.718-.206-.844-1.248.271L20.343,16a4.292,4.292,0,0,0,1.051-2.3l-2.123.772.824-1.236-1.571-.786,2.7-.772a.926.926,0,0,0-.154-.575,3.956,3.956,0,0,1,.016-4.079l-.494.233-.5-.187.576-.984.587-.448-.837-.072L19.909,5.2,21.017,5a1.073,1.073,0,0,1-.075-.519c-.044-.043-.224-.168-.87-.137-.285,0-.342.062-.351.075a.02.02,0,0,0,0,.018l0,.011-.167.072a.153.153,0,0,1-.01-.03,1.308,1.308,0,0,1,.1-1.072A1.635,1.635,0,0,1,20.993,2.8a.135.135,0,0,0,.1-.039.155.155,0,0,0,0-.114l-.014-.038.02-.037c.251-.443,1.174-.3,2.067-.153a3.475,3.475,0,0,0,1.47.071l.2-.1-.07.209A2.426,2.426,0,0,1,24,3.583a2.275,2.275,0,0,0,.2.179,1.372,1.372,0,0,1,.263.256,1.915,1.915,0,0,1,.4,1.008v.11l-1.008-.21.394.738.289,1.285-.951-.4a6.952,6.952,0,0,1-.457,5.152l2.536.923-.1.1a2.083,2.083,0,0,1-1.343.57,2.853,2.853,0,0,1,.506,1.267l.011.168-1.856-1.042A4.773,4.773,0,0,0,23.93,16.05l.18.2-1.45-.258-.2.852Zm-.28-.775.277.434.257-.41.22-.979,1.117.2a4.892,4.892,0,0,1-.956-2.449l-.015-.172,1.847,1.037a3.033,3.033,0,0,0-.542-1.137l-.119-.158.2.014a2.011,2.011,0,0,0,1.276-.42L22.87,11.8l.048-.092a6.768,6.768,0,0,0,.448-5.247h.006l-.295-.125.105.513-.168.537-.549-.144-.292-.461.153-.1.254.4.313.082.1-.327-.167-.805,1.451.612-.209-.928-.563-1.048,1.158.242a2.14,2.14,0,0,0-.357-.789,1.227,1.227,0,0,0-.228-.219,1.84,1.84,0,0,1-.29-.275l-.061-.073L23.81,3.5a2.71,2.71,0,0,0,.713-.785A5.246,5.246,0,0,1,23.141,2.6c-.768-.124-1.637-.263-1.861.035a.31.31,0,0,1-.035.225.292.292,0,0,1-.239.122,1.471,1.471,0,0,0-1.208.534,1.037,1.037,0,0,0-.127.717.873.873,0,0,1,.4-.07c.947-.043,1.056.243,1.066.3l.011.066-.032.016a1.377,1.377,0,0,0,.108.5l.033.1-.89.162.123.087,1.253.11-.944.72-.437.756.227.085.738-.347.11.138a3.707,3.707,0,0,0-.575,3.323,3.908,3.908,0,0,0,.368.838,1.132,1.132,0,0,1,.18.736v.068l-.066.019-2.319.662,1.337.668-.629.946,1.869-.679-.009.138a4.534,4.534,0,0,1-.929,2.346l.86-.187Z" transform="translate(4.928 0.605)"/>
        <path id="Path_1334" data-name="Path 1334" d="M23.738,10.011c-1.59,2.636,2.257,2.961.863.546,1.636,1.636,2.726,1.453,3.817,1.09-.727-.363-2.181-1.453-2.727-1.818,1.455.546,3.09,2,4.544-.181a19.949,19.949,0,0,1-3.816-.727c2.18-.363,4.544-.363,5.452-2.181A27.082,27.082,0,0,1,26.6,7.83c3.09-1.09,6.18-2.908,5.816-4.907a26.85,26.85,0,0,1-5.453,3.454c2-1.455,3.09-3.09,2.545-5.09-.727,1.636-2.908,3.09-4,3.817-.909.727-1.636,1.09-1.636,2.362,0,1-.455,1.3-1.16,1.341a11.61,11.61,0,0,0-.135,1.227,2.85,2.85,0,0,0,1.613-.249,2.481,2.481,0,0,0,.772-1.546A7.811,7.811,0,0,0,25.148,7.1" transform="translate(6.008 0.342)" fill="#0094d7"/>
        <path id="Path_1335" data-name="Path 1335" d="M24.268,12.342a.973.973,0,0,1-.629-.239c-.182-.157-.705-.751-.025-1.965a3.732,3.732,0,0,1-1.02.044l-.09-.008.006-.09c.1-1.3.128-1.305.222-1.31.557-.037,1.074-.213,1.074-1.25a2.465,2.465,0,0,1,1.319-2.162c.113-.086.23-.176.351-.272,1.061-.708,3.255-2.171,3.972-3.782l.1-.234.067.247c.453,1.661-.172,3.193-1.91,4.664a26,26,0,0,0,4.667-3.07l.123-.122.032.171c.413,2.271-3.359,4.041-5.257,4.779a33.653,33.653,0,0,0,4.6-1.034l.2-.06-.094.187C31.191,8.4,29.406,8.65,27.517,8.911q-.321.044-.642.091a17.174,17.174,0,0,0,3.383.613h.17l-.095.141c-1.213,1.822-2.579,1.186-3.788.6a19.434,19.434,0,0,0,1.935,1.265l.2.1-.208.07a3.132,3.132,0,0,1-3.553-.776c.262.7-.005,1.036-.153,1.157a.769.769,0,0,1-.494.17M23.8,10.095l.034.02c-.476.791-.506,1.483-.08,1.851a.712.712,0,0,0,.89.066c.291-.242.253-.755-.1-1.372l-.344-.6.487.487c1.5,1.5,2.5,1.445,3.521,1.134-.538-.3-1.32-.86-1.91-1.277-.258-.184-.482-.342-.633-.443l-.656-.437.738.276c.276.1.565.242.844.377,1.172.563,2.383,1.147,3.5-.387a21.15,21.15,0,0,1-3.67-.727l-.387-.111.4-.066c.353-.06.71-.108,1.066-.157,1.759-.243,3.423-.472,4.216-1.785a26.417,26.417,0,0,1-5.086,1.032h-.53l.5-.176c5.319-1.878,5.819-3.85,5.777-4.63a28.219,28.219,0,0,1-5.349,3.346l-.677.271.59-.429C29.007,4.851,29.849,3.3,29.5,1.612c-.831,1.565-2.9,2.945-3.92,3.625-.114.092-.232.182-.346.27-.724.557-1.248.958-1.248,2.018,0,.912-.366,1.353-1.184,1.426-.027.149-.071.614-.105,1.057a2.747,2.747,0,0,0,1.469-.243A2.472,2.472,0,0,0,24.9,8.279a8.325,8.325,0,0,0,.18-1.119h.181a7.96,7.96,0,0,1-.182,1.155,2.544,2.544,0,0,1-.812,1.6,1.826,1.826,0,0,1-.462.179" transform="translate(5.987 0.285)"/>
        <path id="Path_1336" data-name="Path 1336" d="M24.607,6.463a4.13,4.13,0,0,1,1.636-1.818,6.628,6.628,0,0,0,1.318-.953" transform="translate(6.547 0.982)" fill="#0094d7"/>
        <path id="Path_1337" data-name="Path 1337" d="M24.71,6.508l-.17-.063a4.168,4.168,0,0,1,1.672-1.864,6.769,6.769,0,0,0,1.3-.936l.139.116a6.56,6.56,0,0,1-1.338.974,4.076,4.076,0,0,0-1.6,1.772" transform="translate(6.529 0.97)"/>
        <path id="Path_1338" data-name="Path 1338" d="M20.645,3.472c0-.272-.057-.318.068-.341a1.529,1.529,0,0,0,.363-.137c.149-.067.2.182.386.122.8-.1.205.038.158.674" transform="translate(5.489 0.793)" fill="#fff"/>
        <path id="Path_1339" data-name="Path 1339" d="M21.731,3.815,21.55,3.8a1.227,1.227,0,0,1,.209-.589L21.77,3.2c-.084,0-.213.02-.279.028a.272.272,0,0,1-.279-.087c-.057-.048-.063-.046-.081-.041l-.111.051a.472.472,0,0,1-.105.041c-.025.008-.07.02-.157.048l-.018,0,0,.054c0,.048.009.111.009.2h-.181c0-.078-.005-.137-.009-.181-.009-.108-.018-.219.151-.249.08-.027.124-.039.152-.047a.368.368,0,0,0,.077-.03l.114-.052A.243.243,0,0,1,21.33,3c.061.052.084.065.122.049.343-.043.458-.053.514.032s0,.146-.052.23a1.054,1.054,0,0,0-.182.505" transform="translate(5.47 0.774)"/>
        <path id="Path_1340" data-name="Path 1340" d="M20.945,3.417a.148.148,0,0,0,.161-.129.165.165,0,0,0-.322,0,.148.148,0,0,0,.161.129" transform="translate(5.53 0.84)"/>
        <path id="Path_1341" data-name="Path 1341" d="M21.162,4.689A1.786,1.786,0,0,1,21.045,4c-.177-.467-.423-.433-.962-.352-.106.016-.223.034-.351.048l-.01-.09c.125-.015.242-.032.348-.048.537-.077.861-.128,1.062.418l0,.016a1.7,1.7,0,0,0,.111.665Z" transform="translate(5.247 0.934)"/>
        <path id="Path_1342" data-name="Path 1342" d="M22.273,4.928l-.058-.071a.817.817,0,0,0,.305-.947l.084-.035a.906.906,0,0,1-.33,1.053" transform="translate(5.91 1.031)"/>
        <path id="Path_1343" data-name="Path 1343" d="M24.625,6.378V6.287a6.416,6.416,0,0,0,2.431-.653l.046.08a6.56,6.56,0,0,1-2.476.665" transform="translate(6.552 1.499)"/>
        <path id="Path_1344" data-name="Path 1344" d="M25.578,7a8.176,8.176,0,0,1-1.138-.077l.013-.09a7.533,7.533,0,0,0,2.143,0l.018.09A6,6,0,0,1,25.578,7" transform="translate(6.502 1.818)"/>
        <path id="Path_1345" data-name="Path 1345" d="M25.982,8.069a3.8,3.8,0,0,1-1.632-.782l.061-.068A3.69,3.69,0,0,0,26,7.981Z" transform="translate(6.478 1.92)"/>
        <path id="Path_1346" data-name="Path 1346" d="M25.525,9.189A6.538,6.538,0,0,1,24.15,7.984l-.124-.125.063-.063.125.124A7.641,7.641,0,0,0,25.544,9.1Z" transform="translate(6.392 2.074)"/>
        <path id="Path_1347" data-name="Path 1347" d="M21.761,8.205l-.029-.03a1.14,1.14,0,0,1-.42-1.042l.087.023a1.04,1.04,0,0,0,.367.927.905.905,0,0,0,.43-.955l.09-.014a1.008,1.008,0,0,1-.471,1.046Z" transform="translate(5.664 1.892)"/>
        <path id="Path_1348" data-name="Path 1348" d="M21.4,8.994l-.029-.029a1.141,1.141,0,0,1-.42-1.043l.087.024a1.09,1.09,0,0,0,.367.925.9.9,0,0,0,.43-.955l.09-.014a1.01,1.01,0,0,1-.471,1.047Z" transform="translate(5.569 2.102)"/>
        <path id="Path_1349" data-name="Path 1349" d="M21.025,8.259,21,8.229a1.138,1.138,0,0,1-.42-1.043l.087.024a1.034,1.034,0,0,0,.367.927.907.907,0,0,0,.43-.955l.089-.014a1.007,1.007,0,0,1-.47,1.046Z" transform="translate(5.468 1.907)"/>
        <path id="Path_1350" data-name="Path 1350" d="M24.012,14.629h0A3.16,3.16,0,0,1,21.9,13.122a.045.045,0,0,1,.01-.063.044.044,0,0,1,.063.01,3.069,3.069,0,0,0,2.046,1.469.046.046,0,0,1,0,.091" transform="translate(5.823 3.472)"/>
        <path id="Path_1351" data-name="Path 1351" d="M22.75,15.522a.043.043,0,0,1-.028-.009,4.783,4.783,0,0,1-1.084-1.828.047.047,0,0,1,.029-.058.047.047,0,0,1,.058.029,4.735,4.735,0,0,0,1.052,1.785.046.046,0,0,1,.009.063.045.045,0,0,1-.037.018" transform="translate(5.756 3.625)"/>
        <path id="Path_1352" data-name="Path 1352" d="M21.328,17.151l-.046-.113a16.255,16.255,0,0,1-.011-2.508l.009-.305h.091c0,.127.005.372.013.657a16.288,16.288,0,0,1-.015,2.152Z" transform="translate(5.649 3.784)"/>
        <path id="Path_1353" data-name="Path 1353" d="M19.054,14.629a.046.046,0,0,1-.046-.042.047.047,0,0,1,.042-.049A3.069,3.069,0,0,0,21.1,13.069a.044.044,0,0,1,.063-.01.045.045,0,0,1,.01.063,3.16,3.16,0,0,1-2.112,1.507Z" transform="translate(5.057 3.472)"/>
        <path id="Path_1354" data-name="Path 1354" d="M20.1,15.522a.045.045,0,0,1-.037-.018.046.046,0,0,1,.009-.063,4.735,4.735,0,0,0,1.052-1.785.046.046,0,0,1,.058-.029.047.047,0,0,1,.029.058,4.783,4.783,0,0,1-1.084,1.828.043.043,0,0,1-.028.009" transform="translate(5.337 3.625)"/>
        <path id="Path_1355" data-name="Path 1355" d="M35.805,19.376H38.35L36.9,37.371Z" transform="translate(9.526 5.155)" fill="#0094d7"/>
        <path id="Path_1356" data-name="Path 1356" d="M37.006,37.4h-.181L35.729,19.3h2.738l-.008.1ZM35.921,19.486,36.928,36.1l1.343-16.614Z" transform="translate(9.506 5.136)"/>
        <path id="Path_1357" data-name="Path 1357" d="M37.341,20.154c-1.207,0-2.185-.633-2.185-1.414s.979-1.413,2.185-1.413,2.185.633,2.185,1.413-.979,1.414-2.185,1.414" transform="translate(9.353 4.61)" fill="#0094d7"/>
        <path id="Path_1358" data-name="Path 1358" d="M37.36,20.264c-1.255,0-2.276-.676-2.276-1.505s1.022-1.5,2.276-1.5,2.275.675,2.275,1.5-1.02,1.505-2.275,1.505m0-2.828c-1.155,0-2.094.594-2.094,1.323s.939,1.323,2.094,1.323,2.094-.594,2.094-1.323-.939-1.323-2.094-1.323" transform="translate(9.334 4.591)"/>
        <path id="Path_1359" data-name="Path 1359" d="M22.231,49.086a2.847,2.847,0,0,0,.546-1.453s.42.09.727.135a5.752,5.752,0,0,0,3.135,1.181c-1.271,1.636-2.68.591-3.226.046a4.725,4.725,0,0,0,2,1.909,1.685,1.685,0,0,1-2.454-1.046,3.924,3.924,0,0,1-.727,3.817,3.924,3.924,0,0,1-.727-3.817A1.685,1.685,0,0,1,19.051,50.9a4.725,4.725,0,0,0,2-1.909c-.546.546-1.954,1.59-3.226-.046a5.847,5.847,0,0,0,3.158-1.215,5.321,5.321,0,0,0,.658-.147,2.972,2.972,0,0,0,.591,1.5" transform="translate(4.742 12.661)" fill="#0094d7"/>
        <path id="Path_1360" data-name="Path 1360" d="M22.267,53.833l-.067-.073a3.73,3.73,0,0,1-.879-3.249,1.624,1.624,0,0,1-.756.615,2.02,2.02,0,0,1-1.522-.119l-.168-.089.176-.075a4.214,4.214,0,0,0,1.619-1.358,2.227,2.227,0,0,1-1.386.456,2.078,2.078,0,0,1-1.5-.912l-.1-.127.158-.019a5.793,5.793,0,0,0,3.116-1.2l.019-.014.024,0a5.314,5.314,0,0,0,.643-.146l.092-.027.023.092c.024.1.046.2.066.295a2.4,2.4,0,0,0,.43,1.08,2.11,2.11,0,0,0,.391-.985c.02-.105.042-.218.071-.344l.022-.086.086.019c.005,0,.422.09.722.134l.042.018a5.7,5.7,0,0,0,3.092,1.165l.158.019-.1.127a2.083,2.083,0,0,1-1.5.912,2.259,2.259,0,0,1-1.385-.455,4.217,4.217,0,0,0,1.618,1.357l.175.075-.168.089a2.017,2.017,0,0,1-1.521.119,1.624,1.624,0,0,1-.756-.615,3.73,3.73,0,0,1-.879,3.249Zm-.812-3.983.173.054a3.832,3.832,0,0,0,.638,3.658,3.824,3.824,0,0,0,.639-3.658l.173-.054a1.738,1.738,0,0,0,.953,1.105,1.761,1.761,0,0,0,1.191-.033,4.876,4.876,0,0,1-1.856-1.861l.144-.106a2.547,2.547,0,0,0,1.636.808q.046,0,.091,0a1.819,1.819,0,0,0,1.262-.717,5.739,5.739,0,0,1-3-1.165c-.218-.033-.486-.086-.622-.115-.02.09-.035.173-.051.251a2.3,2.3,0,0,1-.492,1.152l-.066.086L22.2,49.17a2.436,2.436,0,0,1-.546-1.247c-.014-.066-.029-.132-.044-.2a5.03,5.03,0,0,1-.556.123,5.879,5.879,0,0,1-3.021,1.2,1.819,1.819,0,0,0,1.262.717q.046,0,.091,0a2.543,2.543,0,0,0,1.634-.808l.146.106a4.876,4.876,0,0,1-1.856,1.861,1.762,1.762,0,0,0,1.191.033,1.738,1.738,0,0,0,.953-1.105" transform="translate(4.707 12.636)"/>
        <path id="Path_1361" data-name="Path 1361" d="M19.053,46.014l-.341-1.158L17.3,44.787l.727.546.182.772-1.364-.273-1,.591h.544l1.636.546-1.431.544-.023,1.455.546-.727,1.453-.546.955.477.318.932.363-1.386-.909-.658,1.182-.568.453-.8-.636-.318Z" transform="translate(4.217 11.916)" fill="#0094d7"/>
        <path id="Path_1362" data-name="Path 1362" d="M19.889,49.272l-.36-1.056-.92-.461-1.423.534-.622.829.027-1.626.028-.011,1.312-.5-1.507-.5h-.7l1.156-.684,1.312.262-.162-.689-.832-.623,1.589.076.334,1.138,1.222-.622.02.01.679.339-.023.042-.462.808-.013.006-1.113.534.872.633Zm-1.275-1.615.018.009.971.486.006.018.268.789.318-1.21-.946-.685,1.238-.6.423-.742-.572-.286-1.277.651-.348-1.18-1.228-.06.622.466.2.857-.07-.013-1.345-.27-.842.5h.392l1.757.586-1.522.58-.02,1.283.47-.625.011,0Z" transform="translate(4.182 11.905)"/>
        <path id="Path_1363" data-name="Path 1363" d="M24.77,46.014l.341-1.158,1.409-.068-.727.546-.182.772,1.364-.273,1,.591h-.544l-1.636.546,1.431.544.023,1.455-.546-.727L25.248,47.7l-.955.477-.318.932-.363-1.386.909-.658-1.182-.568-.453-.8.885-.16Z" transform="translate(6.089 11.916)" fill="#0094d7"/>
        <path id="Path_1364" data-name="Path 1364" d="M23.985,49.271l-.41-1.561.025-.019.847-.613-1.126-.542-.008-.011-.486-.852.965-.173.965.461.334-1.138h.033l1.556-.076-.832.624-.162.689L27,45.795l.015.009,1.141.676h-.7l-1.508.5,1.341.511v.03l.025,1.594-.622-.829-1.423-.533-.919.46Zm-.306-1.524L24,48.957l.275-.806.016-.008.972-.487.019.008,1.466.551.008.01.462.614-.02-1.283-1.522-.58,1.771-.587h.379l-.841-.5-1.415.284.2-.858.014-.009.608-.457-1.228.06-.347,1.179-.048-.023-.988-.471-.808.146.415.727,1.238.6Z" transform="translate(6.074 11.905)"/>
        <path id="Path_1365" data-name="Path 1365" d="M22.023,39.978c.019.029.665.267.681.295" transform="translate(5.859 10.636)" fill="#0094d7"/>
        <path id="Path_1366" data-name="Path 1366" d="M22.666,40.359c-.028-.018-.2-.086-.324-.137-.342-.138-.356-.146-.379-.18l.077-.049.054-.072c.028.018.194.084.314.133.354.142.368.151.39.187l-.077.047Z" transform="translate(5.843 10.621)"/>
        <path id="Path_1367" data-name="Path 1367" d="M22.2,41.33l.272.432.432.114.137-.432-.137-.66,1.455.591-.251-1.113-.476-.886,1.09.227a1.848,1.848,0,0,0-.386-.955c-.111-.162-.362-.3-.523-.5a2.494,2.494,0,0,0,.818-1c-.636.318-3.112-.636-3.5.046a.4.4,0,0,1-.365.272c-1.726-.023-1.136,1.681-1.136,1.681s.046-.455.727-.318c.546-.046.637.227.637.227s-.091.046.091.591l-1,.182.137.227,1.227.091-.772.59-.5.863.5.046.5-.181a2.691,2.691,0,0,0-.681,3.271c.363,1.09.318.59.681,1.453l-2.454.863,1.455.728-.727,1.09,2-.727a4.4,4.4,0,0,1-1.091,2.5l1.046-.228.227.932.363.568.342-.546.2-.909,1.272.228a4.811,4.811,0,0,1-1.09-2.59l1.862,1.045a2.85,2.85,0,0,0-.59-1.362,2.046,2.046,0,0,0,1.453-.546l-2.5-.909a6.893,6.893,0,0,0,.455-5.316" transform="translate(4.981 9.829)" fill="#0094d7"/>
        <path id="Path_1368" data-name="Path 1368" d="M22.043,52.106l-.453-.717-.206-.844-1.248.272.205-.216a4.292,4.292,0,0,0,1.051-2.3l-2.123.772.824-1.236-1.555-.777,2.565-.9a2.541,2.541,0,0,0-.263-.492,2.938,2.938,0,0,1-.384-.88,2.869,2.869,0,0,1,.366-3.058l-.086.03-.661-.059.594-1.013.584-.446-1.036-.076-.228-.381,1.026-.186a1.09,1.09,0,0,1-.075-.519c-.041-.054-.165-.171-.525-.138H20.4l-.013,0a.642.642,0,0,0-.5.052.284.284,0,0,0-.119.187l-.176.019a1.67,1.67,0,0,1,.1-1.36,1.254,1.254,0,0,1,1.086-.443.225.225,0,0,1,.039,0,.313.313,0,0,0,.272-.21c.258-.462,1.181-.314,2.075-.171a3.48,3.48,0,0,0,1.47.072l.2-.1-.07.208a2.418,2.418,0,0,1-.772.984c.062.063.133.122.2.18a1.34,1.34,0,0,1,.263.257,1.91,1.91,0,0,1,.4,1.007v.109l-1.008-.209.394.737.289,1.283-.947-.384a6.947,6.947,0,0,1-.461,5.136l2.536.923-.1.1a2.086,2.086,0,0,1-1.343.571,2.853,2.853,0,0,1,.506,1.267l.011.168-1.856-1.042a4.773,4.773,0,0,0,1.048,2.364l.18.2-1.45-.26-.2.853Zm-.28-.774.277.434.257-.41.22-.979,1.117.2a4.892,4.892,0,0,1-.956-2.45l-.015-.171,1.847,1.037a3.033,3.033,0,0,0-.542-1.137l-.119-.158.2.014a2.047,2.047,0,0,0,1.276-.422L22.867,46.4l.048-.091a6.775,6.775,0,0,0,.453-5.234l-.295-.119.106.515L23.011,42l-.549-.144-.292-.463.153-.1.254.4.313.082.1-.327-.166-.8,1.45.589-.209-.932-.563-1.047,1.158.242a2.14,2.14,0,0,0-.357-.789,1.227,1.227,0,0,0-.228-.219,1.9,1.9,0,0,1-.29-.275l-.061-.076.078-.054a2.724,2.724,0,0,0,.713-.786,5.088,5.088,0,0,1-1.381-.114c-.791-.127-1.691-.268-1.88.063a.481.481,0,0,1-.437.319c-.014,0-.028,0-.041,0a1.09,1.09,0,0,0-.939.367,1.289,1.289,0,0,0-.134.965.688.688,0,0,1,.07-.062.78.78,0,0,1,.634-.089c.041,0,.077,0,.111,0,.5,0,.6.281.606.295l.024.073-.042.022a1.377,1.377,0,0,0,.108.5l.033.1-.974.176.046.075,1.418.105-.948.724-.419.724.337.032.481-.175.087.157c-.928.713-1.134,1.721-.651,3.17a2.748,2.748,0,0,0,.36.836,2.82,2.82,0,0,1,.319.613l.038.089L19,47.09l1.353.676-.629.946,1.869-.679-.009.138a4.528,4.528,0,0,1-.929,2.345l.86-.186Z" transform="translate(4.932 9.81)"/>
        <path id="Path_1369" data-name="Path 1369" d="M20.752,38.035c0-.272-.057-.318.068-.341a1.509,1.509,0,0,0,.363-.137c.149-.067.2.182.386.122.886-.1.16-.19.16.674" transform="translate(5.518 9.989)" fill="#fff"/>
        <path id="Path_1370" data-name="Path 1370" d="M21.838,38.372h-.181a1.12,1.12,0,0,1,.158-.612c-.058.009-.13.019-.218.028a.278.278,0,0,1-.277-.087c-.057-.047-.063-.047-.081-.041l-.11.049a.469.469,0,0,1-.105.042l-.158.048-.018,0c0,.015,0,.037.005.056,0,.048.008.111.008.195H20.68c0-.077-.005-.135-.009-.18-.009-.109-.018-.22.151-.251.08-.027.124-.039.152-.047a.348.348,0,0,0,.078-.032l.113-.051a.242.242,0,0,1,.272.067c.061.052.085.065.122.049.194-.023.305-.042.371-.053.082-.015.144-.027.179.039a.112.112,0,0,1-.039.137.831.831,0,0,0-.23.638" transform="translate(5.499 9.97)"/>
        <path id="Path_1371" data-name="Path 1371" d="M21.052,37.98a.132.132,0,1,0-.161-.129.148.148,0,0,0,.161.129" transform="translate(5.558 10.036)"/>
        <path id="Path_1372" data-name="Path 1372" d="M21.154,39.29a1.786,1.786,0,0,1-.116-.69.725.725,0,0,0-.367-.333,1.1,1.1,0,0,0-.889.027l-.033-.084a1.174,1.174,0,0,1,.958-.025.792.792,0,0,1,.418.392l0,.015a1.694,1.694,0,0,0,.111.665Z" transform="translate(5.254 10.135)"/>
        <path id="Path_1373" data-name="Path 1373" d="M22.273,39.527l-.058-.071a.817.817,0,0,0,.305-.947l.084-.035a.906.906,0,0,1-.33,1.053" transform="translate(5.91 10.236)"/>
        <path id="Path_1374" data-name="Path 1374" d="M21.761,42.8l-.029-.029a1.144,1.144,0,0,1-.42-1.043l.087.023a1.04,1.04,0,0,0,.367.927.905.905,0,0,0,.43-.955l.09-.014a1.008,1.008,0,0,1-.471,1.046Z" transform="translate(5.664 11.098)"/>
        <path id="Path_1375" data-name="Path 1375" d="M21.4,43.593l-.029-.029a1.143,1.143,0,0,1-.42-1.043l.087.023a1.039,1.039,0,0,0,.367.927.905.905,0,0,0,.43-.955l.09-.014a1.008,1.008,0,0,1-.471,1.046Z" transform="translate(5.569 11.308)"/>
        <path id="Path_1376" data-name="Path 1376" d="M21.024,42.877,21,42.854a.858.858,0,0,1-.306-1.172l.078.046a.765.765,0,0,0,.256,1.032.906.906,0,0,0,.433-.956l.089-.015a1,1,0,0,1-.47,1.046Z" transform="translate(5.473 11.09)"/>
        <path id="Path_1377" data-name="Path 1377" d="M7.34,19.376H4.8L6.25,37.371Z" transform="translate(1.276 5.155)" fill="#0094d7"/>
        <path id="Path_1378" data-name="Path 1378" d="M6.18,37.4,4.718,19.3h2.74l-.005.1L6.361,37.4ZM4.916,19.486,6.259,36.1,7.265,19.486Z" transform="translate(1.255 5.136)"/>
        <path id="Path_1379" data-name="Path 1379" d="M6.188,20.154c1.207,0,2.185-.633,2.185-1.414s-.979-1.413-2.185-1.413S4,17.96,4,18.74s.979,1.414,2.185,1.414" transform="translate(1.065 4.61)" fill="#0094d7"/>
        <path id="Path_1380" data-name="Path 1380" d="M6.207,20.264c-1.255,0-2.275-.676-2.275-1.505s1.02-1.5,2.275-1.5,2.275.675,2.275,1.5-1.02,1.505-2.275,1.505m0-2.828c-1.155,0-2.094.594-2.094,1.323s.939,1.323,2.094,1.323S8.3,19.488,8.3,18.759s-.939-1.323-2.094-1.323" transform="translate(1.046 4.591)"/>
        <path id="Path_1381" data-name="Path 1381" d="M5.842,20.01a3.46,3.46,0,0,1-.455-.028l.048-.36A2.771,2.771,0,0,0,7,19.4l.189.31a2.7,2.7,0,0,1-1.345.3" transform="translate(1.433 5.16)"/>
        <path id="Path_1382" data-name="Path 1382" d="M6.621,20.1a.278.278,0,0,0-.03-.143.752.752,0,0,0-.21.005c-.042.005-.087.01-.134.013l-.025-.362.122-.011a.6.6,0,0,1,.484.08.553.553,0,0,1,.158.4Z" transform="translate(1.655 5.212)"/>
        <path id="Path_1383" data-name="Path 1383" d="M37.108,19.986a5.432,5.432,0,0,1-.72-.057l.037-.362a2.662,2.662,0,0,0,1.562-.134l.189.31a2.078,2.078,0,0,1-1.067.243" transform="translate(9.681 5.17)"/>
        <path id="Path_1384" data-name="Path 1384" d="M37.612,20.137a.268.268,0,0,0-.03-.142.706.706,0,0,0-.21.005l-.134.013-.025-.362.122-.011a.607.607,0,0,1,.484.08.541.541,0,0,1,.158.4Z" transform="translate(9.9 5.222)"/>
        <path id="Path_1385" data-name="Path 1385" d="M37.228,19.255l-.115,0h0c-.58,0-1.217-.33-1.217-.863h.363c0,.281.465.5.863.5a.879.879,0,0,0,.646-.147.431.431,0,0,0,.128-.315l.362.015a.784.784,0,0,1-.244.568,1.134,1.134,0,0,1-.785.244" transform="translate(9.55 4.892)"/>
        <path id="Path_1386" data-name="Path 1386" d="M6.075,19.291l-.115,0h0c-.58,0-1.217-.33-1.217-.863h.363c0,.281.465.5.863.5a.9.9,0,0,0,.646-.147.431.431,0,0,0,.128-.315l.362.015a.784.784,0,0,1-.244.568,1.134,1.134,0,0,1-.785.244" transform="translate(1.262 4.902)"/>
        <path id="Path_1387" data-name="Path 1387" d="M20.834,37a3.1,3.1,0,0,0,2.955,1.681,5.189,5.189,0,0,0,2.545-1.455l.18-.181,9.817.363V19.233H11.973V37.409l8.907-.363Z" transform="translate(3.185 5.117)"/>
        <path id="Path_1388" data-name="Path 1388" d="M23.478,38.818a3.265,3.265,0,0,1-2.65-1.66l-8.926.365V19.161H36.439V37.523l-9.869-.366-.154.153c-.12.1-.228.184-.33.268a4.459,4.459,0,0,1-2.264,1.212,2.073,2.073,0,0,1-.344.028M21.035,37.15a2.976,2.976,0,0,0,2.757,1.46,4.33,4.33,0,0,0,2.179-1.172q.154-.127.323-.262l.2-.2h.041l9.721.36V19.342H12.083V37.333l8.81-.358.025-.019.191.191Z" transform="translate(3.167 5.098)"/>
        <path id="Path_1389" data-name="Path 1389" d="M21.305,34.2c.727-.909,2-1.453,3.817-.363,2,1.272,3.817,1.272,4.726.727V18.937c-.909.544-2,.544-4.181-.182-2.727-.909-3.273-.363-4.363.727Z" transform="translate(5.668 4.867)" fill="#fff"/>
        <path id="Path_1390" data-name="Path 1390" d="M28.407,35.024a6.294,6.294,0,0,1-3.315-1.088c-2.012-1.207-3.18-.3-3.7.344l-.162.2V19.464l.027-.028c1.115-1.115,1.672-1.675,4.455-.748,2.071.69,3.184.742,4.1.19l.138-.082V34.639l-.044.027a2.947,2.947,0,0,1-1.507.358m-5.184-1.852a4.021,4.021,0,0,1,1.966.61c1.927,1.227,3.679,1.262,4.587.753V19.112c-.942.5-2.086.424-4.118-.252-2.649-.882-3.163-.4-4.243.679V33.98a2.392,2.392,0,0,1,1.808-.808" transform="translate(5.649 4.848)"/>
        <path id="Path_1391" data-name="Path 1391" d="M21.305,31.064c.727-.909,2-1.453,3.817-.363,2,1.272,3.817,1.272,4.726.727a3.074,3.074,0,0,0,2.726,1.636c-2.726,1.046-4.907,1.091-6.725.182-1.09-.546-2.181-.909-3.271.363,0-.909-.182-1.455-1.272-2.545" transform="translate(5.668 8.007)" fill="#eacc07"/>
        <path id="Path_1392" data-name="Path 1392" d="M28.7,34a6.312,6.312,0,0,1-2.869-.652c-1.058-.53-2.1-.9-3.163.341l-.16.187v-.246c0-.91-.189-1.423-1.246-2.48l-.058-.057.052-.065c1.338-1.674,3.2-.825,3.935-.385,1.96,1.247,3.735,1.261,4.631.727l.085-.049.043.087a3.006,3.006,0,0,0,2.659,1.586l.019.175A11.045,11.045,0,0,1,28.7,34m-4.465-1.328a3.874,3.874,0,0,1,1.678.513c1.726.863,3.8.843,6.325-.063a2.981,2.981,0,0,1-2.406-1.547c-.966.515-2.771.475-4.736-.776-1.948-1.167-3.1-.358-3.645.281A3.191,3.191,0,0,1,22.69,33.4a2.1,2.1,0,0,1,1.548-.728" transform="translate(5.643 7.99)"/>
        <path id="Path_1393" data-name="Path 1393" d="M30.779,20.8V36.069a3.215,3.215,0,0,1-2.726-1.636V18.8c.862,1.567,1.339,2.022,2.726,2" transform="translate(7.464 5.002)" fill="#eacc07"/>
        <path id="Path_1394" data-name="Path 1394" d="M30.889,36.18l-.1-.011a3.3,3.3,0,0,1-2.8-1.688l-.008-.039V18.811l.17-.044C29,20.3,29.447,20.74,30.8,20.719h.092Zm-2.727-1.759a3.075,3.075,0,0,0,2.545,1.555V20.9h0c-1.269,0-1.788-.436-2.541-1.743Z" transform="translate(7.445 4.993)"/>
        <rect id="Rectangle_422" data-name="Rectangle 422" width="0.181" height="4.544" transform="translate(36.108 35.755)"/>
        <rect id="Rectangle_423" data-name="Rectangle 423" width="0.181" height="4.544" transform="translate(36.835 36.164)"/>
        <rect id="Rectangle_424" data-name="Rectangle 424" width="0.181" height="4.464" transform="translate(37.561 36.481)"/>
        <path id="Path_1395" data-name="Path 1395" d="M27.239,32.257a2.77,2.77,0,0,1-.675-.076l.044-.176a3.879,3.879,0,0,0,2.346-.311l.081.163a4.346,4.346,0,0,1-1.8.4" transform="translate(7.068 8.432)"/>
        <path id="Path_1396" data-name="Path 1396" d="M27.6,32.9a4.981,4.981,0,0,1-1.138-.128L26.5,32.6a5.741,5.741,0,0,0,3.517-.4l.081.163a6.056,6.056,0,0,1-2.5.544" transform="translate(7.039 8.566)"/>
        <rect id="Rectangle_425" data-name="Rectangle 425" width="0.181" height="4.544" transform="translate(36.062 24.849)"/>
        <rect id="Rectangle_426" data-name="Rectangle 426" width="0.181" height="4.544" transform="translate(36.789 25.623)"/>
        <rect id="Rectangle_427" data-name="Rectangle 427" width="0.181" height="4.544" transform="translate(37.516 25.758)"/>
        <path id="Path_1397" data-name="Path 1397" d="M23.1,34.2c-.727-.909-2-1.453-3.817-.363-2,1.272-3.817,1.272-4.725.727V18.937c.908.544,2,.544,4.181-.182,2.726-.909,3.271-.363,4.362.727Z" transform="translate(3.873 4.867)" fill="#fff"/>
        <path id="Path_1398" data-name="Path 1398" d="M16.038,35.024a2.952,2.952,0,0,1-1.508-.358l-.043-.027V18.8l.137.084c.919.549,2.032.5,4.1-.191,2.782-.925,3.341-.366,4.457.75l.025.027V34.483l-.161-.2c-.518-.647-1.686-1.552-3.7-.342a6.3,6.3,0,0,1-3.312,1.085m-1.37-.489c.91.511,2.661.474,4.586-.751.709-.427,2.449-1.228,3.775.195V19.539c-1.077-1.077-1.593-1.562-4.243-.677-2.032.674-3.175.748-4.118.251Z" transform="translate(3.854 4.848)"/>
        <path id="Path_1399" data-name="Path 1399" d="M23.673,31.064c-.727-.909-2-1.453-3.817-.363-2,1.272-3.817,1.272-4.725.727A3.078,3.078,0,0,1,12.4,33.064c2.727,1.046,4.907,1.091,6.725.182,1.09-.546,2.181-.909,3.271.363,0-.909.182-1.455,1.272-2.545" transform="translate(3.3 8.007)" fill="#eacc07"/>
        <path id="Path_1400" data-name="Path 1400" d="M16.308,34a11.075,11.075,0,0,1-3.929-.829l.02-.176a3,3,0,0,0,2.657-1.586l.044-.087.084.051c.9.534,2.673.519,4.63-.725.738-.444,2.6-1.294,3.937.382l.051.065-.057.057C22.688,32.2,22.5,32.715,22.5,33.627v.244l-.16-.185c-1.069-1.246-2.105-.872-3.163-.342a6.321,6.321,0,0,1-2.87.652m-3.537-.879c2.526.908,4.6.928,6.326.063,1.032-.517,2.128-.918,3.226.216a3.184,3.184,0,0,1,1.236-2.321c-.541-.641-1.7-1.448-3.648-.28-1.964,1.247-3.77,1.29-4.735.774a2.977,2.977,0,0,1-2.406,1.547" transform="translate(3.294 7.989)"/>
        <path id="Path_1401" data-name="Path 1401" d="M12.4,20.8V36.069a3.213,3.213,0,0,0,2.725-1.636V18.8c-.861,1.567-1.338,2.022-2.725,2" transform="translate(3.3 5.002)" fill="#eacc07"/>
        <path id="Path_1402" data-name="Path 1402" d="M12.333,36.18V20.718h.185c1.28,0,1.728-.457,2.552-1.954l.171.044-.009,15.67a3.3,3.3,0,0,1-2.8,1.688ZM12.514,20.9V35.977a3.073,3.073,0,0,0,2.545-1.555V19.158c-.753,1.308-1.272,1.743-2.541,1.743Z" transform="translate(3.281 4.993)"/>
        <rect id="Rectangle_428" data-name="Rectangle 428" width="0.181" height="4.544" transform="translate(17.659 35.755)"/>
        <rect id="Rectangle_429" data-name="Rectangle 429" width="0.181" height="4.544" transform="translate(16.932 36.164)"/>
        <rect id="Rectangle_430" data-name="Rectangle 430" width="0.181" height="4.464" transform="translate(16.206 36.481)"/>
        <path id="Path_1403" data-name="Path 1403" d="M15.892,32.257a4.346,4.346,0,0,1-1.8-.4l.081-.163a3.89,3.89,0,0,0,2.346.311l.044.176a2.763,2.763,0,0,1-.675.076" transform="translate(3.75 8.432)"/>
        <path id="Path_1404" data-name="Path 1404" d="M15.78,32.9a6.056,6.056,0,0,1-2.5-.544l.081-.163a5.744,5.744,0,0,0,3.517.4l.042.177a4.981,4.981,0,0,1-1.138.128" transform="translate(3.533 8.566)"/>
        <rect id="Rectangle_431" data-name="Rectangle 431" width="0.181" height="4.544" transform="translate(17.705 24.849)"/>
        <rect id="Rectangle_432" data-name="Rectangle 432" width="0.181" height="4.544" transform="translate(16.978 25.623)"/>
        <rect id="Rectangle_433" data-name="Rectangle 433" width="0.181" height="4.544" transform="translate(16.251 25.758)"/>
        <path id="Path_1405" data-name="Path 1405" d="M21.449,33.627v-.091a1.429,1.429,0,0,0,.985-.6l.075.051a1.528,1.528,0,0,1-1.06.644" transform="translate(5.707 8.762)" fill="#fff"/>
        <path id="Path_1406" data-name="Path 1406" d="M20.479,33.173c-.011-.014-.029-.032-.049-.053a.531.531,0,0,1-.165-.242l.091-.011c.006.052.09.138.139.19.023.024.042.044.054.06Z" transform="translate(5.392 8.744)" fill="#fff"/>
        <path id="Path_1407" data-name="Path 1407" d="M15.277,20.512H17.11l.054.755h-.08a.546.546,0,0,0-.187-.452.512.512,0,0,0-.339-.092h-.619v2.544c0,.256.113.3.29.3v.085h-.917v-.085c.177,0,.29-.042.29-.3V21.072c0-.485-.261-.462-.325-.466Z" transform="translate(4.065 5.457)"/>
        <path id="Path_1408" data-name="Path 1408" d="M17.414,20.447l1.241,2V20.562c0-.254-.114-.272-.292-.234v-.084l.742-.158v.084a.309.309,0,0,0-.291.36v2.78l-.071.016L17.316,21.09v2.122c0,.218.127.27.291.234v.085l-.741.158v-.084a.339.339,0,0,0,.291-.36V20.827c-.1-.137-.12-.244-.285-.181v-.084Z" transform="translate(4.488 5.344)"/>
        <path id="Path_1409" data-name="Path 1409" d="M19.77,23.369l-.891-.1v-.806l.046.005c.037.248.073.311.2.327l.477.056-.006-.139a1.1,1.1,0,0,1-.505-.6,2.227,2.227,0,0,1-.049-1.474.967.967,0,0,1,.343-.513.723.723,0,0,1,.553-.153.905.905,0,0,1,.553.284,1.311,1.311,0,0,1,.344.593,2.181,2.181,0,0,1-.047,1.462.785.785,0,0,1-.5.484l-.005.138.477.056c.127.015.162-.041.2-.28l.046.005v.806l-.893-.105.048-.751c.1-.058.238-.091.356-.525a2.747,2.747,0,0,0-.138-1.7.558.558,0,0,0-.438-.31.425.425,0,0,0-.438.208A2.615,2.615,0,0,0,19.363,22c.119.462.261.528.357.609Z" transform="translate(5.022 5.31)"/>
        <path id="Path_1410" data-name="Path 1410" d="M16.181,24.068l1.716-.391.033.677-.062.015c-.034-.166-.09-.457-.418-.382l-.729.167.666,1.018L16.6,26.6l.971-.222c.213-.048.334-.139.434-.6l.067-.015-.123.958-1.812.413.931-1.7Z" transform="translate(4.295 6.299)"/>
        <path id="Path_1411" data-name="Path 1411" d="M19.97,26.751l-1.791-.1V26.57c.182.01.3-.024.3-.273l.008-2.3c0-.249-.115-.3-.3-.306V23.6l1.764.1v.67l-.09-.005c-.043-.21-.029-.453-.314-.47l-.715-.039,0,1.132.519.028c.266.015.339-.134.341-.406l.076,0,0,1.042-.076,0c0-.272-.072-.43-.338-.444l-.518-.029,0,1.123c0,.158.062.2.132.2l.542.013c.352.005.443-.306.524-.533l.1.006Z" transform="translate(4.837 6.28)"/>
        <path id="Path_1412" data-name="Path 1412" d="M15.167,27.679l1.734-.285.039.672-.063.01c-.035-.165-.095-.456-.425-.4l-.738.12.684,1.047L15.617,30.2l.982-.161c.214-.034.337-.118.434-.57l.067-.01-.116.939-1.832.3.929-1.621Z" transform="translate(4.031 7.288)"/>
        <path id="Path_1413" data-name="Path 1413" d="M17.464,29.981a1.814,1.814,0,0,1-.4-1.237,2.141,2.141,0,0,1,.4-1.312,1.077,1.077,0,0,1,.7-.422.833.833,0,0,1,.7.258,1.776,1.776,0,0,1,.4,1.219,2.189,2.189,0,0,1-.4,1.331,1.045,1.045,0,0,1-.7.422.809.809,0,0,1-.7-.26m.02-1.819a3.682,3.682,0,0,0,0,1.141,1.5,1.5,0,0,0,.17.5.553.553,0,0,0,.5.263.732.732,0,0,0,.517-.382,1.757,1.757,0,0,0,.17-.536,3.652,3.652,0,0,0,0-1.141,1.483,1.483,0,0,0-.13-.455.542.542,0,0,0-.549-.36.727.727,0,0,0-.549.487,1.865,1.865,0,0,0-.13.485m.886.27c.12-.014.184-.114.219-.27h.049c-.014.149-.02.279-.02.394s.006.243.02.394l-.049.01c-.035-.152-.1-.233-.219-.219l-.413.048c-.12.014-.182.109-.219.27h-.048c.013-.153.019-.284.019-.4s-.006-.243-.019-.39l.048-.01c.037.148.1.233.219.219Z" transform="translate(4.54 7.185)"/>
        <path id="Path_1414" data-name="Path 1414" d="M20.881,30.355l-1.819-.228v-.08c.186.023.305,0,.306-.247l.019-2.264c0-.244-.115-.3-.3-.323v-.08l1.791.224-.005.658-.091-.011c-.042-.21-.027-.448-.317-.485l-.727-.091-.009,1.112.527.067c.27.033.346-.109.348-.376l.077.01-.009,1.023-.077-.01c0-.267-.071-.427-.341-.461l-.527-.066-.009,1.1c0,.156.062.2.133.209l.551.051c.357.032.451-.268.534-.485l.105.013Z" transform="translate(5.072 7.219)"/>
        <path id="Path_1415" data-name="Path 1415" d="M23.862,19.895l.016.784-.085.024c0-.36-.141-.571-.468-.532l-.215.027v2.54c0,.253.114.276.294.246v.084l-.928.152v-.084c.18-.029.294-.09.294-.342V20.252l-.215.046c-.327.067-.467.324-.467.682L22,20.985l.016-.789Z" transform="translate(5.853 5.293)"/>
        <path id="Path_1416" data-name="Path 1416" d="M25.254,21.681V20.642a.3.3,0,0,0-.295-.352v-.082l.929.179v.082c-.18-.034-.295-.014-.295.238v2.342a.3.3,0,0,0,.295.352v.082l-.929-.179v-.082c.18.034.295.014.295-.238V21.875l-.988-.19v1.109a.3.3,0,0,0,.294.351v.082l-.928-.179v-.082c.18.034.294.015.294-.238V20.386a.3.3,0,0,0-.294-.351v-.084l.928.179v.084c-.18-.034-.294-.015-.294.238v1.039Z" transform="translate(6.287 5.308)"/>
        <path id="Path_1417" data-name="Path 1417" d="M26.154,20.3l1.276,2.2L27.425,20.6c0-.257-.116-.291-.3-.28v-.085l.76-.047v.084c-.182.011-.3.061-.3.318l.006,2.794-.073,0-1.465-2.46,0,2.131a.252.252,0,0,0,.3.281v.084l-.76.047v-.084a.287.287,0,0,0,.3-.318l-.005-2.43c-.1-.153-.124-.263-.292-.225v-.084Z" transform="translate(6.811 5.372)"/>
        <path id="Path_1418" data-name="Path 1418" d="M22.414,23.612l.82,2.6c.039.123.058.285.252.256v.084l-.818.123v-.084c.06-.009.279-.028.194-.342l-.161-.582-.847.127-.157.63c-.085.341.134.294.192.285v.082l-.627.095V26.8c.192-.029.211-.2.251-.332l.815-2.842Zm-.5,1.975.739-.111-.37-1.177Z" transform="translate(5.657 6.282)"/>
        <path id="Path_1419" data-name="Path 1419" d="M24.79,26.251c.1.336.271.357.308.358v.082l-.89-.037v-.084c.068,0,.311-.005.21-.363l-.53-1.85-.477,1.8c-.1.379.06.385.186.39v.082l-.7-.029v-.082a.416.416,0,0,0,.347-.322l.732-2.717Z" transform="translate(6.091 6.246)"/>
        <path id="Path_1420" data-name="Path 1420" d="M26.026,25.341l.008-1.042c0-.254-.1-.32-.262-.361v-.082l.831.205v.084c-.161-.041-.263-.024-.266.229l-.016,2.347c0,.254.1.322.262.361v.084l-.831-.206v-.082c.161.039.265.023.266-.23l.008-1.112-.884-.219-.008,1.112c0,.254.1.32.261.361v.084l-.832-.206v-.084c.161.041.263.024.265-.229l.016-2.347c0-.254-.1-.32-.261-.361v-.082l.832.205v.082c-.161-.039-.263-.023-.265.23l-.008,1.042Z" transform="translate(6.535 6.269)"/>
        <path id="Path_1421" data-name="Path 1421" d="M26.553,26.878a1.831,1.831,0,0,1-.392-1.227,2.185,2.185,0,0,1,.384-1.308,1.033,1.033,0,0,1,.674-.423.79.79,0,0,1,.676.253,1.8,1.8,0,0,1,.392,1.21,2.225,2.225,0,0,1-.384,1.324,1.006,1.006,0,0,1-.674.424.767.767,0,0,1-.676-.254m.013-1.809a3.747,3.747,0,0,0,0,1.134,1.512,1.512,0,0,0,.166.493.523.523,0,0,0,.486.258.709.709,0,0,0,.5-.382,1.838,1.838,0,0,0,.162-.533,3.781,3.781,0,0,0,0-1.134,1.532,1.532,0,0,0-.128-.451.517.517,0,0,0-.53-.354.71.71,0,0,0-.529.487,1.858,1.858,0,0,0-.124.482m.856.263c.116-.015.176-.114.21-.27h.048c-.013.148-.019.277-.018.391s.006.242.02.391l-.048.011c-.034-.152-.095-.232-.211-.216l-.4.049c-.116.015-.176.11-.21.27h-.048c.013-.152.019-.281.018-.4s-.006-.242-.02-.386l.048-.01c.034.147.095.23.211.215Z" transform="translate(6.96 6.362)"/>
        <path id="Path_1422" data-name="Path 1422" d="M23.244,30.123l-1.717.242v-.078c.176-.025.287-.081.292-.323l.046-2.24c.005-.242-.105-.266-.281-.242l0-.078,1.691-.238-.014.651-.086.013c-.037-.2-.019-.437-.294-.4l-.685.1-.022,1.1.5-.07c.254-.037.328-.2.333-.46l.073-.01-.02,1.012-.073.01c.005-.263-.062-.4-.317-.367l-.5.07L22.152,29.9c0,.154.057.185.124.171l.519-.09c.338-.061.43-.381.511-.617l.1-.014Z" transform="translate(5.727 7.227)"/>
        <path id="Path_1423" data-name="Path 1423" d="M23.758,29.766c-.006.242.108.284.287.287l0,.08-.927-.019v-.08c.18,0,.295-.033.3-.276l.053-2.24c.006-.242-.108-.284-.286-.287v-.08l.927.02v.078c-.18,0-.295.034-.3.276Z" transform="translate(6.15 7.224)"/>
        <path id="Path_1424" data-name="Path 1424" d="M25.194,27.363l.76,2.912c.035.138.052.308.246.358l0,.082-.819-.216,0-.082c.058.015.277.087.2-.26l-.147-.643-.848-.225-.171.561c-.092.3.128.346.186.361v.082l-.629-.167v-.081c.194.051.218-.109.26-.225l.879-2.479Zm-.542,1.751.741.2-.342-1.32Z" transform="translate(6.377 7.274)"/>
        <path id="Path_1425" data-name="Path 1425" d="M26.362,27.495l1.271,2.336-.025-1.943c0-.263-.118-.306-.3-.306v-.086h.742v.086c-.179,0-.291.043-.287.306l.038,2.866h-.071l-1.46-2.618.029,2.188a.271.271,0,0,0,.295.306v.086h-.742V30.63a.263.263,0,0,0,.287-.306l-.033-2.493c-.1-.163-.123-.279-.287-.249v-.086Z" transform="translate(6.87 7.315)"/>
        <path id="Path_1426" data-name="Path 1426" d="M26.973,68.91l-.163-.087C18.714,64.5,10.4,56.488,6.133,48.875,2.307,42.318.273,34.251.09,24.9c0-.211,0-.8-.011-1.716C.054,20.161,0,13.072,0,4.765v-.26l.248-.072A93.46,93.46,0,0,1,26.99.011c9.832-.176,17.586,1.8,26.707,4.421l.251.072v.261c0,8.255.052,15.062.077,18.334.009.953.014,1.574.014,1.8-.185,9.356-2.218,17.424-6.047,23.984-4.221,7.525-12.6,15.542-20.856,19.943ZM.693,5.024c0,8.193.056,15.164.078,18.158.008.917.013,1.509.013,1.714.18,9.222,2.181,17.177,5.95,23.636,4.186,7.461,12.3,15.312,20.239,19.592,8.093-4.362,16.281-12.214,20.419-19.588,3.77-6.462,5.772-14.417,5.953-23.647,0-.214,0-.832-.011-1.784-.025-3.239-.077-9.939-.078-18.078C44.3,2.457,36.662.514,27,.7A92.57,92.57,0,0,0,.693,5.024" transform="translate(0 0)"/>
      </g>
    </g>
    <g id="Group_326" data-name="Group 326" transform="translate(-78.627 130.555)">
      <g id="Group_327" data-name="Group 327" transform="translate(0 0)">
        <path id="Path_1427" data-name="Path 1427" d="M41.581,3.077c1.114-.222,1.282-.582,1.282-1.7C42.863,0,41.97,0,41.489,0a15.413,15.413,0,0,0-2.152.28,24.891,24.891,0,0,1-3.945.455A24.933,24.933,0,0,1,31.447.28,15.366,15.366,0,0,0,29.3,0c-.48,0-1.373,0-1.373,1.373,0,1.122.168,1.481,1.282,1.7,3.031.606,3.8,1.083,3.8,4.054V19.023H9.861V7.131c0-2.971.769-3.448,3.8-4.054,1.114-.222,1.282-.582,1.282-1.7C14.94,0,14.047,0,13.567,0a15.4,15.4,0,0,0-2.15.28A24.933,24.933,0,0,1,7.47.735,24.934,24.934,0,0,1,3.525.28,15.384,15.384,0,0,0,1.373,0C.893,0,0,0,0,1.373,0,2.5.169,2.855,1.282,3.077c3.031.606,3.8,1.083,3.8,4.054V34.9c0,2.971-.769,3.448-3.8,4.056C.169,39.181,0,39.541,0,40.661c0,1.373.893,1.373,1.373,1.373a15.384,15.384,0,0,0,2.152-.28A24.935,24.935,0,0,1,7.47,41.3a24.746,24.746,0,0,1,3.946.455,15.349,15.349,0,0,0,2.15.279c.48,0,1.373,0,1.373-1.373,0-1.12-.168-1.48-1.282-1.7-3.029-.608-3.8-1.085-3.8-4.056V22.786H33V34.9c0,2.971-.769,3.448-3.8,4.056-1.114.222-1.282.582-1.282,1.7,0,1.373.893,1.373,1.373,1.373a15.319,15.319,0,0,0,2.15-.279,24.746,24.746,0,0,1,3.946-.455,24.7,24.7,0,0,1,3.945.455,15.366,15.366,0,0,0,2.152.279c.48,0,1.373,0,1.373-1.373,0-1.12-.168-1.48-1.282-1.7-3.031-.608-3.8-1.085-3.8-4.056V7.131c0-2.971.769-3.448,3.8-4.054" transform="translate(235.627 0)"/>
        <rect id="Rectangle_435" data-name="Rectangle 435" width="10.636" height="4.441" transform="translate(279.072 19.176)"/>
        <path id="Path_1434" data-name="Path 1434" d="M180.957,36.575l.309,4.194.348.069a54.7,54.7,0,0,0,9.915,1.2c9.43,0,12.944-7.041,12.944-11.477,0-6.849-4.72-9.29-9.285-11.651l-1.148-.588c-4.1-2.092-7.347-3.745-7.347-7.8,0-4.792,2.719-7.433,7.659-7.433,4.048,0,4.649,1.578,5.286,3.248l.147.382c.772,1.988.98,2.523,2.018,2.523,1.317,0,1.317-1.27,1.317-2.389V.8l-.4-.06A53.074,53.074,0,0,0,194.748,0c-11.908,0-12.833,8.439-12.833,11.026,0,5.719,2.54,7.968,9.691,11.429,6.965,3.4,8.091,5.374,8.091,8.779,0,3.566-2.189,7.375-8.336,7.375-4.6,0-6.62-1.564-7.444-5.789a1.412,1.412,0,0,0-1.531-1.267c-.754,0-1.656.366-1.656,2.108,0,.443.066,1.136.131,1.807.039.4.076.787.1,1.106" transform="translate(110.605 0)"/>
        <path id="Path_1440" data-name="Path 1440" d="M119.4,65.041c-1.219,0-1.554.858-1.981,2.671-.519,2.121-1.81,4.385-10.607,4.385-11.142,0-16.971-8.766-16.971-17.422,0-17.229,13.383-18.1,16.067-18.1,6.412,0,10.275,1.272,10.6,3.49.321,2.242.453,3.169,1.822,3.169,1.349,0,1.6-.575,1.6-1.71,0-1.348-.066-2.665-.129-3.936-.039-.764-.077-1.509-.1-2.231l-.011-.4-.4-.05c-1.1-.135-2.194-.287-3.295-.438a77.956,77.956,0,0,0-10.816-.977c-13.428,0-20.453,10.035-20.453,19.945,0,14.245,8.224,22.089,23.161,22.089a55.8,55.8,0,0,0,9.682-1.262c.588-.111,1.175-.222,1.749-.326l.306-.056.97-4.248a19.479,19.479,0,0,0,.577-3.271c0-.762-.743-1.317-1.768-1.317" transform="translate(231.981 -33.486)"/>
      </g>
    </g>
  </g>
</svg>
