<svg xmlns="http://www.w3.org/2000/svg" xmlns:xlink="http://www.w3.org/1999/xlink" width="38.421" height="38.422" viewBox="0 0 38.421 38.422">

  <g id="Instagram" data-name="instagram" class="cls-2">
    <path id="Path_2331" data-name="Path 2331" class="cls-1" d="M10.672,0A10.674,10.674,0,0,0,0,10.672V27.749A10.674,10.674,0,0,0,10.672,38.421H27.748A10.674,10.674,0,0,0,38.421,27.749V10.672A10.674,10.674,0,0,0,27.748,0ZM32.017,4.269A2.135,2.135,0,1,1,29.883,6.4a2.135,2.135,0,0,1,2.135-2.135M19.21,8.538A10.673,10.673,0,1,1,8.538,19.21,10.673,10.673,0,0,1,19.21,8.538m0,4.269a6.4,6.4,0,1,0,6.4,6.4,6.4,6.4,0,0,0-6.4-6.4"/>
  </g>
</svg>
