<svg xmlns="http://www.w3.org/2000/svg" xmlns:xlink="http://www.w3.org/1999/xlink" width="38.952" height="38.953" viewBox="0 0 38.952 38.953">

  <g id="Linkedin" data-name="Linkedin" class="cls-2">
    <path id="Path_2332" data-name="Path 2332" class="cls-1" d="M34.625,0H4.328A4.327,4.327,0,0,0,0,4.328v30.3a4.327,4.327,0,0,0,4.328,4.328h30.3a4.327,4.327,0,0,0,4.328-4.328V4.328A4.327,4.327,0,0,0,34.625,0M12.984,30.3H7.524V15.148h5.46ZM10.158,12.372a2.586,2.586,0,0,1-2.783-2.6c0-1.485,1.112-2.6,2.967-2.6a2.586,2.586,0,0,1,2.783,2.6c0,1.484-1.112,2.6-2.967,2.6M32.46,30.3H27.176V22.017c0-2.29-1.409-2.818-1.937-2.818s-2.289.353-2.289,2.818V30.3H17.49V15.148h5.46v2.114c.7-1.234,2.112-2.114,4.754-2.114s4.757,2.114,4.757,6.869Z" transform="translate(0 0)"/>
  </g>
</svg>
