<svg xmlns="http://www.w3.org/2000/svg" xmlns:xlink="http://www.w3.org/1999/xlink" width="233.216" height="98.632" viewBox="0 0 233.216 98.632">
  <defs>
    <clipPath id="clip-path">
      <rect id="Rectangle_602" data-name="Rectangle 602" width="146.482" height="71.109" fill="none"/>
    </clipPath>
    <clipPath id="clip-path-2">
      <rect id="Rectangle_600" data-name="Rectangle 600" width="78.196" height="98.632" fill="none"/>
    </clipPath>
  </defs>
  <g id="Group_964" data-name="Group 964" transform="translate(17748.039 1617.411)">
    <g id="Group_591" data-name="Group 591" transform="translate(-17661.305 -1603.65)">
      <g id="Group_591-2" data-name="Group 591" transform="translate(0 0)" clip-path="url(#clip-path)">
        <path id="Path_2684" data-name="Path 2684" d="M7.038,20.071c-1.562-.312-1.958-.559-1.958-2.089V11.74H17v6.243c0,1.53-.395,1.777-1.956,2.089-.573.115-.661.3-.661.878,0,.707.462.707.709.707a8.121,8.121,0,0,0,1.109-.143,12.6,12.6,0,0,1,2.032-.234,12.822,12.822,0,0,1,2.032.233,7.9,7.9,0,0,0,1.109.145c.247,0,.709,0,.709-.707,0-.578-.088-.763-.661-.878-1.562-.312-1.958-.559-1.958-2.089V3.675c0-1.53.4-1.777,1.958-2.089.573-.115.661-.3.661-.878C22.084,0,21.622,0,21.375,0a7.9,7.9,0,0,0-1.109.145,12.618,12.618,0,0,1-2.032.234A12.6,12.6,0,0,1,16.2.145,7.9,7.9,0,0,0,15.094,0c-.247,0-.709,0-.709.709,0,.578.088.763.661.878C16.608,1.9,17,2.145,17,3.675V9.8H5.079V3.675c0-1.53.4-1.777,1.958-2.089.573-.115.661-.3.661-.878C7.7,0,7.237,0,6.99,0A7.9,7.9,0,0,0,5.881.145,12.6,12.6,0,0,1,3.849.379,12.6,12.6,0,0,1,1.817.145,7.9,7.9,0,0,0,.709,0C.462,0,0,0,0,.709c0,.578.088.763.661.878,1.562.312,1.956.559,1.956,2.089V17.983c0,1.53-.395,1.777-1.956,2.089-.573.115-.661.3-.661.878,0,.707.462.707.709.707a8.121,8.121,0,0,0,1.109-.143,12.6,12.6,0,0,1,2.032-.234,12.8,12.8,0,0,1,2.032.233,7.9,7.9,0,0,0,1.109.145c.247,0,.709,0,.709-.707,0-.578-.088-.763-.661-.878" transform="translate(0 0)" fill="#fff"/>
        <path id="Path_2685" data-name="Path 2685" d="M13.7,21.655a6.018,6.018,0,0,0,1.544-.21,4.479,4.479,0,0,1,1.132-.167,15.934,15.934,0,0,1,1.77.233,9.213,9.213,0,0,0,1.022.145c.412,0,.679-.312.679-.795,0-.421-.19-.626-.73-.786-.613-.169-1.132-.488-1.132-.7A43.114,43.114,0,0,1,19.922,14.3c.21-.5.382-.911.486-1.167h6.326c.418,1.121,1.054,2.757,1.572,4.084.405,1.04.79,2.027.853,2.217-.023.333-.449.569-.871.633-.712.113-.786.372-.786.938,0,.437.233.649.709.649A5.287,5.287,0,0,0,29,21.532a10.572,10.572,0,0,1,1.858-.254,7.2,7.2,0,0,1,1.2.167,8.987,8.987,0,0,0,1.625.21.716.716,0,0,0,.679-.795c0-.6-.36-.668-.814-.761L33.4,20.07a2.309,2.309,0,0,1-1.629-1.144C30.016,15.146,24.95,1.763,24.577.5a.609.609,0,0,0-.612-.5c-.3,0-.569.266-.7.7-.462,1.572-2.4,6.172-4.85,12-.624,1.48-1.287,3.054-1.976,4.7-.791,1.9-1.53,2.647-2.642,2.674a.766.766,0,0,0-.807.851.723.723,0,0,0,.707.737m7.454-10.284L23.7,4.989l2.363,6.382Z" transform="translate(9.906 0.001)" fill="#fff"/>
        <path id="Path_2686" data-name="Path 2686" d="M26.033,21.657a8.507,8.507,0,0,0,1.179-.162,11.731,11.731,0,0,1,1.671-.217,10.2,10.2,0,0,1,1.556.206,8.67,8.67,0,0,0,1.264.173.79.79,0,0,0,.855-.795c0-.571-.194-.694-.816-.791-2.006-.315-2.152-1.01-2.152-2.117,0-.474.035-.959.081-1.572l.795-10.774L38.132,20.3c.171.315.3.543.666.543.419,0,.557-.289.858-.924l6.837-14.31,1.371,12.26a7.082,7.082,0,0,1,.056.811c0,.7-.076,1.137-1.574,1.391-.617.108-.9.157-.9.7,0,.663.115.883.795.883a7.376,7.376,0,0,0,1.376-.174,8.819,8.819,0,0,1,1.706-.2,8.118,8.118,0,0,1,1.313.173,9.9,9.9,0,0,0,1.683.206c.529,0,.765-.245.765-.795,0-.6-.257-.7-.841-.791-1.179-.2-1.667-.828-1.865-2.381L48.258,1.2C48.173.583,48.094,0,47.436,0c-.4,0-.582.412-.775.851-.037.079-.074.164-.113.247L39.021,16.835,30.434.653C30.226.262,30.021,0,29.7,0c-.208,0-.5,0-.608.34L27.652,17.032c-.219,2.589-.449,2.66-1.748,3.046-.46.141-.578.286-.578.7,0,.264,0,.883.707.883" transform="translate(19.311 0.001)" fill="#fff"/>
        <path id="Path_2687" data-name="Path 2687" d="M42.115,20.07c-.573.115-.659.3-.659.878,0,.709.46.709.707.709a12.238,12.238,0,0,0,1.482-.169,15.549,15.549,0,0,1,1.949-.21,14.717,14.717,0,0,1,1.884.183,15.744,15.744,0,0,0,2.043.2c.749,0,.853-.342.853-.709,0-.59-.129-.788-.58-.879-3.076-.516-3.259-.7-3.259-3.308v-6.6a2.293,2.293,0,0,0,2.171,1.054c6.126,0,6.437-4.949,6.437-5.941C55.143,4.085,54.729.2,49.4.2c-.559,0-1.137.044-1.7.086S46.564.378,46,.378A15.034,15.034,0,0,1,42.942.1a4.345,4.345,0,0,0-.779-.1c-.247,0-.707,0-.707.707,0,.578.086.763.659.878,1.775.354,1.958.474,1.958,1.274V17.982c0,1.53-.4,1.777-1.958,2.089m4.42-10.325V2.453c0-.391,0-.485.95-.485h1.163c3.477,0,4.207,2.036,4.207,3.742,0,2.89-2.612,3.916-4.847,3.916-.182,0-.365-.007-.552-.014s-.4-.014-.612-.014a.329.329,0,0,0-.31.148" transform="translate(31.61 0.001)" fill="#fff"/>
        <path id="Path_2688" data-name="Path 2688" d="M50.712,1.588c1.19.157,1.592.331,1.592.691V18.564c0,1.133,0,1.251-2.515,1.5-.6.06-.858.145-.858.707,0,.6.081.883.823.883a14.116,14.116,0,0,0,1.674-.162,19.352,19.352,0,0,1,2.457-.217,20.065,20.065,0,0,1,2.126.153,31.66,31.66,0,0,0,3.573.226A10.684,10.684,0,0,0,70.323,10.8C70.323,4.364,66.142.2,59.671.2,59,.2,58,.245,56.933.286c-1.169.046-2.376.093-3.254.093A9.165,9.165,0,0,1,51.47.155,5.424,5.424,0,0,0,50.218,0c-.372,0-.735.062-.735.795,0,.645.308.682,1.228.793m4.054,15.231V2.309c0-.515,0-.515.368-.515h3.955c5.908,0,8.6,4.7,8.6,9.064,0,5.4-3.3,9.035-8.22,9.035-4.084,0-4.7-.693-4.7-3.074" transform="translate(37.309 0)" fill="#fff"/>
        <path id="Path_2689" data-name="Path 2689" d="M62,1.591c1.433.12,1.542.146,1.542.922v16.4c0,.79-.37,1.07-1.526,1.156-1.174.116-1.382.2-1.382.938a.591.591,0,0,0,.65.65c.307,0,.969-.072,1.734-.157.941-.1,2.009-.222,2.6-.222.531,0,1.845.07,3.368.152,1.866.1,3.981.212,5.266.227l.2,0,.037-.2c.106-.606.356-1.537.557-2.288a9.833,9.833,0,0,0,.347-1.477.8.8,0,0,0-.825-.795c-.522,0-.709.294-1.042,1.239-.379,1.086-.552,1.583-3.2,1.583H69.6c-3.6,0-3.6-.772-3.6-2.462V11.739h4.789c.913,0,1.079.062,1.124.821a.906.906,0,0,0,.911.954.652.652,0,0,0,.679-.737,7.836,7.836,0,0,0-.078-.86,10.11,10.11,0,0,1-.1-1.147,10.144,10.144,0,0,1,.1-1.147,7.809,7.809,0,0,0,.078-.858.652.652,0,0,0-.679-.737.907.907,0,0,0-.911.955c-.046.758-.211.818-1.124.818H66V1.97h4.468c.523,0,.74,0,.867.784.166,1.029.333,1.4.936,1.4.756,0,.853-.534.853-1a4.241,4.241,0,0,0-.076-.7,7.979,7.979,0,0,1-.127-1.428c0-.717-.372-.825-.592-.825s-.672.023-1.239.053c-1.019.051-2.413.122-3.733.122a41.151,41.151,0,0,1-4.838-.3c-.4-.044-.659-.074-.8-.074C61.15,0,60.9.112,60.9.766s.233.765,1.1.825" transform="translate(46.233 0.001)" fill="#fff"/>
        <path id="Path_2690" data-name="Path 2690" d="M90.971.8c0-.527-.21-.795-.62-.795a8.386,8.386,0,0,0-1.6.2,7.48,7.48,0,0,1-1.424.18,8.786,8.786,0,0,1-1.644-.2A7.715,7.715,0,0,0,84.244,0c-.679,0-.679.642-.679.853,0,.583.277.67.712.735,1.558.159,2.254.606,2.254,2.841V16.776L72.656.3A.7.7,0,0,0,72.088,0c-.238,0-.5.291-.5.709V18.07c0,1.313-.137,1.759-1.78,2-.6.113-.721.375-.721.791,0,.527.208.795.62.795a8.368,8.368,0,0,0,1.6-.2,7.5,7.5,0,0,1,1.424-.182,8.658,8.658,0,0,1,1.646.2,7.829,7.829,0,0,0,1.436.18c.679,0,.679-.643.679-.853,0-.583-.277-.67-.712-.735-1.558-.159-2.254-.606-2.254-2.843V4.941L87.4,21.507a.7.7,0,0,0,.568.294c.238,0,.5-.289.5-.707V3.588c0-1.313.137-1.759,1.78-2,.6-.115.721-.377.721-.791" transform="translate(52.675 0.001)" fill="#fff"/>
        <rect id="Rectangle_601" data-name="Rectangle 601" width="3.814" height="2.288" transform="translate(142.67 12.972)" fill="#fff"/>
        <path id="Path_2691" data-name="Path 2691" d="M16.659,33.917c-2.372,0-3.412-.805-3.833-2.982a.727.727,0,0,0-.79-.652c-.39,0-.853.187-.853,1.084,0,.229.033.585.067.929.021.206.039.407.051.573l.157,2.161.18.037a28.289,28.289,0,0,0,5.108.615c4.861,0,6.669-3.627,6.669-5.913,0-3.528-2.43-4.787-4.782-6l-.59-.3c-2.117-1.079-3.788-1.93-3.788-4.018,0-2.469,1.4-3.83,3.946-3.83,2.083,0,2.4.813,2.723,1.673l.076.2c.4,1.024.5,1.3,1.042,1.3.675,0,.675-.654.675-1.232V14.438l-.2-.032a27.493,27.493,0,0,0-4.108-.381c-6.133,0-6.609,4.348-6.609,5.68,0,2.947,1.306,4.1,4.991,5.888,3.59,1.752,4.168,2.769,4.168,4.523,0,1.837-1.128,3.8-4.3,3.8" transform="translate(8.527 10.695)" fill="#fff"/>
        <path id="Path_2692" data-name="Path 2692" d="M35.938,16.492a2.3,2.3,0,0,1,1.634-.878.676.676,0,0,0,.7-.735c0-.629-.162-.853-.62-.853a5.789,5.789,0,0,0-.844.137,10.271,10.271,0,0,1-1.629.241,7.225,7.225,0,0,1-1.525-.219,5.2,5.2,0,0,0-1.035-.16c-.55,0-.62.456-.62.853a.642.642,0,0,0,.5.73l.3.079a4.35,4.35,0,0,1,1.086.354,2.786,2.786,0,0,1-.4.751l-4.949,8.129-4.85-7.528a5.636,5.636,0,0,1-.805-1.38c0-.1.085-.226,1.07-.4.49-.065.7-.152.7-.7s-.03-.883-.65-.883a6.672,6.672,0,0,0-1.105.166,8.409,8.409,0,0,1-1.482.213,5.664,5.664,0,0,1-1.435-.21,4.457,4.457,0,0,0-1.066-.169c-.516,0-.767.231-.767.709,0,.555.115.719.6.867A2.556,2.556,0,0,1,20.5,16.9l6.534,10.09v5.018c0,1.53-.4,1.775-1.958,2.089-.573.115-.659.3-.659.876,0,.709.46.709.707.709a7.9,7.9,0,0,0,1.109-.145,12.821,12.821,0,0,1,2.032-.234,12.8,12.8,0,0,1,2.032.234,7.9,7.9,0,0,0,1.109.145c.249,0,.709,0,.709-.709,0-.576-.086-.761-.661-.876-1.56-.314-1.956-.559-1.956-2.089V26.987Z" transform="translate(13.845 10.695)" fill="#fff"/>
        <path id="Path_2693" data-name="Path 2693" d="M30.365,35.683a14.083,14.083,0,0,0,1.674-.162,19.352,19.352,0,0,1,2.455-.217,20.128,20.128,0,0,1,2.129.153,31.605,31.605,0,0,0,3.573.226A10.683,10.683,0,0,0,50.935,24.827c0-6.437-4.181-10.6-10.652-10.6-.67,0-1.674.041-2.739.081-1.167.046-2.374.093-3.252.093a9.165,9.165,0,0,1-2.21-.224,5.424,5.424,0,0,0-1.251-.155c-.372,0-.735.062-.735.8,0,.643.308.68,1.228.791,1.19.157,1.592.331,1.592.691V32.59c0,1.133,0,1.251-2.515,1.5-.6.06-.858.145-.858.707,0,.6.081.883.823.883m5.013-4.838V16.335c0-.515,0-.515.368-.515H39.7c5.908,0,8.6,4.7,8.6,9.064,0,5.4-3.3,9.035-8.218,9.035-4.085,0-4.7-.693-4.7-3.074" transform="translate(22.525 10.695)" fill="#fff"/>
        <path id="Path_2694" data-name="Path 2694" d="M59.9,35.533a.7.7,0,0,0,.568.294c.238,0,.5-.291.5-.709V17.614c0-1.315.137-1.759,1.78-2,.6-.113.721-.375.721-.79,0-.529-.21-.795-.62-.795a8.385,8.385,0,0,0-1.6.2,7.644,7.644,0,0,1-1.424.18,8.806,8.806,0,0,1-1.646-.2,7.679,7.679,0,0,0-1.436-.18c-.679,0-.679.642-.679.853,0,.582.277.668.712.735,1.558.159,2.254.606,2.254,2.841V30.8L45.155,14.321a.7.7,0,0,0-.568-.294c-.238,0-.5.291-.5.707V32.1c0,1.313-.137,1.757-1.78,2-.6.113-.721.375-.721.79,0,.657.337.795.62.795a8.513,8.513,0,0,0,1.6-.2,7.5,7.5,0,0,1,1.424-.182,8.659,8.659,0,0,1,1.646.2,7.823,7.823,0,0,0,1.436.178c.679,0,.679-.642.679-.853,0-.582-.277-.668-.712-.735-1.56-.159-2.254-.606-2.254-2.841V18.965Z" transform="translate(31.706 10.695)" fill="#fff"/>
        <path id="Path_2695" data-name="Path 2695" d="M55.553,34.094c-1.174.118-1.382.2-1.382.939a.591.591,0,0,0,.65.649c.308,0,.969-.072,1.736-.157.941-.1,2.007-.22,2.6-.22.53,0,1.845.071,3.37.152,1.865.1,3.98.21,5.265.226l.206,0,.035-.2c.106-.6.356-1.537.559-2.286a10.013,10.013,0,0,0,.345-1.477.8.8,0,0,0-.823-.795c-.522,0-.709.294-1.043,1.239-.379,1.086-.552,1.581-3.2,1.581h-.726c-3.6,0-3.6-.77-3.6-2.462V25.766H64.33c.913,0,1.079.06,1.124.82a.906.906,0,0,0,.911.954.652.652,0,0,0,.679-.737,7.84,7.84,0,0,0-.078-.858,10.532,10.532,0,0,1-.1-1.147,10.532,10.532,0,0,1,.1-1.147,7.84,7.84,0,0,0,.078-.858.652.652,0,0,0-.679-.737.906.906,0,0,0-.911.954c-.046.758-.211.82-1.124.82H59.541V15.995h4.47c.522,0,.739,0,.865.784.167,1.031.333,1.4.938,1.4.756,0,.853-.532.853-1a4.228,4.228,0,0,0-.078-.694,7.986,7.986,0,0,1-.127-1.429c0-.716-.37-.823-.59-.823s-.673.023-1.241.051c-1.017.051-2.413.123-3.733.123a41.578,41.578,0,0,1-4.838-.3c-.4-.046-.659-.076-.8-.076-.569,0-.823.111-.823.767s.234.763,1.1.823c1.433.12,1.542.148,1.542.922v16.4c0,.79-.368,1.07-1.526,1.154" transform="translate(41.305 10.695)" fill="#fff"/>
        <path id="Path_2696" data-name="Path 2696" d="M72.27,24.922l-4.85-7.528a5.71,5.71,0,0,1-.805-1.38c0-.1.085-.226,1.07-.4.49-.065.7-.152.7-.7s-.03-.883-.65-.883a6.563,6.563,0,0,0-1.107.167,8.522,8.522,0,0,1-1.48.212,5.586,5.586,0,0,1-1.435-.21,4.471,4.471,0,0,0-1.066-.169c-.516,0-.767.233-.767.709,0,.557.115.719.6.867a2.553,2.553,0,0,1,1.741,1.3l6.534,10.088v5.018c0,1.53-.4,1.777-1.956,2.089-.575.115-.661.3-.661.878,0,.707.46.707.709.707a7.882,7.882,0,0,0,1.107-.145,12.822,12.822,0,0,1,2.032-.233,12.8,12.8,0,0,1,2.032.233,7.9,7.9,0,0,0,1.109.145c.247,0,.709,0,.709-.707,0-.578-.086-.763-.661-.878-1.56-.312-1.956-.559-1.956-2.089V26.987l6.447-10.5a2.305,2.305,0,0,1,1.634-.878.673.673,0,0,0,.7-.735c0-.629-.162-.853-.619-.853a5.789,5.789,0,0,0-.844.137,10.272,10.272,0,0,1-1.629.241,7.376,7.376,0,0,1-1.526-.217,5.185,5.185,0,0,0-1.033-.162c-.55,0-.62.456-.62.853a.641.641,0,0,0,.5.73l.3.079a4.378,4.378,0,0,1,1.086.354,2.754,2.754,0,0,1-.4.753Z" transform="translate(47.186 10.695)" fill="#fff"/>
        <path id="Path_2697" data-name="Path 2697" d="M23.406,44.307c-.627,0-.8.442-1.02,1.376-.268,1.093-.932,2.258-5.464,2.258-5.742,0-8.744-4.515-8.744-8.976,0-8.874,6.895-9.324,8.277-9.324,3.3,0,5.293.656,5.462,1.8s.233,1.634.936,1.634.827-.3.827-.883c0-.694-.033-1.371-.069-2.029-.019-.393-.039-.777-.048-1.149l-.009-.208-.206-.025c-.562-.069-1.13-.148-1.7-.226a40.007,40.007,0,0,0-5.573-.5A10.071,10.071,0,0,0,5.54,38.326c0,7.339,4.239,11.38,11.934,11.38a28.654,28.654,0,0,0,4.977-.649l.913-.169.155-.028.5-2.189a10,10,0,0,0,.3-1.685c0-.393-.384-.679-.911-.679" transform="translate(4.224 21.389)" fill="#fff"/>
        <path id="Path_2698" data-name="Path 2698" d="M35.008,31.554a10.151,10.151,0,0,0-8.06-3.5,10.144,10.144,0,0,0-8.058,3.5,11.737,11.737,0,0,0,0,14.65,10.144,10.144,0,0,0,8.058,3.5,10.151,10.151,0,0,0,8.06-3.5,11.743,11.743,0,0,0,0-14.65m.1,7.325c0,5.295-3.2,8.714-8.162,8.714s-8.162-3.419-8.162-8.714,3.2-8.714,8.162-8.714,8.162,3.419,8.162,8.714" transform="translate(12.447 21.389)" fill="#fff"/>
        <path id="Path_2699" data-name="Path 2699" d="M42.727,45.006c-.694,0-.837.27-1.015.924-.536,1.63-.719,1.84-3.726,1.84-3.64,0-3.914-.072-3.914-3.046v-13c0-1.53.395-1.777,1.956-2.089.573-.115.659-.3.659-.878,0-.709-.46-.709-.707-.709a8.175,8.175,0,0,0-1.109.145,12.618,12.618,0,0,1-2.032.234,12.618,12.618,0,0,1-2.032-.234,8.175,8.175,0,0,0-1.109-.145c-.247,0-.707,0-.707.709,0,.578.086.763.659.878,1.562.312,1.958.559,1.958,2.089V46.732c0,.707,0,1.216-2.305,1.387-.807.058-1.068.134-1.068.823,0,.508.227.767.679.767a3.489,3.489,0,0,0,.476-.06,26.351,26.351,0,0,1,4.671-.319c2.393,0,4.815.157,7.157.308l1.306.083.035-.217a21.106,21.106,0,0,1,.594-2.471,5.9,5.9,0,0,0,.282-1.2.74.74,0,0,0-.709-.825" transform="translate(21.53 21.389)" fill="#fff"/>
        <path id="Path_2700" data-name="Path 2700" d="M51.8,45.006c-.694,0-.837.27-1.015.924-.536,1.63-.719,1.84-3.726,1.84-3.64,0-3.914-.072-3.914-3.046v-13c0-1.53.395-1.777,1.956-2.089.573-.115.659-.3.659-.878,0-.709-.46-.709-.707-.709a8.175,8.175,0,0,0-1.109.145,12.618,12.618,0,0,1-2.032.234,12.6,12.6,0,0,1-2.032-.234,8.175,8.175,0,0,0-1.109-.145c-.247,0-.707,0-.707.709,0,.578.086.763.659.878,1.562.312,1.958.559,1.958,2.089V46.732c0,.707,0,1.216-2.305,1.387-.807.058-1.068.134-1.068.823,0,.508.227.767.679.767a3.489,3.489,0,0,0,.476-.06,26.351,26.351,0,0,1,4.671-.319c2.393,0,4.815.157,7.157.308l1.306.083.035-.217a21.108,21.108,0,0,1,.594-2.471,5.86,5.86,0,0,0,.28-1.2.739.739,0,0,0-.707-.825" transform="translate(28.449 21.389)" fill="#fff"/>
        <path id="Path_2701" data-name="Path 2701" d="M60.273,44.948c-.522,0-.709.294-1.043,1.239-.379,1.086-.552,1.583-3.2,1.583H55.3c-3.6,0-3.6-.772-3.6-2.462V39.791h4.789c.913,0,1.079.06,1.124.821a.908.908,0,0,0,.911.952.651.651,0,0,0,.679-.735,8.235,8.235,0,0,0-.076-.86,10.123,10.123,0,0,1-.1-1.147,10.123,10.123,0,0,1,.1-1.147,8.247,8.247,0,0,0,.076-.858.652.652,0,0,0-.679-.737.908.908,0,0,0-.911.954c-.046.76-.211.82-1.124.82H51.7V30.02h4.47c.522,0,.738,0,.865.786.167,1.029.333,1.4.938,1.4.754,0,.853-.534.853-1a4.251,4.251,0,0,0-.078-.694,7.978,7.978,0,0,1-.127-1.428c0-.717-.37-.825-.59-.825s-.673.023-1.239.051c-1.019.053-2.415.123-3.735.123a41.547,41.547,0,0,1-4.838-.3c-.4-.044-.659-.076-.8-.076-.569,0-.823.111-.823.767s.234.763,1.105.825c1.431.118,1.54.146,1.54.92v16.4c0,.79-.368,1.07-1.526,1.154-1.172.118-1.382.2-1.382.939a.592.592,0,0,0,.65.649c.308,0,.969-.072,1.736-.157.941-.1,2.007-.22,2.6-.22.531,0,1.845.071,3.37.152,1.865.1,3.98.211,5.265.226l.206,0,.035-.2c.106-.6.356-1.537.557-2.286a9.882,9.882,0,0,0,.347-1.477.8.8,0,0,0-.823-.795" transform="translate(35.328 21.389)" fill="#fff"/>
        <path id="Path_2702" data-name="Path 2702" d="M74.52,41.225a3.815,3.815,0,0,0-1.031.174,4.618,4.618,0,0,1-1.3.2,8.26,8.26,0,0,1-1.581-.206,6.964,6.964,0,0,0-1.269-.173c-.575,0-.62.382-.62.883,0,.679.441.747,1.965.879.166.016.39.037.39,1.214v1.163c0,1.588-.2,2.492-4.41,2.577-5.74,0-8.744-4.515-8.744-8.976,0-8.874,6.9-9.324,8.278-9.324,4.787,0,5.076,1.1,5.2,1.59l.055.224c.229.922.344,1.385.936,1.385.308,0,.883,0,.883-.709a9.319,9.319,0,0,0-.137-1.181,13.293,13.293,0,0,1-.211-2.157l.005-.233-.231-.016c-.714-.048-1.415-.12-2.157-.194a44.536,44.536,0,0,0-4.722-.3A10.07,10.07,0,0,0,55.288,38.326c0,7.339,4.237,11.38,11.932,11.38a18.623,18.623,0,0,0,1.9-.15,25.391,25.391,0,0,1,2.757-.2,5.441,5.441,0,0,1,.869.1c.148.026.294.051.437.071l.3.041-.021-.3c-.088-1.213-.088-2.436-.088-3.617V44.144c0-1.089.1-1.11.333-1.16.985-.213,1.325-.315,1.325-.876,0-.493,0-.883-.5-.883" transform="translate(42.156 21.389)" fill="#fff"/>
        <path id="Path_2703" data-name="Path 2703" d="M80.624,44.948c-.522,0-.708.294-1.043,1.239-.379,1.086-.552,1.583-3.2,1.583h-.726c-3.6,0-3.6-.772-3.6-2.462V39.791h4.789c.913,0,1.079.06,1.124.821a.908.908,0,0,0,.911.952.651.651,0,0,0,.679-.735,8.233,8.233,0,0,0-.076-.86,10.125,10.125,0,0,1-.1-1.147,10.126,10.126,0,0,1,.1-1.147,8.245,8.245,0,0,0,.076-.858.652.652,0,0,0-.679-.737.908.908,0,0,0-.911.954c-.046.76-.212.82-1.124.82H72.054V30.02h4.47c.522,0,.738,0,.865.786.167,1.029.333,1.4.938,1.4.754,0,.853-.534.853-1a4.254,4.254,0,0,0-.078-.694,7.976,7.976,0,0,1-.127-1.428c0-.717-.37-.825-.59-.825s-.673.023-1.239.051c-1.019.053-2.415.123-3.735.123a41.547,41.547,0,0,1-4.838-.3c-.4-.044-.659-.076-.8-.076-.569,0-.823.111-.823.767s.234.763,1.105.825c1.431.118,1.54.146,1.54.92v16.4c0,.79-.368,1.07-1.526,1.154-1.172.118-1.382.2-1.382.939a.592.592,0,0,0,.65.649c.308,0,.969-.072,1.736-.157.941-.1,2.007-.22,2.6-.22.53,0,1.845.071,3.37.152,1.865.1,3.98.211,5.265.226l.206,0,.035-.2c.106-.6.356-1.537.557-2.286a9.88,9.88,0,0,0,.347-1.477.8.8,0,0,0-.823-.795" transform="translate(50.846 21.389)" fill="#fff"/>
      </g>
    </g>
    <g id="Group_592" data-name="Group 592" transform="translate(-17748.039 -1617.411)">
      <g id="Group_589" data-name="Group 589" transform="translate(0 0)" clip-path="url(#clip-path-2)">
        <path id="Path_2605" data-name="Path 2605" d="M75.395,33.592c-.035-4.442-.106-13.686-.106-24.894V8.336l-.347-.1c-12.383-3.559-22.921-6.263-36.27-6-12.385.24-22.567,1.922-36.315,6.006l-.344.1V8.7c0,11.28.076,20.9.108,25.015.01,1.24.015,2.041.015,2.328.249,12.7,3.012,23.653,8.207,32.556,5.8,10.34,17.084,21.226,28.082,27.092l.225.12.226-.12C50.085,89.71,61.469,78.824,67.2,68.605c5.2-8.913,7.96-19.869,8.209-32.574,0-.3-.007-1.143-.017-2.439" transform="translate(0.386 0.424)" fill="#fff"/>
        <path id="Path_2606" data-name="Path 2606" d="M75.395,33.592c-.035-4.442-.106-13.686-.106-24.894V8.336l-.347-.1c-12.383-3.559-22.921-6.263-36.27-6-12.385.24-22.567,1.922-36.315,6.006l-.344.1V8.7c0,11.28.076,20.9.108,25.015.01,1.24.015,2.041.015,2.328.249,12.7,3.012,23.653,8.207,32.556,5.8,10.34,17.084,21.226,28.082,27.092l.225.12.226-.12C50.085,89.71,61.469,78.824,67.2,68.605c5.2-8.913,7.96-19.869,8.209-32.574C75.411,35.73,75.4,34.888,75.395,33.592Z" transform="translate(0.386 0.424)" fill="none" stroke="#fff" stroke-miterlimit="10" stroke-width="2.416"/>
        <path id="Path_2607" data-name="Path 2607" d="M40.041,50.5l-.173.173c-.173.139-.317.259-.455.374a6.236,6.236,0,0,1-3.134,1.669,3.18,3.18,0,0,1-.479.038,4.529,4.529,0,0,1-3.63-2.2L15.409,68.391A76.066,76.066,0,0,0,36.184,85.528,77.5,77.5,0,0,0,57.17,68.378l-16.8-17.866Z" transform="translate(2.953 9.677)" fill="#d6d8d9"/>
        <path id="Path_2608" data-name="Path 2608" d="M49.388,51.955l-12.457-.461L53.358,68.965a58.326,58.326,0,0,0,6.419-9.073c.439-.752.852-1.524,1.256-2.3L49.388,45.515Z" transform="translate(7.077 8.722)" fill="#cf001c"/>
        <path id="Path_2609" data-name="Path 2609" d="M21.229,52.1V44.744L8.8,57.877c.38.729.769,1.451,1.18,2.156a59.9,59.9,0,0,0,6.39,9.092L32.8,51.633Z" transform="translate(1.686 8.574)" fill="#cf001c"/>
        <path id="Path_2610" data-name="Path 2610" d="M34.236,33.134c.931-.441,2.15-.427,4.447.336,2.773.926,4.261,1,5.474.268l.365-.216v.36c.082.154.163.293.241.427h5.143v.828L68.269,17.2c0-1.146-.006-2.338-.008-3.555q-.007-2.56-.008-5.3c-.937-.269-1.86-.53-2.778-.788q-2.438-.681-4.813-1.306Z" transform="translate(6.561 1.198)" fill="#cf001c"/>
        <path id="Path_2611" data-name="Path 2611" d="M2.9,8.35c0,3.042,0,5.959.014,8.674l19.44,18.995v-1.7H26.6c.077-.135.158-.274.241-.427v-.36l.365.216c1.218.734,2.7.657,5.479-.269,2.289-.761,3.508-.777,4.438-.342L25.189,20.989,10.671,6.224C8.191,6.844,5.62,7.549,2.9,8.35" transform="translate(0.556 1.193)" fill="#cf001c"/>
        <path id="Path_2612" data-name="Path 2612" d="M22.356,34.843,2.917,15.856c.025,6.9.068,12.435.091,15.3.01,1.244.015,2.047.015,2.326.222,11.31,2.468,21.209,6.668,29.481L22.356,49.58Z" transform="translate(0.559 3.038)" fill="#fece00"/>
        <path id="Path_2613" data-name="Path 2613" d="M65.752,16,47.385,33.942V50.48L59.26,62.791c4.156-8.25,6.378-18.1,6.6-29.35,0-.292-.007-1.131-.017-2.424-.025-3.049-.066-8.36-.089-15.017" transform="translate(9.08 3.066)" fill="#fece00"/>
        <path id="Path_2614" data-name="Path 2614" d="M64.793,6.721a97.952,97.952,0,0,0-27.51-3.632,118.632,118.632,0,0,0-27.4,3.6L37.348,34.641Z" transform="translate(1.893 0.589)" fill="#d6d8d9"/>
        <path id="Path_2615" data-name="Path 2615" d="M75.477,33.643c-.033-4.442-.106-13.686-.106-24.894V8.387l-.347-.1c-12.383-3.558-22.921-6.262-36.268-6-12.386.238-22.568,1.922-36.316,6l-.343.1v.359c0,11.28.075,20.9.107,25.015.01,1.242.017,2.042.017,2.328.248,12.7,3.011,23.653,8.206,32.558,5.8,10.339,17.086,21.225,28.082,27.09l.225.12.226-.12c11.207-5.977,22.592-16.865,28.325-27.083,5.2-8.913,7.961-19.869,8.209-32.573,0-.3-.006-1.144-.017-2.44M71.632,8.323c.918.256,1.841.517,2.778.786h0q0,2.74.006,5.3c0,1.218.006,2.409.01,3.555L56.063,35.9v-.827H50.92c-.077-.135-.158-.274-.241-.428v-.36l-.365.216c-1.213.729-2.7.658-5.474-.268-2.3-.763-3.516-.777-4.447-.336l0,0L66.819,7.015q2.377.62,4.813,1.308M45.958,35.074h-6.39c1.127-1.051,2.044-1.411,5.119-.385.46.154.872.279,1.27.385M38.774,3.243A97.938,97.938,0,0,1,66.283,6.875L38.84,34.795,11.37,6.848a118.633,118.633,0,0,1,27.4-3.6M3.056,9.107C5.773,8.3,8.345,7.6,10.828,6.981L25.342,21.748,37.28,33.892c-.929-.435-2.147-.419-4.438.342-2.778.926-4.26,1-5.479.268L27,34.286v.36c-.082.154-.163.293-.24.428H22.512v1.7L3.072,17.783c-.01-2.718-.015-5.635-.015-8.676M38.115,35.074h-6.4c.4-.106.815-.231,1.271-.385,3.079-1.026,3.991-.666,5.124.385M3.18,36.083c0-.279-.007-1.083-.017-2.327-.021-2.86-.066-8.394-.089-15.3L22.512,37.449V52.184L9.847,65.563C5.647,57.291,3.4,47.392,3.18,36.083m8.079,32.089c-.411-.7-.8-1.426-1.181-2.156L22.512,52.884v7.358l11.575-.47L17.649,77.265a59.9,59.9,0,0,1-6.39-9.092m27.474,26.6A76.145,76.145,0,0,1,17.959,77.635L34.72,59.8A4.53,4.53,0,0,0,38.35,62a3.06,3.06,0,0,0,.48-.039,6.228,6.228,0,0,0,3.133-1.669c.138-.114.282-.235.455-.374l.173-.173.332.013,16.8,17.865A77.524,77.524,0,0,1,38.734,94.772M66.452,68.18a58.485,58.485,0,0,1-6.419,9.073L43.606,59.781l12.457.461V53.8L67.708,65.875c-.4.782-.817,1.553-1.256,2.3m1.486-2.756L56.063,53.111V36.574L74.43,18.633c.024,6.656.064,11.969.088,15.017.011,1.293.017,2.132.017,2.424-.219,11.25-2.44,21.1-6.6,29.35" transform="translate(0.402 0.434)" fill="#1a1818"/>
        <path id="Path_2616" data-name="Path 2616" d="M32.619,8.051c-.291-.788-.776-.714-1.507-.605-.143.021-.3.045-.471.066l.029.238c.174-.021.332-.045.478-.067.715-.107,1.015-.151,1.239.433a2.482,2.482,0,0,0,.163.945l.224-.085a2.243,2.243,0,0,1-.148-.883Z" transform="translate(5.872 1.414)" fill="#1a1818"/>
        <path id="Path_2617" data-name="Path 2617" d="M34.43,7.939l-.222.092a1.058,1.058,0,0,1-.4,1.219l.153.185a1.29,1.29,0,0,0,.466-1.5" transform="translate(6.479 1.521)" fill="#1a1818"/>
        <path id="Path_2618" data-name="Path 2618" d="M40.721,29.385c-3.7-1.235-4.442-.493-5.924.988-1.481-1.481-2.221-2.222-5.924-.988-2.961.988-4.442.988-5.676.247V50.857c1.233.741,3.7.741,6.417-.987,2.468-1.481,4.2-.741,5.182.493.987-1.235,2.716-1.975,5.182-.493C42.7,51.6,45.163,51.6,46.4,50.857V29.632c-1.233.741-2.715.741-5.676-.247" transform="translate(4.445 5.512)" fill="#fff"/>
        <path id="Path_2619" data-name="Path 2619" d="M32.932,47.1c.988-1.235,2.715-1.975,5.182-.493,2.716,1.728,5.184,1.728,6.417.987.741,1.481,1.914,1.975,3.7,2.221-3.7,1.419-6.665,1.481-9.133.247-1.475-.738-2.95-1.23-4.427.475a.009.009,0,0,1-.015,0c0-1.22-.257-1.961-1.728-3.432" transform="translate(6.311 8.774)" fill="#fece00"/>
        <path id="Path_2620" data-name="Path 2620" d="M35.393,47.1c-.988-1.235-2.715-1.975-5.184-.493-2.715,1.728-5.182,1.728-6.417.987-.74,1.481-1.913,1.975-3.7,2.221,3.7,1.419,6.664,1.481,9.131.247,1.475-.738,2.95-1.23,4.427.475a.009.009,0,0,0,.015,0c0-1.22.257-1.961,1.728-3.432" transform="translate(3.85 8.774)" fill="#fece00"/>
        <path id="Path_2621" data-name="Path 2621" d="M20.091,32.208V52.939a4.369,4.369,0,0,0,3.7-2.221V29.493c-1.173,2.128-1.821,2.746-3.7,2.715" transform="translate(3.85 5.652)" fill="#fece00"/>
        <path id="Path_2622" data-name="Path 2622" d="M46.369,32.208V52.939a4.369,4.369,0,0,1-3.7-2.221V29.493c1.173,2.128,1.82,2.746,3.7,2.715" transform="translate(8.176 5.652)" fill="#fece00"/>
        <path id="Path_2623" data-name="Path 2623" d="M50.974,32.14l-.244,0c-1.787.032-2.342-.518-3.458-2.537v-.362l-.365.218c-1.214.73-2.7.657-5.477-.268-3.694-1.231-4.6-.514-6,.876-1.4-1.391-2.3-2.108-6-.876-2.776.926-4.261,1-5.478.268l-.363-.218v.362c-1.117,2.019-1.686,2.57-3.458,2.537l-.243,0V53.383l.21-.023c3.707,1.411,6.74,1.482,9.268.217,1.394-.7,2.761-1.189,4.154.436l.422.492v-.648A3.57,3.57,0,0,1,35.192,51v.088l.24-.3.24.3V51a3.571,3.571,0,0,1,1.249,2.86v.648l.422-.492c1.392-1.624,2.759-1.133,4.153-.436,2.53,1.266,5.563,1.194,9.27-.217l.21.023Zm-3.319-1v6.119h.48V31.711a2.975,2.975,0,0,0,.508.431v6.165h.479V32.384a3.026,3.026,0,0,0,.508.148v5.962h.48V32.6c.125.011.248.023.384.025v20.21c-.107-.017-.218-.033-.322-.052v-5.9h-.48v5.789c-.176-.045-.346-.1-.508-.156V46.453H48.7V52.3a3.679,3.679,0,0,1-.508-.329V45.9h-.48V51.5c-.056-.067-.114-.13-.167-.2l-.027-.041a3.964,3.964,0,0,1-.251-.428V30.565c.13.212.257.4.384.576m-6.376-1.49c2.672.89,4.231,1.02,5.512.418V50.751l-.064.035c-.036.018-.074.035-.112.051s-.094.039-.143.058l-.117.042c-.054.017-.108.033-.163.048s-.081.023-.122.032c-.06.013-.12.026-.182.038l-.126.021c-.064.01-.131.018-.2.025-.044,0-.087.01-.131.012-.07.006-.143.008-.214.011l-.137,0c-.075,0-.151,0-.228,0-.048,0-.094,0-.143-.006-.079,0-.16-.013-.241-.021-.049,0-.1-.008-.147-.014-.083-.011-.168-.025-.254-.039-.05-.008-.1-.015-.151-.025-.086-.015-.174-.036-.262-.056-.052-.012-.1-.023-.157-.036-.089-.023-.181-.049-.272-.076-.054-.014-.108-.03-.162-.046-.093-.029-.186-.062-.28-.1-.055-.019-.111-.037-.167-.057-.1-.036-.192-.077-.29-.117-.055-.024-.111-.044-.167-.069-.1-.044-.2-.094-.306-.143-.054-.026-.106-.049-.16-.076-.112-.056-.225-.118-.338-.18-.046-.025-.091-.048-.137-.074-.159-.091-.319-.186-.481-.29s-.338-.192-.5-.274q-.063-.032-.125-.061c-.151-.073-.3-.138-.443-.194l-.031-.012a4.655,4.655,0,0,0-.443-.144c-.039-.012-.077-.021-.116-.031-.126-.032-.249-.06-.369-.08l-.052-.01c-.132-.02-.261-.032-.386-.039-.036,0-.072,0-.106,0s-.074,0-.108,0-.08.006-.12.007c-.069,0-.138,0-.2.011s-.123.014-.184.023-.13.019-.192.032-.113.026-.169.041-.12.031-.179.05-.1.036-.154.055-.111.042-.164.064-.094.044-.141.067-.1.049-.15.075l-.128.075c-.045.029-.092.056-.135.085s-.077.054-.116.081-.081.058-.119.088-.069.057-.1.086-.072.058-.1.088l-.023.019V30.509c1.406-1.4,2.1-2.026,5.608-.858m-11.695,0c3.5-1.168,4.2-.546,5.608.858V49.8l-.027-.024-.062-.054c-.043-.037-.087-.073-.133-.11-.025-.02-.051-.039-.077-.058-.048-.036-.1-.07-.148-.1-.027-.019-.054-.037-.082-.055-.062-.039-.127-.077-.194-.114-.02-.011-.038-.023-.057-.033-.088-.045-.179-.088-.274-.129l-.082-.03q-.105-.043-.218-.079c-.038-.012-.077-.021-.117-.032-.069-.019-.139-.036-.212-.051l-.13-.024c-.076-.012-.155-.021-.235-.029-.043,0-.083-.01-.128-.012-.1-.006-.211-.006-.322,0-.021,0-.042,0-.063,0a3.821,3.821,0,0,0-.406.042c-.043.006-.088.017-.131.024-.1.018-.2.039-.305.066-.055.014-.112.031-.168.048-.1.029-.2.062-.3.1-.06.021-.118.043-.179.067-.11.044-.222.094-.335.147-.055.025-.108.049-.164.076-.169.085-.343.178-.521.285-.162.1-.322.2-.481.29-.046.026-.093.049-.139.074-.112.062-.224.123-.334.179-.057.029-.112.052-.168.079-.1.048-.2.1-.3.139-.058.026-.117.048-.175.071-.094.039-.187.079-.28.113-.06.023-.119.042-.179.063-.088.031-.178.062-.266.089-.061.019-.12.035-.18.052-.085.024-.169.049-.251.07l-.18.041c-.08.018-.16.036-.238.051l-.178.03c-.076.012-.151.024-.225.033s-.117.013-.175.018-.142.014-.212.019-.114,0-.17.006-.133,0-.2,0l-.167,0c-.062,0-.124,0-.184-.01s-.107-.01-.16-.015-.116-.013-.172-.021l-.15-.026c-.054-.011-.107-.021-.158-.033s-.094-.023-.141-.036-.1-.029-.148-.044-.086-.03-.128-.045l-.137-.055-.113-.052-.064-.035V30.069c1.281.6,2.841.472,5.512-.418M20.753,32.6v5.894h.48V32.532a2.994,2.994,0,0,0,.508-.148v5.924h.48V32.144a3.131,3.131,0,0,0,.506-.431v5.547h.48V31.14c.126-.175.254-.363.384-.576V50.831a3.963,3.963,0,0,1-.251.428c-.008.013-.018.026-.027.039-.052.074-.111.137-.167.2V45.9h-.479v6.076a3.753,3.753,0,0,1-.508.329v-5.85h-.48v6.064a5.162,5.162,0,0,1-.508.156V46.884h-.479v5.9c-.1.019-.214.036-.323.052V32.625c.137,0,.26-.014.384-.025M33.485,53.284c-1.488-1.366-3.008-.8-4.332-.136-2.222,1.111-4.876,1.128-8.092.049.188-.044.371-.093.545-.151l.014,0a8.391,8.391,0,0,0,3.41.733A6.767,6.767,0,0,0,26.6,53.6l-.112-.467a7.725,7.725,0,0,1-4.23-.338,3.712,3.712,0,0,0,.864-.568,6.11,6.11,0,0,0,2.355.492,3.92,3.92,0,0,0,.94-.106l-.116-.466a5.148,5.148,0,0,1-2.821-.288c.081-.1.16-.194.235-.3.048-.067.092-.138.135-.209.025-.043.054-.079.077-.123.055.026.113.049.17.073.02.008.038.018.058.025a3.649,3.649,0,0,0,.435.138c.03.008.061.015.092.021a4.657,4.657,0,0,0,.493.088l.062.006c.17.017.346.027.528.029l.046,0h.024c.149,0,.3-.006.456-.018l.087-.01q.193-.018.393-.046c.049-.007.1-.017.149-.025q.181-.03.365-.071l.151-.035c.149-.036.3-.077.454-.124l.067-.019c.178-.056.359-.119.54-.189.044-.017.088-.036.132-.054.139-.056.278-.114.418-.179l.178-.085c.135-.064.269-.133.405-.2l.168-.091c.188-.1.379-.216.57-.338.162-.1.318-.182.471-.259.054-.027.1-.046.155-.071.1-.046.2-.093.292-.131.06-.024.117-.042.174-.063.083-.031.168-.062.249-.087.06-.018.117-.031.174-.046.076-.019.153-.039.225-.054s.113-.02.17-.029.138-.021.206-.029.107-.007.161-.01.13-.006.192-.006l.153.006c.06,0,.12.008.179.014l.142.02c.056.01.112.02.167.033s.088.02.131.032.1.031.156.049.081.027.12.043.1.041.145.062.074.033.11.051.091.049.136.074.066.037.1.057.085.056.126.085.058.039.086.06c.043.032.083.064.123.1.024.019.048.037.069.056.044.038.085.076.125.114l.048.045c.055.052.1.106.154.16a4.477,4.477,0,0,0-1.622,2.9m8.223-.136a5.36,5.36,0,0,0-2.328-.7,2.877,2.877,0,0,0-2,.837,4.48,4.48,0,0,0-1.621-2.9c.048-.054.1-.107.154-.162.012-.012.026-.024.039-.036.043-.041.086-.082.132-.122.021-.019.045-.037.067-.055.042-.033.082-.067.126-.1.026-.02.055-.039.083-.058s.083-.058.129-.086.064-.038.1-.057.088-.051.136-.074.071-.035.108-.051.1-.043.145-.063l.12-.043.156-.049.13-.032c.055-.012.112-.023.169-.032s.092-.015.139-.02.12-.012.181-.015l.148-.006c.064,0,.131,0,.2.006.051,0,.1,0,.155.01.07.007.142.018.215.03.054.008.106.015.162.026.075.015.154.036.232.056.055.015.11.027.167.044.083.026.17.058.257.091.055.019.108.037.164.06.1.039.2.088.3.136.048.023.093.042.142.066.154.077.31.162.471.26.192.12.381.231.57.337l.178.1c.131.07.262.137.391.2l.192.091c.133.06.265.116.4.169l.154.063c.179.068.355.13.528.185.037.012.072.02.107.031.139.042.278.079.413.112l.174.041c.113.025.226.046.338.066.056.011.113.02.17.029.123.018.243.032.361.044.038,0,.077.008.116.012q.229.016.447.018h.029c.02,0,.038,0,.057,0,.175,0,.344-.011.508-.027l.075-.007a4.556,4.556,0,0,0,.485-.086l.1-.024a3.69,3.69,0,0,0,.429-.136l.061-.026c.057-.024.116-.046.169-.073.024.042.05.077.075.117.044.074.089.148.138.217.075.107.153.2.234.3a5.145,5.145,0,0,1-2.821.288l-.116.466a3.927,3.927,0,0,0,.94.106,6.11,6.11,0,0,0,2.355-.492,3.737,3.737,0,0,0,.864.568,7.714,7.714,0,0,1-4.23.338l-.111.467a6.747,6.747,0,0,0,1.569.178,8.393,8.393,0,0,0,3.412-.733l.014,0c.174.058.356.107.545.151-3.215,1.081-5.87,1.062-8.092-.049" transform="translate(3.811 5.474)" fill="#1a1818"/>
        <path id="Path_2624" data-name="Path 2624" d="M33.139,50.885v-.24a1.9,1.9,0,0,0,1.288-.795l.2.132a2.107,2.107,0,0,1-1.488.9" transform="translate(6.35 9.553)" fill="#fff"/>
        <path id="Path_2625" data-name="Path 2625" d="M31.686,50.238c-.014-.018-.037-.041-.062-.068a.743.743,0,0,1-.241-.363l.237-.029c.006.051.125.173.175.226a1.068,1.068,0,0,1,.077.083Z" transform="translate(6.014 9.539)" fill="#fff"/>
        <path id="Path_2626" data-name="Path 2626" d="M24.236,31.957h2.491l.075,1.026h-.11a.742.742,0,0,0-.255-.615.689.689,0,0,0-.46-.126h-.841V35.7c0,.348.153.405.393.405v.114H24.285v-.114c.241,0,.394-.057.394-.405V32.717c0-.659-.355-.627-.443-.634Z" transform="translate(4.644 6.124)" fill="#1a1818"/>
        <path id="Path_2627" data-name="Path 2627" d="M27.273,31.832l1.685,2.72V31.99c0-.347-.154-.371-.4-.319v-.113l1.007-.216v.114a.419.419,0,0,0-.4.487v3.78l-.1.021-1.936-3.04v2.884c0,.3.172.368.4.319v.114l-1.007.215v-.114a.457.457,0,0,0,.4-.487V32.348c-.131-.187-.162-.331-.386-.247v-.113Z" transform="translate(5.084 6.006)" fill="#1a1818"/>
        <path id="Path_2628" data-name="Path 2628" d="M30.64,35.793l-1.209-.141V34.558l.062.007c.049.337.1.424.27.444l.648.074-.01-.189a1.483,1.483,0,0,1-.684-.815,3.019,3.019,0,0,1-.069-2,1.3,1.3,0,0,1,.467-.695.98.98,0,0,1,.75-.211,1.23,1.23,0,0,1,.751.385,1.774,1.774,0,0,1,.468.8,2.965,2.965,0,0,1-.063,1.983,1.065,1.065,0,0,1-.684.657l-.008.188.648.075c.172.02.222-.055.271-.38l.061.007v1.094l-1.21-.141.064-1.019c.131-.079.324-.124.484-.713a3.751,3.751,0,0,0-.187-2.3.757.757,0,0,0-.6-.419.576.576,0,0,0-.593.281,3.545,3.545,0,0,0-.182,2.261c.161.626.354.716.485.826Z" transform="translate(5.639 5.973)" fill="#1a1818"/>
        <path id="Path_2629" data-name="Path 2629" d="M25.537,37.058l2.328-.53.045.919-.086.02c-.045-.224-.122-.62-.566-.518l-.989.225.9,1.383-1.061,1.935,1.317-.3c.287-.067.454-.191.589-.819l.091-.02-.167,1.3-2.458.561,1.263-2.3Z" transform="translate(4.883 7)" fill="#1a1818"/>
        <path id="Path_2630" data-name="Path 2630" d="M30.854,40.692l-2.431-.133v-.111c.248.013.406-.033.408-.372l.012-3.126c0-.337-.157-.4-.405-.416v-.11l2.4.131,0,.909-.122-.006c-.057-.286-.038-.617-.425-.639l-.97-.052L29.306,38.3l.7.039c.361.019.461-.184.464-.552l.1,0,0,1.413-.1-.006c0-.368-.1-.583-.458-.6l-.7-.038L29.3,40.084c0,.214.085.275.179.274l.735.015c.479.008.6-.415.711-.722l.139.008Z" transform="translate(5.447 6.98)" fill="#1a1818"/>
        <path id="Path_2631" data-name="Path 2631" d="M24.08,42.273l2.355-.383.052.912-.087.014c-.046-.224-.128-.62-.577-.546l-1,.162.926,1.423L24.688,45.7l1.331-.217c.291-.046.459-.16.591-.772L26.7,44.7l-.16,1.275-2.487.4,1.263-2.2Z" transform="translate(4.61 8.027)" fill="#1a1818"/>
        <path id="Path_2632" data-name="Path 2632" d="M27.357,45.369a2.467,2.467,0,0,1-.547-1.681,2.917,2.917,0,0,1,.547-1.783,1.452,1.452,0,0,1,.951-.572,1.127,1.127,0,0,1,.951.353,2.413,2.413,0,0,1,.547,1.656,2.975,2.975,0,0,1-.547,1.808,1.421,1.421,0,0,1-.951.572,1.1,1.1,0,0,1-.951-.353m.026-2.473a5.052,5.052,0,0,0,0,1.55,2.018,2.018,0,0,0,.231.673.747.747,0,0,0,.685.359,1,1,0,0,0,.7-.518,2.476,2.476,0,0,0,.231-.727,5.065,5.065,0,0,0,0-1.55,2.1,2.1,0,0,0-.178-.617.738.738,0,0,0-.747-.49.99.99,0,0,0-.747.661,2.509,2.509,0,0,0-.178.659m1.2.367c.164-.019.249-.154.3-.366h.067c-.018.2-.027.378-.027.535s.01.33.027.534l-.067.014c-.049-.207-.133-.316-.3-.3l-.56.064c-.164.019-.249.147-.3.366h-.066c.017-.207.026-.384.026-.54s-.01-.33-.026-.529l.066-.013c.049.2.133.316.3.3Z" transform="translate(5.138 7.919)" fill="#1a1818"/>
        <path id="Path_2633" data-name="Path 2633" d="M32.166,45.885l-2.47-.309v-.107c.253.031.412,0,.416-.335l.026-3.076c0-.332-.157-.406-.41-.437v-.108l2.433.3-.007.894-.124-.015c-.057-.285-.036-.609-.43-.658l-.985-.123-.013,1.51.715.089c.367.044.47-.148.473-.51l.1.013-.012,1.389-.106-.013c0-.362-.1-.58-.462-.627l-.714-.088-.013,1.5c0,.211.085.276.181.281l.747.07c.486.042.614-.366.726-.66l.142.018Z" transform="translate(5.691 7.955)" fill="#1a1818"/>
        <path id="Path_2634" data-name="Path 2634" d="M36.465,31.069l.023,1.065-.116.031c0-.487-.192-.776-.636-.722l-.293.035v3.451c0,.344.156.375.4.336v.113l-1.262.2v-.112c.244-.039.4-.12.4-.465V31.553l-.293.06c-.444.091-.635.44-.635.927l-.116.007.023-1.072Z" transform="translate(6.503 5.954)" fill="#1a1818"/>
        <path id="Path_2635" data-name="Path 2635" d="M38.493,33.5V32.086a.411.411,0,0,0-.4-.477V31.5l1.262.241v.113c-.244-.046-.4-.02-.4.323v3.183a.41.41,0,0,0,.4.477v.112l-1.262-.241v-.112c.244.046.4.02.4-.324V33.761l-1.342-.256v1.506a.41.41,0,0,0,.4.477V35.6l-1.263-.242v-.112c.244.046.4.02.4-.324V31.742a.411.411,0,0,0-.4-.477v-.112l1.263.241v.113c-.245-.048-.4-.02-.4.323v1.413Z" transform="translate(6.954 5.97)" fill="#1a1818"/>
        <path id="Path_2636" data-name="Path 2636" d="M39.879,31.639l1.731,2.99L41.6,32.055c0-.349-.158-.4-.405-.381V31.56l1.031-.063v.114c-.247.015-.405.082-.4.43l.01,3.8-.1.006L39.745,32.5l.007,2.9a.341.341,0,0,0,.406.381v.114l-1.031.062v-.114a.388.388,0,0,0,.4-.43l-.008-3.3c-.135-.207-.167-.357-.4-.305v-.114Z" transform="translate(7.498 6.036)" fill="#1a1818"/>
        <path id="Path_2637" data-name="Path 2637" d="M34.435,36.428l1.115,3.528c.054.167.08.387.342.348v.113l-1.111.167v-.113c.08-.012.377-.038.262-.465l-.218-.792-1.151.173-.213.858c-.116.46.182.4.262.385v.112l-.853.129v-.112c.262-.039.288-.269.342-.452l1.107-3.861Zm-.676,2.684,1-.15-.5-1.6Z" transform="translate(6.299 6.981)" fill="#1a1818"/>
        <path id="Path_2638" data-name="Path 2638" d="M37.8,40c.133.456.369.484.418.486V40.6l-1.209-.049V40.44c.094,0,.422-.007.285-.495l-.72-2.511-.649,2.442c-.137.514.08.522.254.529v.113l-.956-.039v-.113a.563.563,0,0,0,.471-.436l1-3.692Z" transform="translate(6.75 6.944)" fill="#1a1818"/>
        <path id="Path_2639" data-name="Path 2639" d="M39.619,38.774l.01-1.417c0-.344-.136-.435-.354-.489v-.113l1.13.279v.113c-.219-.054-.357-.032-.36.312l-.023,3.19c0,.344.136.435.355.49v.113l-1.13-.279V40.86c.218.054.359.032.361-.313l.01-1.51-1.2-.3-.011,1.511c0,.344.136.435.355.489v.113l-1.128-.279v-.113c.218.055.357.032.36-.312l.023-3.19c0-.344-.136-.435-.355-.489v-.113l1.128.279v.113c-.218-.055-.357-.032-.36.312l-.01,1.417Z" transform="translate(7.211 6.967)" fill="#1a1818"/>
        <path id="Path_2640" data-name="Path 2640" d="M40.471,40.891a2.5,2.5,0,0,1-.533-1.668,2.953,2.953,0,0,1,.521-1.774,1.407,1.407,0,0,1,.916-.576,1.077,1.077,0,0,1,.92.347,2.435,2.435,0,0,1,.534,1.643,3.017,3.017,0,0,1-.522,1.8,1.362,1.362,0,0,1-.916.574,1.043,1.043,0,0,1-.92-.346m.018-2.458a5.086,5.086,0,0,0,0,1.541,2.057,2.057,0,0,0,.225.668.721.721,0,0,0,.664.354.971.971,0,0,0,.676-.52,2.49,2.49,0,0,0,.22-.725,5.177,5.177,0,0,0,0-1.542A2.091,2.091,0,0,0,42.1,37.6a.706.706,0,0,0-.722-.483.962.962,0,0,0-.719.661,2.527,2.527,0,0,0-.169.655m1.164.359c.158-.02.24-.154.286-.365l.064,0c-.017.2-.024.377-.024.531s.01.328.027.531l-.063.014c-.049-.2-.131-.313-.29-.294l-.54.068c-.16.02-.24.148-.287.366h-.063c.015-.207.024-.383.023-.537s-.01-.329-.027-.526l.064-.014c.048.2.13.313.288.294Z" transform="translate(7.653 7.064)" fill="#1a1818"/>
        <path id="Path_2641" data-name="Path 2641" d="M35.584,45.574l-2.332.328,0-.107c.238-.033.391-.11.4-.437l.06-3.041c.006-.329-.144-.361-.383-.328l0-.107,2.3-.323-.017.884-.117.017c-.051-.267-.027-.592-.4-.54l-.929.131-.03,1.493.676-.1c.346-.048.444-.265.452-.623l.1-.013-.027,1.373-.1.014c.007-.357-.085-.548-.43-.5l-.676.1L34.1,45.276c0,.209.076.251.168.232l.705-.123c.459-.082.584-.517.694-.837l.135-.019Z" transform="translate(6.372 7.964)" fill="#1a1818"/>
        <path id="Path_2642" data-name="Path 2642" d="M36.416,45.089c-.007.329.147.386.391.391l0,.107-1.261-.026,0-.107c.244,0,.4-.046.409-.374l.07-3.04c.008-.33-.147-.387-.39-.392V41.54l1.261.026,0,.108c-.244-.006-.4.045-.409.374Z" transform="translate(6.811 7.96)" fill="#1a1818"/>
        <path id="Path_2643" data-name="Path 2643" d="M38.437,41.843,39.471,45.8c.05.187.072.416.335.486l0,.111L38.691,46.1l0-.112c.08.021.378.12.272-.35l-.2-.875-1.152-.305-.232.76c-.125.409.174.468.254.491l0,.111-.854-.228,0-.11c.262.069.294-.147.352-.306l1.19-3.363ZM37.7,44.219l1.006.266-.466-1.791Z" transform="translate(7.048 8.012)" fill="#1a1818"/>
        <path id="Path_2644" data-name="Path 2644" d="M40.179,42.037l1.728,3.169-.036-2.636c0-.357-.16-.416-.4-.416v-.117h1.007l0,.117c-.242,0-.4.058-.391.416l.054,3.889h-.1l-1.984-3.552.041,2.968a.368.368,0,0,0,.4.415v.117H39.5l0-.117a.357.357,0,0,0,.391-.415l-.045-3.384c-.136-.22-.168-.377-.392-.337v-.117Z" transform="translate(7.559 8.056)" fill="#1a1818"/>
        <path id="Path_2645" data-name="Path 2645" d="M48.832,64.3l-.014-.273-.265.048a33.532,33.532,0,0,1-3.358.3,5.762,5.762,0,0,0,2.11-1.6,3.026,3.026,0,0,0,.653-2.787l-.076-.265-.255.116a24.975,24.975,0,0,0-2.993,1.684c-.048.033-.1.067-.154.1a4.676,4.676,0,0,0,.461-1.411c.259-1.521-.12-3.374-.783-3.814l-.206-.139-.13.216a18.791,18.791,0,0,0-1.242,2.937c-.049.138-.1.278-.149.417a8.817,8.817,0,0,0-.739-5.739A2.176,2.176,0,0,0,40.1,52.909l-.326-.033.073.322a10.451,10.451,0,0,1,.114,3.685,18.114,18.114,0,0,1-.888,3.177l0-.245a2.7,2.7,0,0,0-.566-1.435,2,2,0,0,0-.379-.369c-.058-.048-.12-.1-.173-.149a3.287,3.287,0,0,0,.983-1.3L39.125,56l-.518.259a4.876,4.876,0,0,1-1.923-.1c-1.311-.211-2.548-.409-2.946.306-.01.02-.063.226-.265.207a1.9,1.9,0,0,0-1.622.647,2.417,2.417,0,0,0-.154,1.953l.466-.049a.3.3,0,0,1,.116-.176A.8.8,0,0,1,32.864,59l.033,0h.033c.431-.037.573.094.611.141-.349-.1-.176.07-.972.282-.583.156-1.08-.216-1.419.248.231.262.431,0,.926.062a.7.7,0,0,1,.393.156l-.311.056.427.71,1.162.087-.547.417-.931,1.569.931.086a3.143,3.143,0,0,0-.643,1.516c-.686-.091-1.132-.436-1.132-1.559,0-.677.029-1.051.048-1.3a2.177,2.177,0,0,0-.135-1.089,16.211,16.211,0,0,1-1.021-3.507,10.451,10.451,0,0,1,.114-3.685l.073-.322-.327.033a2.176,2.176,0,0,0-1.593,1.184,8.817,8.817,0,0,0-.739,5.739c-.048-.139-.1-.279-.148-.417a18.9,18.9,0,0,0-1.243-2.937l-.13-.216-.206.139c-.663.441-1.041,2.294-.782,3.814a4.642,4.642,0,0,0,.46,1.411c-.052-.035-.1-.068-.154-.1a24.882,24.882,0,0,0-2.993-1.684l-.254-.116-.077.265a3.029,3.029,0,0,0,.653,2.787,5.781,5.781,0,0,0,2.11,1.6,33.532,33.532,0,0,1-3.358-.3l-.265-.048-.014.273a2.746,2.746,0,0,0,1.084,2.5,5.917,5.917,0,0,0,4.529.566c-.561.35-1.2.667-1.756.945l-.595.3.369.225a3.72,3.72,0,0,0,1.934.638,3.671,3.671,0,0,0,2.686-1.5,1.344,1.344,0,0,0,.533,1.148,1.562,1.562,0,0,0,1.92-.116c.292-.269.859-1.027.114-2.5.158,0,.322,0,.495,0,.033.116.073.231.111.35a4.067,4.067,0,0,0,.537,1.224,2.961,2.961,0,0,1,.292.533l-3.621,1.276,1.324.661-1.219.624-.446-1.516-2.389-.12,1.261.95.2.826-1.714-.341-1.774,1.045h1.161l1.88.629-1.7.652-.038,2.424.94-1.252,1.895-.71,1.2.6.449,1.324a10.348,10.348,0,0,1-1.988.422l-.418.051.26.332a2.931,2.931,0,0,0,2.116,1.283,2.77,2.77,0,0,0,1.373-.291,5.137,5.137,0,0,1-1.729,1.293l-.462.2.446.235a2.866,2.866,0,0,0,2.16.167,2.187,2.187,0,0,0,.825-.559,5.13,5.13,0,0,0,1.268,4.106l.178.194.178-.194A5.134,5.134,0,0,0,36.58,78.82a2.2,2.2,0,0,0,.825.559,2.866,2.866,0,0,0,2.16-.167l.446-.235-.462-.2a5.137,5.137,0,0,1-1.729-1.293,2.757,2.757,0,0,0,1.373.291,2.934,2.934,0,0,0,2.116-1.283l.26-.332-.418-.051a11.584,11.584,0,0,1-1.767-.342l.477-1.4,1.2-.6,1.895.71.94,1.252L43.861,73.3l-1.708-.652,1.885-.629H45.2l-1.776-1.045-1.712.341.192-.826,1.267-.95-2.389.12-.446,1.516-.883-.422a2.519,2.519,0,0,0,.542-.413l.263-.263-3.493-1.271a9.843,9.843,0,0,0,.783-2.3c.162.007.316.008.466,0-.744,1.468-.178,2.226.114,2.5a1.562,1.562,0,0,0,1.92.116,1.344,1.344,0,0,0,.533-1.148,3.673,3.673,0,0,0,2.686,1.5,3.72,3.72,0,0,0,1.934-.638l.369-.225-.595-.3c-.556-.278-1.2-.595-1.756-.945a5.916,5.916,0,0,0,4.529-.566,2.746,2.746,0,0,0,1.084-2.5m-1.368,2.112c-1.333.978-3.694.763-5.325.144l-1.04-.394.786.788a10.715,10.715,0,0,0,2.676,1.693c-1.568.791-2.768.263-4.289-1.818l-.412.244c.355.753.322,1.358-.1,1.669a1.075,1.075,0,0,1-1.31-.086c-.48-.436-.431-1.233.139-2.2a3.191,3.191,0,0,0,1.056-.331,1.7,1.7,0,0,0,.249-.235v0a9.374,9.374,0,0,0,1.718,1.859l.131-.2a9.067,9.067,0,0,1-1.691-1.855,3.107,3.107,0,0,0,.291-.462l0-.006a6.471,6.471,0,0,0,3.71.951c.266,0,.44-.01.467-.012l-.015-.238c-.029,0-2.794.161-4.059-.92a4.788,4.788,0,0,0,.3-.888c.2.019.417.032.651.032a6,6,0,0,0,2.629-.473l-.132-.2a6.639,6.639,0,0,1-3.095.41l0-.018a4.747,4.747,0,0,0,.076-.677h0a2.862,2.862,0,0,0,2.139-1.473l-.214-.107a2.709,2.709,0,0,1-1.687,1.3l.531-.452a8.3,8.3,0,0,0,1.376-2.884,22.544,22.544,0,0,1,1.046-2.572,5.174,5.174,0,0,1,.393,3.133,3.485,3.485,0,0,1-1.2,2.213,9.171,9.171,0,0,1-1.064.508l.148.456a3.392,3.392,0,0,0,1.162-.552c.46-.255.907-.537,1.372-.831a25.3,25.3,0,0,1,2.673-1.53,2.675,2.675,0,0,1-.634,2.077,5.847,5.847,0,0,1-3.746,1.991c-.6.024-1,.033-1.013.033l-.01.48a5.877,5.877,0,0,0,1.041-.029c1.382-.052,3.824-.168,5.157-.36a2.209,2.209,0,0,1-.9,1.818m-10.372-.182v.01l-.008.137a9.32,9.32,0,0,1-.866,2.454l-.13.24,3.258,1.186a2.649,2.649,0,0,1-1.482.422l-.518-.033.312.417A4,4,0,0,1,38.3,72.3L35.844,70.92l.038.452a6.692,6.692,0,0,0,1.157,3.152l-1.078-.192-.035-.007-.231-.05v.01h0L35.4,75.561a2.088,2.088,0,0,1-.1.247l-.172.275-.216-.336c-.031-.073-.062-.144-.086-.218l-.322-1.318,0-.015-.218.064-.747.163a6.349,6.349,0,0,0,1.094-2.995l.02-.369-2.37.864.734-1.1L31.3,69.97l3.037-1.07-.1-.235a3.975,3.975,0,0,0-.446-.854,3.709,3.709,0,0,1-.475-1.1c-.052-.157-.1-.311-.139-.465v-.01a13.836,13.836,0,0,0-.176-1.665,2.776,2.776,0,0,1,1.161-2.034l-.225-.418-.629.231-.254-.025.47-.806,1.512-1.156-1.761-.13.893-.163-.038-.235c-.054-.331-.12-.8-.13-.84s-.206-.528-1.08-.47a1.231,1.231,0,0,0-.878.1A1.468,1.468,0,0,1,32.24,57.6a1.4,1.4,0,0,1,1.224-.452.743.743,0,0,0,.705-.49c.22-.384,1.5-.182,2.437-.029a9.975,9.975,0,0,0,1.674.178,3.806,3.806,0,0,1-.815.831l-.206.149.158.2a2.379,2.379,0,0,0,.408.393,1.423,1.423,0,0,1,.287.273,3.089,3.089,0,0,1,.428.854L37,59.187a1.26,1.26,0,0,0-.087-.424l-.443.185a.941.941,0,0,1-.362,1.081l.305.369A1.514,1.514,0,0,0,37,59.349l.779,1.443.23,1.032-1.963-.8L36.3,62.3l-.1.307-.273-.072-.322-.5-.4.254.417.667.9.235.273-.864-.108-.505V61.81l.013,0,.135.052a9.081,9.081,0,0,1,.423,2.725,14.822,14.822,0,0,0-.172,1.641m5.31,3.588-.71.533-.3,1.271,1.991-.4.94.556h-.3l-2.576.854,2.178.829.024,1.526-.537-.72L41.049,73.5l-1.386.7-.317.935-.374-1.419,1.333-.965L38.7,71.975l-.144-.071-.518-.9,1-.178.144.067,1.3.624.48-1.627ZM36.908,76.24l-.381.282a6.9,6.9,0,0,0,2.326,2.442,2.12,2.12,0,0,1-1.28-.035A2.252,2.252,0,0,1,36.346,77.5l-.458.142a5.134,5.134,0,0,1-.754,4.758,5.134,5.134,0,0,1-.754-4.758l-.458-.142A2.252,2.252,0,0,1,32.7,78.93a2.12,2.12,0,0,1-1.28.035,6.9,6.9,0,0,0,2.326-2.442l-.383-.282A3.24,3.24,0,0,1,31.107,77.3a2.256,2.256,0,0,1-1.488-.773,7.962,7.962,0,0,0,3.913-1.6c.07-.011.145-.027.219-.042a3.867,3.867,0,0,1-2.513,1.683.12.12,0,0,0-.111.129.122.122,0,0,0,.12.111h.01a4.287,4.287,0,0,0,2.86-2l.038-.01c.011.05.021.1.033.15a7.224,7.224,0,0,0,.182.72,6.3,6.3,0,0,1-1.392,2.347.12.12,0,1,0,.147.191A6.14,6.14,0,0,0,34.5,76a2.659,2.659,0,0,0,.455.691l.006.008.046.074L35,77.034a21.09,21.09,0,0,0,.021,3.431l.118.3.106-.3a21.087,21.087,0,0,0,.024-2.943c-.007-.29-.013-.542-.015-.725l.079-.126a3.626,3.626,0,0,0,.4-.64l.025-.039A6.178,6.178,0,0,0,37.144,78.2a.12.12,0,0,0,.147-.191,6.34,6.34,0,0,1-1.4-2.381,5.206,5.206,0,0,0,.129-.565c.014-.072.029-.145.044-.224l.147.03a4.229,4.229,0,0,0,2.807,1.935h.01a.12.12,0,0,0,.119-.111.118.118,0,0,0-.11-.129,3.827,3.827,0,0,1-2.475-1.631l.211.035a7.747,7.747,0,0,0,3.884,1.555,2.259,2.259,0,0,1-1.488.772,3.265,3.265,0,0,1-2.255-1.058m-9.5-1.966-.542.72.024-1.526,2.183-.829-2.538-.845-.341-.01.94-.556,1.986.4-.3-1.271-.71-.533,1.439.073.479,1.631,1.641-.835.13-.067.7.346-.537.935-.355.173-1.4.671,1.335.965-.374,1.419-.322-.935-1.387-.7-2.02.759Zm4.823.922a6.657,6.657,0,0,1-.944.43l.53-2.01-1.142-.825.666-.322-.268.4,3.033-1.1a5.659,5.659,0,0,1-1.368,2.865L32.2,75.2Zm5.551-.491a6.386,6.386,0,0,1-1.363-2.912l2.5,1.4-.033-.442a2.484,2.484,0,0,0-.087-.46l1.032.5-1.137.825.556,2.113a6.532,6.532,0,0,1-1.3-.555l.3.055Zm-.148-8.669h0a9.393,9.393,0,0,0,.106-1.221l.018,0c1.07-.144,1.574-.8,1.574-2.039,0-.7-.029-1.08-.052-1.333a1.646,1.646,0,0,1,.1-.878,16.832,16.832,0,0,0,1.046-3.575,10.307,10.307,0,0,0-.043-3.516,2.1,2.1,0,0,1,.9.873c.907,1.482,1.291,4.572-.01,7.849l-.3.747c-.027,0-.055.006-.082.008a6.934,6.934,0,0,0-.249-1.711c1.17-3.078,1.008-3.213.848-3.34l-.311-.013.133.2-.079.216a.194.194,0,0,1-.112-.136,12.025,12.025,0,0,1-.958,2.981l.226.088h0l-.231.073a5.729,5.729,0,0,1,.182,2.47,3.233,3.233,0,0,1-.954,1.948,3.567,3.567,0,0,1-1.6.317c-.048,0-.1,0-.148,0m1.3-5.647a2.177,2.177,0,0,0-.135,1.089c.019.244.048.618.048,1.3,0,1.112-.439,1.46-1.113,1.556a9.526,9.526,0,0,0-.331-2.233l1.271.514-.442-1.958-.427-.81,1.245.26c-.041.1-.074.193-.117.287m-8.426,8.352c-.417-.311-.452-.916-.1-1.669L30,66.828c-1.521,2.082-2.72,2.61-4.289,1.818a10.715,10.715,0,0,0,2.676-1.693l.788-.788-1.041.394c-1.631.618-3.992.834-5.325-.144a2.212,2.212,0,0,1-.9-1.818c1.333.192,3.776.307,5.157.36a5.877,5.877,0,0,0,1.041.029l-.01-.48c-.01,0-.412-.01-1.013-.033a5.847,5.847,0,0,1-3.746-1.991,2.684,2.684,0,0,1-.634-2.077,25.3,25.3,0,0,1,2.673,1.53c.465.293.912.576,1.372.831a3.392,3.392,0,0,0,1.162.552l.149-.456A9.283,9.283,0,0,1,27,62.352a3.491,3.491,0,0,1-1.2-2.213,5.183,5.183,0,0,1,.393-3.133,22.546,22.546,0,0,1,1.046,2.572,8.277,8.277,0,0,0,1.378,2.884l.531.452a2.709,2.709,0,0,1-1.687-1.3l-.214.107a2.858,2.858,0,0,0,2.138,1.473h0a4.747,4.747,0,0,0,.076.677l0,.018a6.639,6.639,0,0,1-3.095-.41l-.132.2a6,6,0,0,0,2.629.473c.234,0,.449-.013.652-.032a4.793,4.793,0,0,0,.3.888c-1.264,1.081-4.029.92-4.059.92l-.015.238c.027,0,.2.012.468.012a6.465,6.465,0,0,0,3.708-.951l0,.006a3.205,3.205,0,0,0,.292.462,9.137,9.137,0,0,1-1.691,1.855l.13.2a9.374,9.374,0,0,0,1.718-1.859v0a1.6,1.6,0,0,0,.25.235,3.177,3.177,0,0,0,1.055.331c.571.964.62,1.761.139,2.2a1.075,1.075,0,0,1-1.31.086m.379-3.017a3.234,3.234,0,0,1-.954-1.948,5.75,5.75,0,0,1,.182-2.47l-.23-.073h0l.228-.088a12.1,12.1,0,0,1-.959-2.981.194.194,0,0,1-.111.136l-.08-.216.133-.2-.31.013c-.16.128-.323.262.848,3.34h0a6.994,6.994,0,0,0-.249,1.711c-.027,0-.055,0-.082-.008l-.3-.747c-1.3-3.277-.916-6.367-.01-7.849a2.084,2.084,0,0,1,.9-.873,10.3,10.3,0,0,0-.044,3.516,16.832,16.832,0,0,0,1.046,3.575A1.659,1.659,0,0,1,31,61.44a13.038,13.038,0,0,0-.054,1.333c0,1.243.5,1.895,1.574,2.039.014,0,.033,0,.048,0,.033.235.082.729.12,1.219h-.043c-.054,0-.1,0-.149,0a3.567,3.567,0,0,1-1.6-.317" transform="translate(4.108 10.133)" fill="#1a1818"/>
        <path id="Path_2646" data-name="Path 2646" d="M34.084,65.314l0,0a2.443,2.443,0,0,1-.495-.7,1.53,1.53,0,0,1-.474.643,1.366,1.366,0,0,0,.446,1.161,1.148,1.148,0,0,0,.528-1.1m0,0,0,0a2.443,2.443,0,0,1-.495-.7,1.53,1.53,0,0,1-.474.643,1.366,1.366,0,0,0,.446,1.161,1.148,1.148,0,0,0,.528-1.1m1.986,5.176-.312-.417.518.033a2.649,2.649,0,0,0,1.482-.422L34.5,68.5l.13-.24a9.2,9.2,0,0,0,.864-2.451l.01-.139v-.01a15.688,15.688,0,0,1,.173-1.641,9.108,9.108,0,0,0-.423-2.725l-.133-.052-.014,0,.11.5-.273.863-.9-.235-.418-.667.4-.254.321.5.274.072.1-.307-.259-1.276,1.963.8-.231-1.032-.777-1.444a1.509,1.509,0,0,1-.59,1.051l-.3-.369a.933.933,0,0,0,.36-1.08l.447-.187a1.308,1.308,0,0,1,.086.422l1.541.322a3.088,3.088,0,0,0-.428-.854,1.491,1.491,0,0,0-.287-.273,2.379,2.379,0,0,1-.408-.393l-.158-.2.206-.149a3.806,3.806,0,0,0,.815-.831,9.975,9.975,0,0,1-1.674-.178c-.935-.153-2.216-.354-2.437.03a.744.744,0,0,1-.705.489,1.4,1.4,0,0,0-1.224.452,1.47,1.47,0,0,0-.192,1.021,1.236,1.236,0,0,1,.878-.1c.873-.058,1.061.417,1.08.47s.076.509.13.84l.038.235-.893.163,1.761.13-1.512,1.156-.47.807.254.024.629-.231.225.418a2.784,2.784,0,0,0-1.162,2.034A13.493,13.493,0,0,1,31.6,65.66v.01c.039.154.087.307.139.466a3.728,3.728,0,0,0,.475,1.1,3.92,3.92,0,0,1,.446.853l.1.235L29.718,69.4l1.714.854-.735,1.1,2.37-.864-.019.369a6.349,6.349,0,0,1-1.094,2.995l.744-.163.222-.063,0,.016.321,1.314c.025.076.058.148.087.22l.216.336.173-.274a2.267,2.267,0,0,0,.1-.249L34.1,73.71h0V73.7l.23.048s.014,0,.035.01l1.078.192A6.7,6.7,0,0,1,34.3,70.8l-.038-.45,2.456,1.376a4,4,0,0,0-.642-1.233M32.692,59.236a2.5,2.5,0,0,1-.162-.945.945.945,0,0,0-.466-.413,1.429,1.429,0,0,0-1.161.039l-.092-.226a1.693,1.693,0,0,1,1.348-.033,1.127,1.127,0,0,1,.6.571l.01.039a2.237,2.237,0,0,0,.149.882Zm.571-2.3c-.01-.01-.019-.014-.024-.024l-.114.052-.01,0a.174.174,0,0,1,.119.154.2.2,0,0,1-.216.178.243.243,0,0,1-.192-.1.918.918,0,0,1,0,.119h-.479a2.287,2.287,0,0,0-.011-.235c-.014-.139-.033-.4.3-.465.1-.03.154-.049.192-.058a.5.5,0,0,0,.092-.038l.154-.071a.441.441,0,0,1,.493.11.327.327,0,0,0,.068.048c.268-.038.417-.062.508-.076.116-.024.279-.048.365.111a.268.268,0,0,1-.072.325,1,1,0,0,0-.284.783h-.479a1.748,1.748,0,0,1,.13-.686c-.02,0-.039,0-.058,0a.515.515,0,0,1-.485-.139m.394,9.711-.116.1-.076-.077a1.827,1.827,0,0,1-.62-1.227l-.057-.044a1.242,1.242,0,0,1-.427-1.665l.206.12a.961.961,0,0,0,.3,1.3,1.153,1.153,0,0,0,.528-1.214l.087-.014a.41.41,0,0,1,.014-.081l.23.062a1.383,1.383,0,0,0,.452,1.162,1.147,1.147,0,0,0,.517-1.2l.241-.038a1.386,1.386,0,0,1-.615,1.435,1.421,1.421,0,0,1-.661,1.4m.422-1.338a2.443,2.443,0,0,1-.495-.7,1.53,1.53,0,0,1-.474.643,1.366,1.366,0,0,0,.446,1.161,1.148,1.148,0,0,0,.528-1.1Z" transform="translate(5.695 10.706)" fill="#0092df"/>
        <path id="Path_2647" data-name="Path 2647" d="M40.521,64.292a5.877,5.877,0,0,1-1.041.029l.01-.479c.01,0,.414-.011,1.013-.035a5.847,5.847,0,0,0,3.746-1.991,2.68,2.68,0,0,0,.634-2.077,25.3,25.3,0,0,0-2.673,1.53c-.465.293-.912.577-1.372.831a3.392,3.392,0,0,1-1.162.552l-.148-.455a9.38,9.38,0,0,0,1.064-.509,3.483,3.483,0,0,0,1.2-2.212,5.172,5.172,0,0,0-.393-3.133,22.457,22.457,0,0,0-1.046,2.572A8.3,8.3,0,0,1,38.971,61.8l-.533.452a2.7,2.7,0,0,0,1.687-1.3l.214.107A2.858,2.858,0,0,1,38.2,62.525h0a4.727,4.727,0,0,1-.076.677l0,.018a6.657,6.657,0,0,0,3.095-.409l.132.2a6,6,0,0,1-2.629.473,6.481,6.481,0,0,1-.651-.032,4.789,4.789,0,0,1-.3.888h0c1.264,1.08,4.029.919,4.059.919l.015.24c-.027,0-.2.012-.468.012a6.469,6.469,0,0,1-3.708-.952l0,.006a3.294,3.294,0,0,1-.291.464,9.124,9.124,0,0,0,1.69,1.854l-.13.2a9.359,9.359,0,0,1-1.718-1.858h0a1.7,1.7,0,0,1-.249.235,3.172,3.172,0,0,1-1.056.331c-.571.964-.62,1.761-.139,2.2a1.077,1.077,0,0,0,1.31.087c.418-.312.452-.916.1-1.669l.412-.245c1.521,2.083,2.72,2.61,4.289,1.818A10.647,10.647,0,0,1,39.2,66.288l-.788-.786,1.041.393c1.631.618,3.992.834,5.325-.144a2.21,2.21,0,0,0,.9-1.818c-1.333.192-3.775.307-5.157.36" transform="translate(6.792 10.797)" fill="#0092df"/>
        <path id="Path_2648" data-name="Path 2648" d="M36.509,68.171l-.144-.067-1,.178.518.9.143.073,1.608.772-1.333.964.374,1.42.317-.935,1.386-.7,2.058.772.537.72-.024-1.525-2.178-.829,2.576-.854h.3l-.94-.556-1.991.4.3-1.271.71-.533-1.439.073-.48,1.625Z" transform="translate(6.777 12.858)" fill="#0092df"/>
        <path id="Path_2649" data-name="Path 2649" d="M35.452,71.447l-.21-.035a3.818,3.818,0,0,0,2.474,1.63.122.122,0,0,1,.111.129.12.12,0,0,1-.12.111H37.7a4.23,4.23,0,0,1-2.809-1.936l-.147-.029c-.015.079-.03.153-.043.224-.039.2-.074.38-.129.565a6.332,6.332,0,0,0,1.4,2.381.12.12,0,0,1-.074.214.112.112,0,0,1-.073-.025,6.191,6.191,0,0,1-1.385-2.216l-.024.039a3.589,3.589,0,0,1-.4.641l-.079.126c0,.182.008.435.015.725a20.884,20.884,0,0,1-.024,2.943l-.1.3-.119-.3a21.086,21.086,0,0,1-.021-3.431l.008-.259-.046-.074-.007-.007a2.672,2.672,0,0,1-.454-.691,6.153,6.153,0,0,1-1.378,2.2.112.112,0,0,1-.073.025.118.118,0,0,1-.1-.046.12.12,0,0,1,.021-.168,6.308,6.308,0,0,0,1.392-2.349,7.2,7.2,0,0,1-.182-.719c-.011-.05-.021-.1-.033-.15l-.038.008a4.284,4.284,0,0,1-2.86,2h-.01a.12.12,0,0,1-.008-.24,3.861,3.861,0,0,0,2.512-1.681c-.074.014-.148.03-.219.041A7.948,7.948,0,0,1,28.3,73a2.263,2.263,0,0,0,1.488.773,3.235,3.235,0,0,0,2.253-1.058l.381.281A6.869,6.869,0,0,1,30.1,75.44a2.126,2.126,0,0,0,1.279-.035,2.251,2.251,0,0,0,1.226-1.432l.458.142a5.131,5.131,0,0,0,.754,4.758,5.131,5.131,0,0,0,.754-4.758l.458-.142a2.258,2.258,0,0,0,1.226,1.432,2.129,2.129,0,0,0,1.28.035A6.89,6.89,0,0,1,35.212,73l.381-.281a3.262,3.262,0,0,0,2.253,1.058A2.263,2.263,0,0,0,39.335,73a7.735,7.735,0,0,1-3.884-1.554" transform="translate(5.424 13.657)" fill="#0092df"/>
        <path id="Path_2650" data-name="Path 2650" d="M31.607,65.794a3.178,3.178,0,0,1-1.056-.331,1.693,1.693,0,0,1-.249-.235v0a9.334,9.334,0,0,1-1.72,1.859l-.13-.2a9.1,9.1,0,0,0,1.691-1.855,3.2,3.2,0,0,1-.292-.462l0-.006a6.471,6.471,0,0,1-3.71.952c-.266,0-.44-.011-.467-.013l.015-.238c.03,0,2.794.161,4.059-.92a4.789,4.789,0,0,1-.3-.888c-.2.019-.417.032-.651.032a6.013,6.013,0,0,1-2.63-.473l.133-.2a6.639,6.639,0,0,0,3.095.41l0-.018a4.746,4.746,0,0,1-.076-.677h0a2.862,2.862,0,0,1-2.139-1.473l.216-.107a2.707,2.707,0,0,0,1.686,1.3l-.531-.452a8.279,8.279,0,0,1-1.376-2.884,22.544,22.544,0,0,0-1.046-2.572,5.174,5.174,0,0,0-.393,3.133,3.489,3.489,0,0,0,1.194,2.213,9.288,9.288,0,0,0,1.065.508l-.149.456a3.4,3.4,0,0,1-1.161-.552c-.46-.255-.907-.537-1.372-.831a25.418,25.418,0,0,0-2.673-1.53,2.679,2.679,0,0,0,.633,2.077,5.853,5.853,0,0,0,3.748,1.991c.6.024,1,.033,1.012.033l.011.48A5.878,5.878,0,0,1,27,64.293c-1.382-.052-3.824-.168-5.157-.36a2.209,2.209,0,0,0,.9,1.818c1.333.978,3.694.763,5.325.144L29.1,65.5l-.786.788a10.744,10.744,0,0,1-2.678,1.693c1.569.791,2.769.263,4.29-1.818l.412.244c-.355.753-.322,1.358.1,1.671a1.077,1.077,0,0,0,1.31-.087c.479-.436.431-1.233-.139-2.2" transform="translate(4.185 10.797)" fill="#0092df"/>
        <path id="Path_2651" data-name="Path 2651" d="M31.562,65.941h.043c-.038-.49-.086-.983-.119-1.219-.014,0-.035,0-.049,0-1.07-.143-1.573-.8-1.573-2.039,0-.7.029-1.08.052-1.333a1.659,1.659,0,0,0-.106-.878,16.821,16.821,0,0,1-1.045-3.574,10.283,10.283,0,0,1,.043-3.518,2.1,2.1,0,0,0-.9.873c-.907,1.482-1.291,4.572.01,7.849l.3.747c.029,0,.056.006.083.008a6.864,6.864,0,0,1,.249-1.71h0c-1.17-3.077-1.008-3.213-.848-3.34l.31-.013-.132.2.079.214a.2.2,0,0,0,.112-.136,12.016,12.016,0,0,0,.958,2.983l-.228.087h0l.23.071a5.754,5.754,0,0,0-.182,2.471,3.235,3.235,0,0,0,.954,1.947,3.573,3.573,0,0,0,1.6.317c.048,0,.1,0,.149,0" transform="translate(5.19 10.228)" fill="#0092df"/>
        <path id="Path_2652" data-name="Path 2652" d="M37.735,63.68a5.729,5.729,0,0,0-.182-2.47l.23-.073h0l-.226-.087a12.036,12.036,0,0,0,.957-2.981.2.2,0,0,0,.112.135l.08-.215-.132-.2.309.014c.16.126.323.262-.848,3.339h0a7.115,7.115,0,0,1,.249,1.71l.082-.007.3-.748c1.3-3.277.916-6.366.01-7.849a2.081,2.081,0,0,0-.9-.872,10.276,10.276,0,0,1,.043,3.516,16.731,16.731,0,0,1-1.044,3.574,1.65,1.65,0,0,0-.107.878,13.209,13.209,0,0,1,.052,1.335c0,1.242-.5,1.895-1.573,2.039h-.018a9.351,9.351,0,0,1-.107,1.221c.052,0,.1,0,.149,0a3.587,3.587,0,0,0,1.6-.316,3.245,3.245,0,0,0,.953-1.948" transform="translate(6.713 10.228)" fill="#0092df"/>
        <path id="Path_2653" data-name="Path 2653" d="M30.084,71.472l.322.935.374-1.42-1.333-.964,1.4-.672.355-.173.537-.935-.7-.346-.129.068-1.641.834-.48-1.631L27.349,67.1l.71.533.3,1.271-1.986-.4-.94.556.34.01,2.538.844-2.183.831L26.1,72.268l.542-.72.033-.014,2.02-.758Z" transform="translate(4.873 12.858)" fill="#0092df"/>
        <path id="Path_2654" data-name="Path 2654" d="M33.326,56.909a.519.519,0,0,1-.486-.143l-.026-.02L32.7,56.8l-.011,0a.174.174,0,0,1,.122.155.2.2,0,0,1-.218.174.225.225,0,0,1-.191-.094c0,.037,0,.075,0,.12h-.48l1.327.433a1.773,1.773,0,0,1,.126-.688l-.055.007" transform="translate(6.118 10.874)" fill="#fff"/>
        <path id="Path_2655" data-name="Path 2655" d="M34.09,56.562c-.085-.161-.247-.135-.366-.113-.088.014-.237.039-.509.079a.4.4,0,0,1-.064-.049.445.445,0,0,0-.493-.108l-.155.072a.466.466,0,0,1-.091.036c-.037.011-.1.029-.192.061-.334.06-.312.323-.3.464,0,.058.011.135.011.235h.479c0-.045,0-.083,0-.12a.227.227,0,0,0,.192.1.2.2,0,0,0,.217-.175.174.174,0,0,0-.122-.155l.011,0,.111-.051a.253.253,0,0,1,.026.021.525.525,0,0,0,.486.142l.055-.006a1.758,1.758,0,0,0-.126.686h.48a1.013,1.013,0,0,1,.279-.784.262.262,0,0,0,.074-.323" transform="translate(6.116 10.795)" fill="#1a1818"/>
        <path id="Path_2656" data-name="Path 2656" d="M34.3,62.59a1.15,1.15,0,0,1-.52,1.206,1.381,1.381,0,0,1-.449-1.163l-.231-.062c-.007.027-.01.055-.014.082L33,62.666a1.158,1.158,0,0,1-.529,1.214.961.961,0,0,1-.3-1.3l-.21-.119a1.242,1.242,0,0,0,.43,1.665l.058.048a1.816,1.816,0,0,0,.615,1.225l.077.076.114-.1a1.418,1.418,0,0,0,.666-1.4,1.383,1.383,0,0,0,.61-1.434Zm-1.137,2.563a1.377,1.377,0,0,1-.448-1.163h0a1.523,1.523,0,0,0,.479-.642,2.3,2.3,0,0,0,.495.7l.006.007a1.148,1.148,0,0,1-.529,1.1" transform="translate(6.093 11.97)" fill="#1a1818"/>
        <path id="Path_2657" data-name="Path 2657" d="M32.586,57.958a1.127,1.127,0,0,0-.6-.567,1.665,1.665,0,0,0-1.348.033l.091.223a1.428,1.428,0,0,1,1.159-.037.938.938,0,0,1,.466.411,2.521,2.521,0,0,0,.161.945l.225-.083A2.287,2.287,0,0,1,32.593,58Z" transform="translate(5.871 10.974)" fill="#1a1818"/>
        <path id="Path_2658" data-name="Path 2658" d="M9.682,30.747h0a4.058,4.058,0,0,0,.4.1,4.324,4.324,0,0,0,1.617,0,4.058,4.058,0,0,0,.4-.1h0a2.9,2.9,0,0,0,.371-.139,1.628,1.628,0,0,0,1.142-1.362c0-.926-1.223-1.679-2.725-1.679S8.17,28.32,8.17,29.246a1.628,1.628,0,0,0,1.142,1.362,2.9,2.9,0,0,0,.371.139" transform="translate(1.566 5.283)" fill="#0092df"/>
        <path id="Path_2659" data-name="Path 2659" d="M11.049,52.566l7.22-18.5-3.848-.2a2.37,2.37,0,0,1,.423,1.631A2.828,2.828,0,0,1,13.587,37.3a2.25,2.25,0,0,1,.772,1.66,2.821,2.821,0,0,1-.912,2.134l.043.25c.206,1.2.35,2.006-.561,2.955,0,.235.01.441.01.623.029,1.368-.019,1.584-1.329,2.673l-.067.057h-.2Z" transform="translate(2.117 6.489)" fill="#0092df"/>
        <path id="Path_2660" data-name="Path 2660" d="M11.223,47.809l1.046-17.262a4.556,4.556,0,0,1-2.931.086l1.391,17.176.038.48.245,3.022.182-3.022Z" transform="translate(1.789 5.854)" fill="#0092df"/>
        <path id="Path_2661" data-name="Path 2661" d="M11.228,47.653h-.071l-.068-.057c-1.31-1.089-1.352-1.3-1.329-2.673,0-.182.01-.388.01-.623-.907-.951-.767-1.756-.556-2.955l.043-.25a2.824,2.824,0,0,1-.912-2.135,2.267,2.267,0,0,1,.767-1.66,2.829,2.829,0,0,1-1.251-1.808,2.344,2.344,0,0,1,.422-1.631l-3.853.2,7.187,18.4Z" transform="translate(0.849 6.489)" fill="#0092df"/>
        <path id="Path_2662" data-name="Path 2662" d="M14.769,34.606l.349.422a2.171,2.171,0,0,1,.629,1.679,2.628,2.628,0,0,1-1.314,1.669l-.3.2.3.2a1.783,1.783,0,0,1,.825,1.482,2.32,2.32,0,0,1-.839,1.828l-.116.091.091.533c.212,1.2.317,1.8-.493,2.61l-.073.068v.1c0,.279,0,.523.01.729.03,1.2.03,1.3-1.078,2.237l1.059-17.5a1.959,1.959,0,0,0,1.113-1.631c0-1.2-1.438-2.159-3.2-2.159s-3.21.964-3.21,2.159a2.086,2.086,0,0,0,1.378,1.771l1.391,17.233a1.916,1.916,0,0,1-.935-2.112c0-.206.01-.45.01-.729v-.1l-.067-.068c-.81-.81-.705-1.41-.495-2.61l.092-.533-.12-.091a2.327,2.327,0,0,1-.834-1.828,1.771,1.771,0,0,1,.825-1.482l.3-.2-.3-.2a2.649,2.649,0,0,1-1.319-1.669,2.21,2.21,0,0,1,.628-1.679l.355-.422-5.57.292L12.1,56.018,20.339,34.9Zm-6.376.537a2.351,2.351,0,0,0-.423,1.631,2.837,2.837,0,0,0,1.252,1.809,2.263,2.263,0,0,0-.767,1.66,2.821,2.821,0,0,0,.912,2.134l-.043.25c-.211,1.2-.35,2.006.556,2.955,0,.235,0,.441-.01.623-.024,1.368.019,1.584,1.329,2.673l.067.057h.073l.388,4.812L4.54,35.345Zm3.425,13.793-.038-.479L10.389,31.281a4.546,4.546,0,0,0,2.931-.087L12.274,48.457l-.029.479-.182,3.023Zm1.171-.057c1.31-1.089,1.357-1.3,1.329-2.673,0-.182,0-.388-.01-.623.912-.95.767-1.756.561-2.955l-.043-.25a2.821,2.821,0,0,0,.912-2.134,2.25,2.25,0,0,0-.772-1.66,2.822,2.822,0,0,0,1.256-1.809,2.363,2.363,0,0,0-.422-1.631l3.848.2-7.22,18.5.3-4.913h.2ZM9,29.323c0-.926,1.224-1.679,2.73-1.679s2.725.753,2.725,1.679a1.63,1.63,0,0,1-1.142,1.362,3.177,3.177,0,0,1-.371.139h0a4.061,4.061,0,0,1-.4.1,4.318,4.318,0,0,1-1.616,0,4.085,4.085,0,0,1-.4-.1h0a3.178,3.178,0,0,1-.371-.139A1.628,1.628,0,0,1,9,29.323" transform="translate(0.739 5.205)" fill="#1a1818"/>
        <path id="Path_2663" data-name="Path 2663" d="M10.882,30.358c-.055,0-.111,0-.168,0h0c-.888,0-1.872-.536-1.872-1.4H9.8c0,.189.465.446.939.446a1.084,1.084,0,0,0,.72-.139.339.339,0,0,0,.1-.265l.959.039a1.3,1.3,0,0,1-.409.934,1.757,1.757,0,0,1-1.223.393" transform="translate(1.694 5.547)" fill="#1a1818"/>
        <path id="Path_2664" data-name="Path 2664" d="M54.373,30.747h0a4.057,4.057,0,0,0,.4.1,4.324,4.324,0,0,0,1.617,0,4.058,4.058,0,0,0,.4-.1h0a2.9,2.9,0,0,0,.371-.139,1.628,1.628,0,0,0,1.142-1.362c0-.926-1.223-1.679-2.725-1.679s-2.729.753-2.729,1.679A1.628,1.628,0,0,0,54,30.608a2.9,2.9,0,0,0,.371.139" transform="translate(10.13 5.283)" fill="#0092df"/>
        <path id="Path_2665" data-name="Path 2665" d="M55.739,52.566l7.221-18.5-3.849-.2a2.37,2.37,0,0,1,.423,1.631A2.828,2.828,0,0,1,58.277,37.3a2.25,2.25,0,0,1,.772,1.66,2.821,2.821,0,0,1-.912,2.134l.043.25c.206,1.2.35,2.006-.561,2.955,0,.235.01.441.01.623.029,1.368-.019,1.584-1.329,2.673l-.067.057h-.2Z" transform="translate(10.681 6.489)" fill="#0092df"/>
        <path id="Path_2666" data-name="Path 2666" d="M55.914,47.809,56.96,30.547a4.556,4.556,0,0,1-2.931.086L55.42,47.809l.038.48.245,3.022.182-3.022Z" transform="translate(10.354 5.854)" fill="#0092df"/>
        <path id="Path_2667" data-name="Path 2667" d="M55.919,47.653h-.073l-.068-.057c-1.308-1.089-1.351-1.3-1.327-2.673,0-.182.01-.388.01-.623-.908-.951-.767-1.756-.558-2.955l.044-.25a2.824,2.824,0,0,1-.912-2.135A2.266,2.266,0,0,1,53.8,37.3a2.831,2.831,0,0,1-1.25-1.808,2.344,2.344,0,0,1,.422-1.631l-3.854.2,7.188,18.4Z" transform="translate(9.413 6.489)" fill="#0092df"/>
        <path id="Path_2668" data-name="Path 2668" d="M59.46,34.606l.349.422a2.171,2.171,0,0,1,.629,1.679,2.628,2.628,0,0,1-1.314,1.669l-.3.2.3.2a1.783,1.783,0,0,1,.825,1.482,2.32,2.32,0,0,1-.839,1.828l-.116.091.092.533c.211,1.2.316,1.8-.495,2.61l-.073.068v.1c0,.279,0,.523.01.729.03,1.2.03,1.3-1.078,2.237l1.059-17.5a1.959,1.959,0,0,0,1.113-1.631c0-1.2-1.438-2.159-3.2-2.159s-3.21.964-3.21,2.159a2.086,2.086,0,0,0,1.378,1.771l1.392,17.233a1.915,1.915,0,0,1-.937-2.112c0-.206.01-.45.01-.729v-.1l-.067-.068c-.81-.81-.705-1.41-.495-2.61l.092-.533-.12-.091a2.327,2.327,0,0,1-.834-1.828,1.771,1.771,0,0,1,.825-1.482l.3-.2-.3-.2a2.649,2.649,0,0,1-1.319-1.669,2.21,2.21,0,0,1,.628-1.679l.355-.422-5.57.292,8.243,21.12L65.03,34.9Zm-6.376.537a2.351,2.351,0,0,0-.423,1.631,2.837,2.837,0,0,0,1.252,1.809,2.263,2.263,0,0,0-.767,1.66,2.821,2.821,0,0,0,.912,2.134l-.043.25c-.211,1.2-.35,2.006.556,2.955,0,.235,0,.441-.01.623-.024,1.368.019,1.584,1.329,2.673l.067.057h.073l.388,4.812-7.187-18.4Zm3.425,13.793-.038-.479L55.08,31.281a4.546,4.546,0,0,0,2.931-.087L56.965,48.457l-.029.479-.182,3.023Zm1.171-.057c1.31-1.089,1.357-1.3,1.329-2.673,0-.182,0-.388-.01-.623.912-.95.767-1.756.561-2.955l-.043-.25a2.821,2.821,0,0,0,.912-2.134,2.25,2.25,0,0,0-.772-1.66,2.829,2.829,0,0,0,1.257-1.809,2.37,2.37,0,0,0-.423-1.631l3.848.2-7.22,18.5.3-4.913h.2ZM53.688,29.323c0-.926,1.224-1.679,2.73-1.679s2.725.753,2.725,1.679A1.63,1.63,0,0,1,58,30.685a3.179,3.179,0,0,1-.371.139h0a4.061,4.061,0,0,1-.4.1,4.269,4.269,0,0,1-.806.076,4.32,4.32,0,0,1-.81-.076,4.085,4.085,0,0,1-.4-.1h0a3.118,3.118,0,0,1-.372-.139,1.628,1.628,0,0,1-1.142-1.362" transform="translate(9.303 5.205)" fill="#1a1818"/>
        <path id="Path_2669" data-name="Path 2669" d="M55.573,30.358c-.055,0-.111,0-.168,0h0c-.888,0-1.872-.536-1.872-1.4h.959c0,.189.465.446.939.446a1.086,1.086,0,0,0,.72-.139.339.339,0,0,0,.1-.265l.959.039a1.3,1.3,0,0,1-.41.934,1.752,1.752,0,0,1-1.221.393" transform="translate(10.258 5.547)" fill="#1a1818"/>
        <path id="Path_2670" data-name="Path 2670" d="M30.006,14.28a2.976,2.976,0,0,1-.285-.1l-.485.841c-.454.785-.516,1.426-.167,1.716a.849.849,0,0,0,1.057-.089c.533-.46.484-1.343-.131-2.363Z" transform="translate(5.528 2.718)" fill="#0092df"/>
        <path id="Path_2671" data-name="Path 2671" d="M30.158,14.277l.055-.055-.046-.026a1.724,1.724,0,0,1-.286-.273l-.011.011a8.5,8.5,0,0,1-1.9,1.655l-.048-.235a11.151,11.151,0,0,0,1.778-1.59l.032-.033c-.056-.077-.113-.162-.173-.262l-.114.077-1.058.705c-.2.137-.506.352-.857.6-.72.511-1.653,1.173-2.37,1.6,1.26.337,2.541.28,4.405-1.585Z" transform="translate(4.821 2.581)" fill="#0092df"/>
        <path id="Path_2672" data-name="Path 2672" d="M33.19,14.533a1.82,1.82,0,0,1-1.753-1.712v0a2.834,2.834,0,0,1-.017-.316c0-1.381-.657-1.885-1.652-2.648-.155-.118-.315-.242-.48-.374-1.316-.876-3.955-2.636-5.182-4.669-.312,2.137.815,4.063,3.5,6.017l1.556,1.131-1.785-.715a39.8,39.8,0,0,1-7.114-4.4c.086,2.365,3.981,4.587,7.777,5.926l1.32.466h-1.4a35.072,35.072,0,0,1-6.631-1.318c1.107,1.507,3.231,1.8,5.467,2.109.484.066.97.133,1.45.213l1.05.175-1.022.292a30.456,30.456,0,0,1-4.793.978c1.412,1.79,2.9,1.072,4.473.316.38-.182.775-.372,1.156-.515l1.174-.441.141-.052c-.063-.12-.126-.262-.188-.413a5.42,5.42,0,0,1-2.062.939l-.058-.232a5.1,5.1,0,0,0,2.032-.94c-.052-.151-.1-.319-.143-.5a11.336,11.336,0,0,1-1.327.082,8.327,8.327,0,0,1-1.418-.1l.045-.237a10.017,10.017,0,0,0,2.645.03l0-.019c-.082-.413-.137-.719-.174-.952a9.086,9.086,0,0,1-3.26-.9l.12-.209a8.8,8.8,0,0,0,3.1.87c-.025-.18-.035-.286-.038-.341a5.485,5.485,0,0,0-2.112-2.319A8.951,8.951,0,0,1,25.738,8.4l.368-.307a9.568,9.568,0,0,0,1.733,1.246,5.8,5.8,0,0,1,2.319,2.587l-.224.083h.24a10.779,10.779,0,0,0,.242,1.5,4.5,4.5,0,0,0,.462,1.319l.18-.068-.16.106a2.046,2.046,0,0,0,.469.592s.05.027.145.067l.278-.278-.181.315a3.52,3.52,0,0,0,.573.147c.039.007.085.012.126.018.087.013.179.023.276.031.044,0,.088.007.135.008a4.461,4.461,0,0,0,.474,0c0-.026,0-.052,0-.079a5.545,5.545,0,0,1-.008-1.151" transform="translate(3.883 0.922)" fill="#0092df"/>
        <path id="Path_2673" data-name="Path 2673" d="M36.063,20.574l-.312-.417.518.033a2.668,2.668,0,0,0,1.482-.417l-3.258-1.186.13-.244a9.306,9.306,0,0,0,.873-2.491l0-.067c-.12-1.7-.077-1.751,0-1.837l.067-.076.1,0h0a9.119,9.119,0,0,0-.428-2.514l-.1-.043-.033.01.1.484-.273.864-.9-.235-.418-.667.4-.259.321.509.274.071.1-.307L34.446,10.5l1.967.831L36.182,10.3l-.877-1.627,1.641.341a3.154,3.154,0,0,0-.428-.854,1.651,1.651,0,0,0-.287-.273,2.538,2.538,0,0,1-.408-.388l-.158-.2.206-.144a3.889,3.889,0,0,0,.815-.835,9.974,9.974,0,0,1-1.674-.178c-.883-.143-2.072-.33-2.389-.033a.5.5,0,0,1-.072.336.493.493,0,0,1-.413.216,1.908,1.908,0,0,0-1.549.672,1.233,1.233,0,0,0-.173.748,1.789,1.789,0,0,1,.441-.048c1.325-.068,1.536.336,1.565.509l.029.178-.057.029a2.789,2.789,0,0,0,.139.561l.091.263-.878.158,1.694.149-1.5,1.146-.512.888.129.048.959-.45.288.369a4.613,4.613,0,0,0-.912,2.159,6.136,6.136,0,0,1-.029,1.386,4.52,4.52,0,0,0,.182.854,5.024,5.024,0,0,0,.49,1.118,1.64,1.64,0,0,1,.259,1.056v.182l-3.033.868,1.666.831-.735,1.1,2.37-.859-.019.365a6.349,6.349,0,0,1-1.094,2.995l.7-.149.077-.019.187-.058,0,.015.11.446.206.859,0,.01.035.143.048.077.22.341.173-.279.067-.1.035-.144v0l.167-.748.116-.523h0v-.01l.206.048.082.014.072.014.077.014.906.158a6.705,6.705,0,0,1-1.156-3.152l-.038-.452,2.456,1.378a4,4,0,0,0-.642-1.233M34.983,8.412l.225-.092a1.3,1.3,0,0,1-.469,1.5L34.59,9.63a1.054,1.054,0,0,0,.393-1.218m-2.264.921a2.53,2.53,0,0,1-.163-.945c-.222-.58-.523-.537-1.238-.433-.144.024-.307.049-.48.068l-.029-.241c.173-.019.331-.043.471-.062.734-.111,1.218-.182,1.511.6l0,.044a2.254,2.254,0,0,0,.149.882Zm-.562-1.861c0-.1,0-.178-.01-.236-.01-.138-.033-.4.3-.465.092-.029.154-.048.192-.057l.092-.039.153-.067a.443.443,0,0,1,.495.106.321.321,0,0,0,.063.048c.479-.068.7-.092.82.091.106.158.01.312-.067.437a1.269,1.269,0,0,0-.231.633l-.479-.033Zm1.493,9.259-.116.1-.076-.077a1.816,1.816,0,0,1-.62-1.232l-.033-.035a1.612,1.612,0,0,1-.585-1.473l.235.063a1.373,1.373,0,0,0,.447,1.165,1.149,1.149,0,0,0,.517-1.208l.049-.006a.684.684,0,0,1,.019-.1l.23.062a1.377,1.377,0,0,0,.452,1.162,1.139,1.139,0,0,0,.517-1.2l.241-.038a1.382,1.382,0,0,1-.615,1.435,1.421,1.421,0,0,1-.661,1.4m.422-1.338a2.358,2.358,0,0,1-.471-.648,1.584,1.584,0,0,1-.508.643,1.419,1.419,0,0,0,.455,1.113,1.144,1.144,0,0,0,.528-1.1Z" transform="translate(5.702 1.14)" fill="#0092df"/>
        <path id="Path_2674" data-name="Path 2674" d="M33.152,7.048a.485.485,0,0,1-.468-.145l-.025-.02-.051.023a.231.231,0,0,1,.145.2.259.259,0,0,1-.278.236.289.289,0,0,1-.224-.1v.054h-.48l1.327.415a1.669,1.669,0,0,1,.2-.678l-.148.018" transform="translate(6.088 1.319)" fill="#fff"/>
        <path id="Path_2675" data-name="Path 2675" d="M33.812,7.188c.076-.123.172-.276.069-.436-.117-.184-.34-.155-.821-.088a.4.4,0,0,1-.066-.049.442.442,0,0,0-.493-.108l-.154.07a.374.374,0,0,1-.089.036c-.037.011-.1.029-.194.061-.334.062-.311.323-.3.465,0,.057.011.133.011.235h.48V7.319a.288.288,0,0,0,.224.1.258.258,0,0,0,.278-.234.231.231,0,0,0-.145-.2l.051-.024.025.02a.485.485,0,0,0,.468.145l.148-.018a1.651,1.651,0,0,0-.2.678l.479.033a1.312,1.312,0,0,1,.231-.633" transform="translate(6.086 1.239)" fill="#1a1818"/>
        <path id="Path_2676" data-name="Path 2676" d="M35.45,21.532l-.207-.035a3.827,3.827,0,0,0,2.474,1.63.118.118,0,0,1,.11.129.12.12,0,0,1-.119.111H37.7a4.236,4.236,0,0,1-2.806-1.934l-.147-.03-.184.767,0,.006a6.354,6.354,0,0,0,1.41,2.4.121.121,0,0,1-.074.216.111.111,0,0,1-.073-.026,6.186,6.186,0,0,1-1.388-2.226c-.006.015-.011.029-.018.044l-.408.657,0,0-.069.113c0,.181.008.434.015.722a21.111,21.111,0,0,1-.024,2.945l-.106.3-.119-.3a21.3,21.3,0,0,1-.02-3.431l.007-.259-.044-.072-.01-.01-.444-.716A6.172,6.172,0,0,1,31.81,24.76a.115.115,0,0,1-.074.026.122.122,0,0,1-.1-.048.121.121,0,0,1,.023-.168,6.3,6.3,0,0,0,1.392-2.35v0a6.9,6.9,0,0,1-.182-.715c-.01-.048-.024-.1-.033-.149l-.041.01a4.287,4.287,0,0,1-2.858,2h-.011a.12.12,0,0,1-.118-.111.118.118,0,0,1,.11-.129,3.865,3.865,0,0,0,2.513-1.684c-.074.014-.149.031-.22.041a7.953,7.953,0,0,1-3.915,1.6,2.274,2.274,0,0,0,1.492.772,3.218,3.218,0,0,0,2.25-1.061l.384.282A6.887,6.887,0,0,1,30.1,25.524a2.1,2.1,0,0,0,1.281-.033,2.261,2.261,0,0,0,1.227-1.435l.456.144a5.141,5.141,0,0,0,.753,4.759,5.124,5.124,0,0,0,.753-4.759l.461-.144a2.255,2.255,0,0,0,1.223,1.435,2.105,2.105,0,0,0,1.281.033,6.887,6.887,0,0,1-2.326-2.443l.384-.282a3.215,3.215,0,0,0,2.255,1.061,2.264,2.264,0,0,0,1.487-.772,7.79,7.79,0,0,1-3.886-1.555" transform="translate(5.423 4.092)" fill="#0092df"/>
        <path id="Path_2677" data-name="Path 2677" d="M38.78,13.237l1.32-.466c3.8-1.339,7.691-3.562,7.775-5.926a39.819,39.819,0,0,1-7.113,4.4l-1.785.714,1.555-1.131c2.685-1.952,3.811-3.88,3.5-6.017-1.226,2.034-3.867,3.794-5.182,4.67-.164.132-.325.255-.479.373-1,.764-1.652,1.268-1.652,2.648,0,.1,0,.192-.014.288v.02a2.846,2.846,0,0,1-.046.282l-.007.03a2.007,2.007,0,0,1-.085.273l-.012.032a1.816,1.816,0,0,1-.131.259l-.019.03a1.589,1.589,0,0,1-.187.237l-.025.024a1.612,1.612,0,0,1-.251.209l-.026.015a1.865,1.865,0,0,1-.33.17l-.021.008a2.477,2.477,0,0,1-.424.123,9.324,9.324,0,0,1-.107,1.261c.136,0,.267,0,.39,0l.133-.01c.1-.007.191-.018.278-.03l.126-.018a3.72,3.72,0,0,0,.573-.147l-.181-.316.278.279a1.478,1.478,0,0,0,.144-.067,2,2,0,0,0,.47-.592l-.158-.106.18.068a4.517,4.517,0,0,0,.462-1.319,11.093,11.093,0,0,0,.242-1.5h.24l-.224-.085A5.8,5.8,0,0,1,40.3,9.338a9.415,9.415,0,0,0,1.731-1.245L42.4,8.4a8.907,8.907,0,0,1-1.847,1.347,5.478,5.478,0,0,0-2.11,2.319c0,.055-.014.16-.038.341a8.828,8.828,0,0,0,3.1-.87l.119.209a9.1,9.1,0,0,1-3.259.9c-.037.232-.092.539-.174.952l0,.018a9.982,9.982,0,0,0,2.647-.029l.045.236a8.188,8.188,0,0,1-1.418.106,11.356,11.356,0,0,1-1.329-.082c-.043.18-.091.348-.143.5a5.108,5.108,0,0,0,2.032.939l-.057.234a5.444,5.444,0,0,1-2.063-.939,4.245,4.245,0,0,1-.188.412l.142.054,1.174.44c.38.143.775.332,1.156.516,1.572.757,3.061,1.474,4.473-.316a30.713,30.713,0,0,1-4.793-.978l-1.024-.292,1.05-.175c.48-.081.968-.148,1.451-.214,2.236-.309,4.36-.6,5.467-2.108a35.064,35.064,0,0,1-6.633,1.318Z" transform="translate(6.713 0.922)" fill="#0092df"/>
        <path id="Path_2678" data-name="Path 2678" d="M36.617,14.182c-.079.031-.173.064-.285.1l.011.006c-.615,1.021-.665,1.9-.131,2.364a.847.847,0,0,0,1.056.089c.349-.29.288-.931-.166-1.717Z" transform="translate(6.869 2.718)" fill="#0092df"/>
        <path id="Path_2679" data-name="Path 2679" d="M38.5,14.252l-1.057-.705-.116-.077c-.06.1-.117.186-.173.263l.032.032a11.142,11.142,0,0,0,1.778,1.59l-.046.235a8.471,8.471,0,0,1-1.9-1.655l-.011-.011a1.665,1.665,0,0,1-.286.273l-.048.026.056.055.592.593c1.866,1.865,3.147,1.923,4.405,1.585-.717-.433-1.649-1.093-2.37-1.6-.349-.248-.651-.462-.857-.6" transform="translate(7.027 2.581)" fill="#0092df"/>
        <path id="Path_2680" data-name="Path 2680" d="M36.47,18.21a3.322,3.322,0,0,1-.889.244,4.548,4.548,0,0,1,.409.837l1.6.772-1.331.964.372,1.418.319-.935,1.387-.694,2.056.771.54.72-.024-1.523-2.181-.832,2.578-.853h.3l-.941-.555-1.989.4.3-1.273.709-.533-1.436.07-.479,1.627Z" transform="translate(6.818 3.284)" fill="#0092df"/>
        <path id="Path_2681" data-name="Path 2681" d="M30.087,21.554l.319.935.372-1.418-1.331-.965,1.394-.67.711-1.068-.646-.323-1.64.835-.479-1.63-1.437-.069.709.531.3,1.273-1.989-.4-.94.555.34.006L28.31,20l-2.182.831L26.1,22.352l.54-.721,2.056-.771Z" transform="translate(4.873 3.293)" fill="#0092df"/>
        <path id="Path_2682" data-name="Path 2682" d="M44.929,12.762c2.732-1.17,6.808-3.416,6.294-6.245l-.082-.45-.324.324a31.947,31.947,0,0,1-5.468,3.689c1.853-1.832,2.482-3.744,1.921-5.8l-.178-.649-.274.615C45.86,6.4,42.9,8.373,41.474,9.322c-.179.142-.337.263-.489.38-1.028.788-1.84,1.411-1.84,3.028a1.354,1.354,0,0,1-1.1,1.506,9.5,9.5,0,0,0-.336-2.2l1.276.537-.441-1.967-.427-.81,1.262.265,0-.288a2.679,2.679,0,0,0-.567-1.435,1.852,1.852,0,0,0-.379-.374c-.057-.048-.119-.1-.173-.149a3.278,3.278,0,0,0,.984-1.3l.182-.547-.518.259a4.882,4.882,0,0,1-1.924-.11c-1.31-.206-2.547-.408-2.931.268l-.052.1.038.1c0,.006.01.039.014.039A.133.133,0,0,1,34,6.631a2.33,2.33,0,0,0-1.923.893,1.893,1.893,0,0,0-.149,1.544.276.276,0,0,0,.024.067l.436-.192a.071.071,0,0,1-.014.073.857.857,0,0,1,.388-.058,3.9,3.9,0,0,1,.682.02,2.229,2.229,0,0,1-.614.24,1.735,1.735,0,0,1-.624.019c-.311-.029-.6-.057-.829.249l-.029.039.033.038a.435.435,0,0,0,.495.11,1.411,1.411,0,0,1,.47-.029.629.629,0,0,1,.346.13.565.565,0,0,0,.12.067l-.566.1.945.677.868.076-.556.427-.882,1.487.853.322.379-.182a5.457,5.457,0,0,0-.518,1.534,1.387,1.387,0,0,1-1.357-1.552c0-1.617-.811-2.24-1.84-3.028-.151-.117-.309-.238-.487-.38-1.424-.949-4.385-2.923-5.344-5.081l-.273-.615-.178.649c-.562,2.06.068,3.972,1.92,5.8a31.879,31.879,0,0,1-5.468-3.688l-.323-.324-.082.45c-.515,2.828,3.561,5.075,6.294,6.245a50.067,50.067,0,0,1-5.249-1.249l-.531-.16.249.5c1.092,2.183,3.658,2.537,6.14,2.88l.292.039a20.349,20.349,0,0,1-4,.683h-.448l.248.373a3.073,3.073,0,0,0,4.171,1.361,16.056,16.056,0,0,1-1.61,1.007l-.518.259.549.184a4.255,4.255,0,0,0,4.639-.823,1.26,1.26,0,0,0,.356,1.32,1.157,1.157,0,0,0,.745.257,1.439,1.439,0,0,0,.931-.353c.253-.218.964-1.018.17-2.6a5.333,5.333,0,0,0,1.038.029c.032.142.068.282.113.419a5.575,5.575,0,0,0,.533,1.2,1.1,1.1,0,0,1,.192.639l-3.872,1.1,1.372.685-1.225.624-.446-1.517L27.648,19.5l1.266.949.194.825-1.714-.342L25.62,21.982H26.78l1.883.628-1.705.649-.037,2.426.94-1.256,1.892-.709,1.206.6.452,1.325a10.276,10.276,0,0,1-1.986.419L29,26.119l.259.331a2.932,2.932,0,0,0,2.116,1.286,2.842,2.842,0,0,0,1.376-.293,5.155,5.155,0,0,1-1.731,1.3l-.461.2.447.235a2.866,2.866,0,0,0,2.159.168,2.231,2.231,0,0,0,.825-.561,5.124,5.124,0,0,0,1.267,4.106l.178.192.178-.192a5.124,5.124,0,0,0,1.267-4.106,2.27,2.27,0,0,0,.825.561,2.875,2.875,0,0,0,2.164-.168l.447-.235-.466-.2a5.134,5.134,0,0,1-1.727-1.3,2.785,2.785,0,0,0,1.372.293,2.921,2.921,0,0,0,2.116-1.286l.259-.331-.417-.052a11.629,11.629,0,0,1-1.77-.341l.479-1.4,1.2-.6,1.893.709.94,1.256-.038-2.426-1.705-.649,1.885-.628H45.5l-1.774-1.049-1.712.342.194-.825,1.264-.949-2.388.116-.448,1.519-.883-.422A2.541,2.541,0,0,0,40.3,20.3l.263-.268-3.493-1.267a9.846,9.846,0,0,0,.784-2.306,5.313,5.313,0,0,0,.94-.032c-.794,1.587-.083,2.387.17,2.6a1.435,1.435,0,0,0,.931.353,1.16,1.16,0,0,0,.745-.257,1.263,1.263,0,0,0,.355-1.32,4.257,4.257,0,0,0,4.64.823l.549-.184-.518-.259a15.92,15.92,0,0,1-1.61-1.007,3.07,3.07,0,0,0,4.17-1.361l.249-.373h-.448a20.345,20.345,0,0,1-4-.683l.292-.039c2.483-.342,5.05-.7,6.142-2.879l.249-.5-.533.16a49.682,49.682,0,0,1-5.248,1.249M26.175,18.341c.717-.431,1.649-1.093,2.37-1.6.349-.248.652-.462.857-.6l1.057-.705.116-.077c.06.1.117.185.173.262l-.032.033a11.123,11.123,0,0,1-1.778,1.588l.046.236a8.472,8.472,0,0,0,1.9-1.655l.012-.011a1.572,1.572,0,0,0,.286.273s.019.012.046.026l-.055.055-.593.593c-1.866,1.865-3.146,1.922-4.405,1.585m5.673.33a.847.847,0,0,1-1.057.091c-.348-.29-.286-.931.167-1.717l.485-.84c.077.031.173.064.285.1l-.011.006c.615,1.021.665,1.9.131,2.363m1.423-2.681c-.17.008-.327,0-.474,0l-.135-.01c-.1-.008-.191-.018-.276-.031-.043-.006-.087-.011-.126-.018a3.519,3.519,0,0,1-.573-.147l.181-.315-.279.278c-.094-.039-.144-.067-.144-.067a2,2,0,0,1-.47-.592l.158-.1-.18.067a4.543,4.543,0,0,1-.462-1.318,11.424,11.424,0,0,1-.242-1.5h-.238l.223-.085a5.793,5.793,0,0,0-2.318-2.587,9.354,9.354,0,0,1-1.733-1.246l-.369.307a9,9,0,0,0,1.847,1.345,5.485,5.485,0,0,1,2.112,2.319c0,.055.013.161.038.341a8.8,8.8,0,0,1-3.1-.87l-.119.209a9.086,9.086,0,0,0,3.26.9c.037.234.091.539.174.952l0,.019a10.036,10.036,0,0,1-2.647-.029l-.044.236a8.19,8.19,0,0,0,1.417.1,11.341,11.341,0,0,0,1.329-.082c.043.18.091.348.143.5a5.108,5.108,0,0,1-2.032.94l.058.232a5.428,5.428,0,0,0,2.062-.939,4.271,4.271,0,0,0,.188.413l-.142.054-1.173.44c-.381.143-.776.332-1.156.516-1.572.757-3.062,1.473-4.473-.317a30.4,30.4,0,0,0,4.792-.978l1.024-.292-1.05-.175c-.48-.08-.968-.147-1.45-.213-2.237-.309-4.36-.6-5.468-2.109a34.986,34.986,0,0,0,6.633,1.318h1.4L28.115,13c-3.8-1.339-7.691-3.561-7.775-5.926a39.79,39.79,0,0,0,7.113,4.4l1.786.715-1.556-1.131C25,9.1,23.872,7.176,24.184,5.039c1.227,2.034,3.867,3.793,5.182,4.67.164.131.325.255.48.373.994.763,1.652,1.268,1.652,2.648,0,.1,0,.21.015.317h0a1.821,1.821,0,0,0,1.753,1.712,5.384,5.384,0,0,0,.008,1.151c0,.027,0,.052,0,.079m-.742,9.17a6.5,6.5,0,0,1-.938.424l.528-2.013-1.138-.825.667-.322-.271.408,3.031-1.1a5.637,5.637,0,0,1-1.367,2.865l-.542.571Zm-5.358-.21.025-1.524,2.181-.832-2.541-.846-.338-.007.94-.555,1.989.4-.3-1.273-.71-.531,1.437.069.48,1.63,1.64-.835.646.323-.711,1.068-1.394.671,1.33.964-.372,1.418-.318-.935-1.387-.694-2.057.771Zm13.782,1.534a2.259,2.259,0,0,1-1.487.772A3.212,3.212,0,0,1,37.212,26.2l-.384.282a6.887,6.887,0,0,0,2.326,2.443,2.106,2.106,0,0,1-1.281-.035,2.25,2.25,0,0,1-1.223-1.434l-.461.143a5.123,5.123,0,0,1-.753,4.759,5.14,5.14,0,0,1-.753-4.759l-.456-.143A2.256,2.256,0,0,1,33,28.887a2.106,2.106,0,0,1-1.281.035,6.887,6.887,0,0,0,2.326-2.443l-.384-.282a3.217,3.217,0,0,1-2.25,1.059,2.269,2.269,0,0,1-1.492-.772,7.942,7.942,0,0,0,3.915-1.6c.071-.01.147-.025.22-.039a3.867,3.867,0,0,1-2.513,1.683.12.12,0,0,0,.008.24h.01a4.288,4.288,0,0,0,2.859-2l.041-.008c.01.048.024.1.033.149a6.806,6.806,0,0,0,.182.714v0a6.289,6.289,0,0,1-1.393,2.351.122.122,0,0,0-.021.168.121.121,0,0,0,.169.021,6.187,6.187,0,0,0,1.386-2.224l.444.717.01.01.044.071-.007.257a21.316,21.316,0,0,0,.02,3.432l.119.3.106-.3a21.118,21.118,0,0,0,.024-2.945c-.007-.29-.013-.541-.015-.723l.069-.112,0,0,.408-.658c.007-.014.012-.029.018-.043a6.2,6.2,0,0,0,1.388,2.226.12.12,0,0,0,.147-.189,6.354,6.354,0,0,1-1.41-2.4l0-.007.184-.766.147.03a4.24,4.24,0,0,0,2.806,1.934h.01a.12.12,0,0,0,.01-.24,3.822,3.822,0,0,1-2.474-1.63l.207.036a7.778,7.778,0,0,0,3.886,1.554m-1.76-3.775a2.5,2.5,0,0,0-.089-.461l1.036.5L39,23.571l.554,2.115a6.568,6.568,0,0,1-1.31-.56l.312.057-.474-.523a6.309,6.309,0,0,1-1.363-2.912l2.5,1.406Zm1.594-1.233.478-1.627L42.7,19.78l-.71.531-.3,1.273,1.989-.4.94.555h-.3l-2.578.853,2.181.832.025,1.524-.54-.721-2.057-.771-1.387.694-.319.935-.372-1.418,1.331-.964L39,21.933a4.485,4.485,0,0,0-.41-.837,3.318,3.318,0,0,0,.89-.244ZM37.558,14.31l-.1.007-.069.077c-.074.086-.119.137,0,1.839l0,.063a9.335,9.335,0,0,1-.872,2.492l-.13.244,3.258,1.186a2.668,2.668,0,0,1-1.482.417l-.518-.033.312.417a4,4,0,0,1,.642,1.233l-2.456-1.376.038.45a6.705,6.705,0,0,0,1.156,3.152l-.907-.158-.076-.014-.072-.014-.082-.014L36,24.229v.01h0l-.116.523-.167.748v0l-.035.144-.067.1-.173.279-.22-.341-.048-.076-.035-.144,0-.01-.206-.859-.11-.446,0-.015-.187.058-.077.019-.7.149a6.349,6.349,0,0,0,1.094-2.995l.019-.365-2.37.859.735-1.1-1.666-.829,3.033-.869V18.9a1.647,1.647,0,0,0-.259-1.056,5.024,5.024,0,0,1-.49-1.118,4.235,4.235,0,0,1-.18-.854,6.115,6.115,0,0,0,.024-1.387,4.659,4.659,0,0,1,.914-2.158l-.288-.369-.959.45-.129-.048.512-.888,1.5-1.146-1.693-.149.878-.158-.091-.263a2.788,2.788,0,0,1-.139-.561l.057-.029-.029-.178c-.029-.173-.24-.577-1.565-.509a1.789,1.789,0,0,0-.441.048,1.233,1.233,0,0,1,.173-.748,1.908,1.908,0,0,1,1.549-.672.493.493,0,0,0,.413-.216.5.5,0,0,0,.071-.336c.317-.3,1.506-.11,2.389.035a9.957,9.957,0,0,0,1.674.176,3.889,3.889,0,0,1-.815.835l-.206.144.158.2a2.538,2.538,0,0,0,.408.388,1.608,1.608,0,0,1,.287.274,3.151,3.151,0,0,1,.428.853L37.2,9.121l.878,1.627.23,1.027-1.967-.831.263,1.281-.1.307-.274-.071-.321-.509-.4.259.418.667.9.235.273-.864-.1-.483,0-.025.038.017.1.041a9.073,9.073,0,0,1,.425,2.512h0m2.774,4.452a.849.849,0,0,1-1.057-.089c-.533-.46-.484-1.343.132-2.363L39.4,16.3c.112-.033.207-.067.286-.1l.485.841c.453.785.515,1.426.166,1.716m4.616-.421c-1.258.338-2.539.28-4.4-1.585l-.593-.593-.055-.055.046-.026a1.61,1.61,0,0,0,.286-.273l.011.011a8.5,8.5,0,0,0,1.9,1.655l.048-.235a11.032,11.032,0,0,1-1.778-1.59l-.032-.032a2.984,2.984,0,0,0,.172-.263l.116.077,1.057.705c.206.137.508.352.858.6.72.511,1.653,1.173,2.369,1.6m-.695-4.087c-.484.067-.971.133-1.451.214l-1.049.175,1.022.292a30.714,30.714,0,0,0,4.793.978c-1.412,1.789-2.9,1.072-4.473.316-.381-.184-.776-.373-1.156-.516l-1.174-.44-.141-.054c.063-.12.126-.262.187-.412a5.473,5.473,0,0,0,2.062.939l.06-.234a5.116,5.116,0,0,1-2.032-.939c.051-.153.1-.321.142-.5a11.615,11.615,0,0,0,1.329.081,8.206,8.206,0,0,0,1.418-.1l-.045-.236a9.982,9.982,0,0,1-2.647.029l0-.018c.082-.415.137-.72.174-.953a9.08,9.08,0,0,0,3.259-.9l-.119-.207a8.793,8.793,0,0,1-3.1.869c.025-.18.035-.285.038-.341a5.494,5.494,0,0,1,2.11-2.319,8.945,8.945,0,0,0,1.847-1.345l-.368-.306a9.543,9.543,0,0,1-1.733,1.245,5.809,5.809,0,0,0-2.319,2.587l.224.085h-.24a11.094,11.094,0,0,1-.242,1.5,4.508,4.508,0,0,1-.462,1.318l-.18-.067.158.106a2.021,2.021,0,0,1-.469.592,1.351,1.351,0,0,1-.144.066l-.279-.278.182.315a3.431,3.431,0,0,1-.573.147c-.039.007-.085.013-.126.018-.087.013-.179.024-.276.031l-.136.01c-.12.006-.253,0-.388,0a9.684,9.684,0,0,0,.108-1.26,2.493,2.493,0,0,0,.423-.124l.021-.007a1.865,1.865,0,0,0,.33-.17l.026-.017a1.617,1.617,0,0,0,.253-.207l.024-.025a1.52,1.52,0,0,0,.187-.236l.018-.03a1.655,1.655,0,0,0,.132-.259l.012-.032a2.065,2.065,0,0,0,.086-.273l.006-.03a2.582,2.582,0,0,0,.046-.282v-.02c.01-.1.014-.194.014-.288,0-1.38.657-1.884,1.652-2.648q.232-.177.48-.373c1.316-.876,3.955-2.636,5.182-4.67.311,2.137-.815,4.063-3.5,6.017l-1.555,1.131,1.785-.714a39.88,39.88,0,0,0,7.114-4.4C50.7,9.436,46.8,11.658,43.008,13l-1.32.466h1.4a34.988,34.988,0,0,0,6.633-1.319c-1.107,1.509-3.23,1.8-5.467,2.109" transform="translate(3.805 0.695)" fill="#1a1818"/>
        <path id="Path_2683" data-name="Path 2683" d="M34.533,12.622l-.237.038a1.149,1.149,0,0,1-.52,1.206,1.379,1.379,0,0,1-.449-1.163l-.231-.062a.785.785,0,0,0-.018.1l-.046.008a1.146,1.146,0,0,1-.521,1.2,1.373,1.373,0,0,1-.448-1.162l-.232-.062a1.607,1.607,0,0,0,.587,1.473l.032.033a1.813,1.813,0,0,0,.615,1.232l.077.077.116-.1a1.421,1.421,0,0,0,.665-1.4,1.381,1.381,0,0,0,.61-1.434m-1.374,2.6a1.426,1.426,0,0,1-.456-1.114,1.589,1.589,0,0,0,.508-.641,2.4,2.4,0,0,0,.472.646l.006.007a1.148,1.148,0,0,1-.529,1.1" transform="translate(6.093 2.419)" fill="#1a1818"/>
      </g>
    </g>
  </g>
</svg>
