<svg width="25" height="25" viewBox="0 0 25 25" fill="none" xmlns="http://www.w3.org/2000/svg">
<mask id="mask0_2281_12241" style="mask-type:luminance" maskUnits="userSpaceOnUse" x="0" y="0" width="20" height="20">
<path fill-rule="evenodd" clip-rule="evenodd" d="M0 0H19.4768V19.477H0V0Z" fill="white"/>
</mask>
<g mask="url(#mask0_2281_12241)">
<mask id="path-2-outside-1_2281_12241" maskUnits="userSpaceOnUse" x="0" y="0" width="20" height="20" fill="black">
<rect fill="white" width="20" height="20"/>
<path fill-rule="evenodd" clip-rule="evenodd" d="M9.73895 2.34597C5.66245 2.34597 2.34597 5.66155 2.34597 9.73805C2.34597 13.8146 5.66245 17.131 9.73895 17.131C13.8146 17.131 17.131 13.8146 17.131 9.73805C17.131 5.66155 13.8146 2.34597 9.73895 2.34597M9.73895 18.477C4.92037 18.477 1 14.5566 1 9.73805C1 4.91947 4.92037 1 9.73895 1C14.5575 1 18.477 4.91947 18.477 9.73805C18.477 14.5566 14.5575 18.477 9.73895 18.477"/>
</mask>
<path fill-rule="evenodd" clip-rule="evenodd" d="M9.73895 2.34597C5.66245 2.34597 2.34597 5.66155 2.34597 9.73805C2.34597 13.8146 5.66245 17.131 9.73895 17.131C13.8146 17.131 17.131 13.8146 17.131 9.73805C17.131 5.66155 13.8146 2.34597 9.73895 2.34597M9.73895 18.477C4.92037 18.477 1 14.5566 1 9.73805C1 4.91947 4.92037 1 9.73895 1C14.5575 1 18.477 4.91947 18.477 9.73805C18.477 14.5566 14.5575 18.477 9.73895 18.477" fill="white"/>
<path d="M9.73895 1.34597C5.11032 1.34597 1.34597 5.10911 1.34597 9.73805H3.34597C3.34597 6.21399 6.21457 3.34597 9.73895 3.34597V1.34597ZM1.34597 9.73805C1.34597 14.3668 5.11016 18.131 9.73895 18.131V16.131C6.21473 16.131 3.34597 13.2623 3.34597 9.73805H1.34597ZM9.73895 18.131C14.3669 18.131 18.131 14.3668 18.131 9.73805H16.131C16.131 13.2623 13.2622 16.131 9.73895 16.131V18.131ZM18.131 9.73805C18.131 5.10919 14.3668 1.34597 9.73895 1.34597V3.34597C13.2623 3.34597 16.131 6.21391 16.131 9.73805H18.131ZM9.73895 17.477C5.47265 17.477 2 14.0043 2 9.73805H0C0 15.1089 4.36808 19.477 9.73895 19.477V17.477ZM2 9.73805C2 5.47189 5.47252 2 9.73895 2V0C4.36822 0 0 4.36705 0 9.73805H2ZM9.73895 2C14.0052 2 17.477 5.47176 17.477 9.73805H19.477C19.477 4.36719 15.1098 0 9.73895 0V2ZM17.477 9.73805C17.477 14.0045 14.0051 17.477 9.73895 17.477V19.477C15.1099 19.477 19.477 15.1088 19.477 9.73805H17.477Z" fill="white" mask="url(#path-2-outside-1_2281_12241)"/>
</g>
<mask id="mask1_2281_12241" style="mask-type:luminance" maskUnits="userSpaceOnUse" x="14" y="15" width="11" height="10">
<path fill-rule="evenodd" clip-rule="evenodd" d="M15.24 15.7069H23.5484V24H15.24V15.7069Z" fill="white" stroke="white"/>
</mask>
<g mask="url(#mask1_2281_12241)">
<path fill-rule="evenodd" clip-rule="evenodd" d="M22.3085 24C21.9926 24 21.6751 23.8793 21.432 23.6378L15.6042 17.8266C15.1197 17.3421 15.118 16.5565 15.6026 16.072C16.0855 15.5842 16.871 15.5875 17.3572 16.0687L23.1849 21.8816C23.6695 22.3661 23.6711 23.15 23.1866 23.6345C22.9451 23.8793 22.626 24 22.3085 24" fill="white"/>
<path d="M22.3085 24C21.9926 24 21.6751 23.8793 21.432 23.6378L15.6042 17.8266C15.1197 17.3421 15.118 16.5565 15.6026 16.072C16.0855 15.5842 16.871 15.5875 17.3572 16.0687L23.1849 21.8816C23.6695 22.3661 23.6711 23.15 23.1866 23.6345C22.9451 23.8793 22.626 24 22.3085 24" stroke="white"/>
</g>
</svg>
