<svg width="302" height="384" viewBox="0 0 302 384" fill="currentColor" xmlns="http://www.w3.org/2000/svg">
<path d="M300.058 129.539C299.918 111.497 299.627 73.9564 299.627 28.4394V26.9684L298.219 26.5614C247.929 12.1054 205.129 1.12444 150.915 2.17444C100.617 3.14744 59.2623 9.98044 3.4293 26.5664L2.0293 26.9774V28.4344C2.0293 74.2464 2.3393 113.334 2.4693 130.028C2.5083 135.066 2.5323 138.318 2.5323 139.485C3.5443 191.05 14.7673 235.546 35.8633 271.705C59.4173 313.705 105.249 357.916 149.914 381.737L150.829 382.226L151.748 381.737C197.265 357.457 243.503 313.237 266.786 271.737C287.901 235.537 299.115 191.037 300.126 139.437C300.126 138.213 300.097 134.796 300.058 129.53" stroke="currentColor" stroke-width="3"/>
</svg>
