<svg width="61" height="78" viewBox="0 0 61 78" fill="none" xmlns="http://www.w3.org/2000/svg">
<path d="M60.4907 26.266C60.4627 22.607 60.4037 14.995 60.4037 5.76602V5.46602L60.1177 5.38402C49.9187 2.45302 41.2407 0.22502 30.2467 0.43902C20.0467 0.63602 11.6607 2.02502 0.338688 5.38502L0.0546875 5.46802V5.76802C0.0546875 15.058 0.117688 22.985 0.143688 26.368C0.154688 27.387 0.154688 28.047 0.154688 28.283C0.359688 38.74 2.63569 47.763 6.91369 55.096C11.6907 63.612 20.9837 72.578 30.0417 77.408L30.2267 77.508L30.4127 77.408C39.6427 72.484 49.0197 63.518 53.7407 55.103C58.0227 47.762 60.2967 38.739 60.5017 28.275C60.5017 28.027 60.4957 27.334 60.4877 26.266" fill="#ffffff"/>
</svg>
