<svg xmlns="http://www.w3.org/2000/svg" xmlns:xlink="http://www.w3.org/1999/xlink" width="38.672" height="38.672" viewBox="0 0 38.672 38.672">

  <g id="x" data-name="x" class="cls-2">
    <path id="Path_2327" data-name="Path 2327" class="cls-1" d="M15.092,10.673l12.049,17.17h-3.2L11.91,10.673ZM38.516,6.419V32.1A6.419,6.419,0,0,1,32.1,38.516H6.419A6.419,6.419,0,0,1,0,32.1V6.419A6.419,6.419,0,0,1,6.419,0H32.1a6.419,6.419,0,0,1,6.419,6.419M31.108,29.957,22.151,17.14l7.322-8.581H26.668l-5.786,6.762L16.16,8.559H7.922l8.433,12.054-8,9.345H11.21l6.422-7.524,5.26,7.524Z" transform="translate(0 0.156)"/>
  </g>
</svg>
