<svg xmlns="http://www.w3.org/2000/svg" xmlns:xlink="http://www.w3.org/1999/xlink" width="38.494" height="30.795" viewBox="0 0 38.494 30.795">

  <g id="YouTube" data-name="YouTube" class="cls-2">
    <path id="Path_2329" data-name="Path 2329" class="cls-1" d="M37.69,4.207a4.824,4.824,0,0,0-3.4-3.4c-3-.8-15.039-.8-15.039-.8S7.21,0,4.207.8a4.824,4.824,0,0,0-3.4,3.4C0,7.21,0,15.4,0,15.4s0,8.188.8,11.19a4.824,4.824,0,0,0,3.4,3.4c3,.8,15.04.8,15.04.8s12.037,0,15.039-.8a4.821,4.821,0,0,0,3.4-3.4c.8-3,.8-11.19.8-11.19s0-8.188-.8-11.19M15.4,22.065V8.73L26.946,15.4Z" transform="translate(0 0)"/>
  </g>
</svg>
